0
SECTION
2
HEADER
9
$INSUNITS
70
4
9
$ACADVER
1
AC1014
9
$HANDSEED
5
FFFF
0
ENDSEC
0
SECTION
2
TABLES
0
TABLE
2
VPORT
5
8
100
AcDbSymbolTable
0
ENDTAB
0
TABLE
2
LTYPE
5
5
100
AcDbSymbolTable
0
LTYPE
5
14
100
AcDbSymbolTableRecord
100
AcDbLinetypeTableRecord
2
BYBLOCK
70
0
0
LTYPE
5
15
100
AcDbSymbolTableRecord
100
AcDbLinetypeTableRecord
2
BYLAYER
70
0
0
ENDTAB
0
TABLE
2
LAYER
5
2
100
AcDbSymbolTable
70
2
0
LAYER
5
50
100
AcDbSymbolTableRecord
100
AcDbLayerTableRecord
2
0
70
0
6
CONTINUOUS
0
ENDTAB
0
TABLE
2
STYLE
5
3
100
AcDbSymbolTable
70
1
0
STYLE
5
11
100
AcDbSymbolTableRecord
100
AcDbTextStyleTableRecord
2
STANDARD
70
0
0
ENDTAB
0
TABLE
2
VIEW
5
6
100
AcDbSymbolTable
70
0
0
ENDTAB
0
TABLE
2
UCS
5
7
100
AcDbSymbolTable
70
0
0
ENDTAB
0
TABLE
2
APPID
5
9
100
AcDbSymbolTable
70
2
0
APPID
5
12
100
AcDbSymbolTableRecord
100
AcDbRegAppTableRecord
2
ACAD
70
0
0
ENDTAB
0
TABLE
2
DIMSTYLE
5
A
100
AcDbSymbolTable
70
1
0
ENDTAB
0
TABLE
2
BLOCK_RECORD
5
1
100
AcDbSymbolTable
70
1
0
BLOCK_RECORD
5
1F
100
AcDbSymbolTableRecord
100
AcDbBlockTableRecord
2
*MODEL_SPACE
0
BLOCK_RECORD
5
1B
100
AcDbSymbolTableRecord
100
AcDbBlockTableRecord
2
*PAPER_SPACE
0
ENDTAB
0
ENDSEC
0
SECTION
2
BLOCKS
0
BLOCK
5
20
100
AcDbEntity
100
AcDbBlockBegin
2
*MODEL_SPACE
0
ENDBLK
5
21
100
AcDbEntity
100
AcDbBlockEnd
0
BLOCK
5
1C
100
AcDbEntity
100
AcDbBlockBegin
2
*PAPER_SPACE
0
ENDBLK
5
1D
100
AcDbEntity
100
AcDbBlockEnd
0
ENDSEC
0
SECTION
2
ENTITIES
0
CIRCLE
5
100
100
AcDbEntity
8
0
100
AcDbCircle
10
179.94616236955943
20
67.549981710315095
30
0
40
1.4999999999999147
210
0
220
0
230
1
0
CIRCLE
5
101
100
AcDbEntity
8
0
100
AcDbCircle
10
198.74628550995524
20
67.54998171031508
30
0
40
1.4999999999999196
210
0
220
0
230
1
0
CIRCLE
5
102
100
AcDbEntity
8
0
100
AcDbCircle
10
113.94616236955942
20
67.549981710315095
30
0
40
1.4999999999999147
210
0
220
0
230
1
0
CIRCLE
5
103
100
AcDbEntity
8
0
100
AcDbCircle
10
132.74628550995521
20
67.549981710315095
30
0
40
1.4999999999999147
210
0
220
0
230
1
0
CIRCLE
5
104
100
AcDbEntity
8
0
100
AcDbCircle
10
96.350106242958788
20
16.349975585938008
30
0
40
2
210
0
220
-0
230
1
0
CIRCLE
5
105
100
AcDbEntity
8
0
100
AcDbCircle
10
96.350106242958802
20
61.349975585937997
30
0
40
2
210
0
220
-0
230
1
0
CIRCLE
5
106
100
AcDbEntity
8
0
100
AcDbCircle
10
216.35010624295882
20
16.34997558593799
30
0
40
2
210
0
220
-0
230
1
0
CIRCLE
5
107
100
AcDbEntity
8
0
100
AcDbCircle
10
216.35010624295882
20
61.34997558593799
30
0
40
2
210
0
220
-0
230
1
0
LWPOLYLINE
5
108
100
AcDbEntity
8
0
100
AcDbPolyline
90
4
70
1
43
0.0
10
146.50845937192122
20
17.3499755859347
10
165.50845937192122
20
17.349975585934697
10
165.50845937192122
20
30.349974974987077
10
146.50845937192122
20
30.349974974987077
0
LWPOLYLINE
5
109
100
AcDbEntity
8
0
100
AcDbPolyline
90
28
70
1
43
0.0
10
81.350106242958802
20
56.34997558593799
10
86.350106242958802
20
56.34997558593799
10
86.350106242958802
20
71.349975585937983
10
226.35010624295882
20
71.349975585937983
10
226.35010624295882
20
56.349975585937969
10
231.35010624295882
20
56.349975585937969
10
231.35010624295882
20
41.349975585937969
10
226.35010624295882
20
41.349975585937969
10
226.35010624295882
20
26.349975585937976
10
231.35010624295882
20
26.349975585937983
10
231.35010624295882
20
11.349975585937981
10
206.35010624295882
20
11.349975585937981
10
206.35010624295882
20
6.3499755859379814
10
186.35010624295882
20
6.3499755859379832
10
186.35010624295882
20
11.349975585937988
10
166.35010624295882
20
11.34997558593799
10
166.35010624295882
20
6.3499755859379903
10
146.35010624295882
20
6.3499755859379921
10
146.35010624295882
20
11.349975585937988
10
126.3501062429588
20
11.34997558593799
10
126.3501062429588
20
6.3499755859379903
10
106.35010624295879
20
6.3499755859379921
10
106.35010624295879
20
11.349975585937997
10
81.350106242958788
20
11.349975585937999
10
81.350106242958788
20
26.349975585937997
10
86.350106242958788
20
26.349975585937997
10
86.350106242958788
20
41.34997558593799
10
81.350106242958788
20
41.34997558593799
0
LWPOLYLINE
5
110
100
AcDbEntity
8
0
100
AcDbPolyline
90
84
70
1
43
0.0
10
101.34973620408928
20
371.34949174297134
10
101.3497362040892
20
376.34974098867332
10
76.349736204089197
20
376.34974098867332
10
76.349736204089197
20
356.34974098867332
10
81.245986938476562
20
356.34974098867332
10
81.245986938476562
20
336.34974098867332
10
76.349736204089197
20
336.34974098867332
10
76.349736204089197
20
316.34974098867332
10
81.245986938476562
20
316.34974098867332
10
81.245986938476562
20
296.34974098867332
10
76.349736204089197
20
296.34974098867332
10
76.349736204089197
20
276.34974098867332
10
81.245986938476562
20
276.34974098867332
10
81.245986938476562
20
256.34974098867332
10
76.349736204089197
20
256.34974098867332
10
76.349736204089197
20
236.34974098867332
10
81.245986938476562
20
236.34974098867332
10
81.245986938476562
20
216.34974098867332
10
76.349736204089197
20
216.34974098867332
10
76.349736204089197
20
196.34974098867332
10
81.245986938476562
20
196.34974098867332
10
81.245986938476562
20
176.34974098867332
10
76.349736204089197
20
176.34974098867332
10
76.349736204089197
20
156.34974098867332
10
81.245986938476562
20
156.34974098867332
10
81.245986938476562
20
136.34974098867332
10
76.349736204089197
20
136.34974098867332
10
76.349736204089197
20
116.34974098867332
10
81.245986938476562
20
116.34974098867332
10
81.245986938476562
20
96.349740988673318
10
76.349736204089197
20
96.349740988673318
10
76.349736204089211
20
76.349740988673318
10
101.34973620408928
20
76.349740988673318
10
101.34973620408928
20
81.349740988673318
10
121.34973620408928
20
81.349740988673318
10
121.34973620408928
20
76.349740988673318
10
141.34973620408928
20
76.349740988673318
10
141.34973620408928
20
81.349740988673318
10
161.34973620408928
20
81.349740988673318
10
161.34973620408928
20
76.349740988673318
10
181.34973620408928
20
76.349740988673318
10
181.34973620408928
20
81.349740988673318
10
201.34973620408928
20
81.349740988673318
10
201.34973620408928
20
76.349740988673318
10
226.3497362040892
20
76.349740988673318
10
226.3497362040892
20
96.349740988673318
10
221.34973620408928
20
96.349740988673318
10
221.3497362040892
20
116.34974098867332
10
226.3497362040892
20
116.34974098867332
10
226.3497362040892
20
136.34974098867332
10
221.34973620408928
20
136.34974098867332
10
221.3497362040892
20
156.34974098867332
10
226.3497362040892
20
156.34974098867332
10
226.3497362040892
20
176.34974098867332
10
221.34973620408928
20
176.34974098867332
10
221.3497362040892
20
196.34974098867332
10
226.3497362040892
20
196.34974098867332
10
226.3497362040892
20
216.34974098867332
10
221.34973620408928
20
216.34974098867332
10
221.3497362040892
20
236.34974098867332
10
226.3497362040892
20
236.34974098867332
10
226.3497362040892
20
256.34974098867332
10
221.34973620408928
20
256.34974098867332
10
221.3497362040892
20
276.34974098867332
10
226.3497362040892
20
276.34974098867332
10
226.3497362040892
20
296.34974098867332
10
221.34973620408928
20
296.34974098867332
10
221.3497362040892
20
316.34974098867332
10
226.3497362040892
20
316.34974098867332
10
226.3497362040892
20
336.34974098867332
10
221.34973620408928
20
336.34974098867332
10
221.3497362040892
20
356.34974098867332
10
226.3497362040892
20
356.34974098867332
10
226.3497362040892
20
376.34974098867332
10
201.3497362040892
20
376.34974098867275
10
201.34973620408928
20
371.34949174297134
10
181.34973620408928
20
371.34949174297134
10
181.34973620408917
20
376.34974098867332
10
161.3497362040892
20
376.34974098867275
10
161.34973620408928
20
371.34949174297134
10
141.34973620408928
20
371.34949174297134
10
141.3497362040892
20
376.34974098867332
10
121.3497362040892
20
376.34974098867275
10
121.34973620408928
20
371.34949174297077
0
CIRCLE
5
111
100
AcDbEntity
8
0
100
AcDbCircle
10
253.39283027025056
20
105.61499055466072
30
0
40
1.6000000000000003
210
0
220
-0
230
1
0
CIRCLE
5
112
100
AcDbEntity
8
0
100
AcDbCircle
10
285.39283027025056
20
105.61499055466072
30
0
40
1.6000000000000003
210
0
220
-0
230
1
0
CIRCLE
5
113
100
AcDbEntity
8
0
100
AcDbCircle
10
285.39283027025056
20
137.61499055466061
30
0
40
1.6000000000000003
210
0
220
-0
230
1
0
CIRCLE
5
114
100
AcDbEntity
8
0
100
AcDbCircle
10
253.39283027025056
20
137.61499055466061
30
0
40
1.6000000000000003
210
0
220
-0
230
1
0
CIRCLE
5
115
100
AcDbEntity
8
0
100
AcDbCircle
10
285.39283027025056
20
315.61499055466072
30
0
40
1.6000000000000003
210
0
220
-0
230
1
0
CIRCLE
5
116
100
AcDbEntity
8
0
100
AcDbCircle
10
253.39283027025058
20
347.61499055466061
30
0
40
1.6000000000000003
210
0
220
-0
230
1
0
CIRCLE
5
117
100
AcDbEntity
8
0
100
AcDbCircle
10
285.39283027025056
20
347.61499055466061
30
0
40
1.6000000000000003
210
0
220
-0
230
1
0
CIRCLE
5
118
100
AcDbEntity
8
0
100
AcDbCircle
10
253.39283027025058
20
315.61499055466072
30
0
40
1.6000000000000003
210
0
220
-0
230
1
0
CIRCLE
5
119
100
AcDbEntity
8
0
100
AcDbCircle
10
269.34973144531233
20
121.58449174297147
30
1.7347234759768071e-17
40
13.000000000000044
210
0
220
0
230
1
0
CIRCLE
5
120
100
AcDbEntity
8
0
100
AcDbCircle
10
269.34973144531233
20
331.58449174297147
30
1.7347234759768071e-17
40
13.000000000000044
210
0
220
0
230
1
0
LWPOLYLINE
5
121
100
AcDbEntity
8
0
100
AcDbPolyline
90
44
70
1
43
0.0
10
246.34973144531233
20
376.34974098867332
10
231.34973144531233
20
376.34974098867332
10
231.34973144531233
20
76.349740988673318
10
246.34973144531233
20
76.349740988673318
10
246.34973144531233
20
81.349740988673318
10
261.34973144531233
20
81.349740988673318
10
261.34973144531233
20
76.349740988673318
10
276.34973144531233
20
76.349740988673318
10
276.34973144531233
20
81.349740988673318
10
291.34973144531233
20
81.349740988673318
10
291.34973144531239
20
96.349740988673318
10
296.34973144531239
20
96.349740988673318
10
296.34973144531239
20
116.34974098867332
10
291.34973144531239
20
116.34974098867332
10
291.34973144531233
20
136.34974098867332
10
296.34973144531233
20
136.34974098867332
10
296.34973144531233
20
156.34974098867332
10
291.34973144531233
20
156.34974098867332
10
291.34973144531239
20
176.34974098867332
10
296.34973144531239
20
176.34974098867332
10
296.34973144531239
20
196.34974098867332
10
291.34973144531233
20
196.34974098867332
10
291.34973144531233
20
216.34974098867332
10
296.34973144531233
20
216.34974098867332
10
296.34973144531233
20
236.34974098867332
10
291.34973144531233
20
236.34974098867332
10
291.34973144531239
20
256.34974098867332
10
296.34973144531239
20
256.34974098867332
10
296.34973144531239
20
276.34974098867332
10
291.34973144531233
20
276.34974098867332
10
291.34973144531233
20
296.34974098867332
10
296.34973144531233
20
296.34974098867332
10
296.34973144531239
20
316.34974098867332
10
291.34973144531239
20
316.34974098867332
10
291.34973144531239
20
336.34974098867332
10
296.34973144531239
20
336.34974098867332
10
296.34973144531233
20
356.34974098867332
10
291.34973144531233
20
356.34974098867332
10
291.34973144531233
20
371.34974098868128
10
276.34973144531233
20
371.34974098867332
10
276.34973144531233
20
376.34974098867332
10
261.34973144531233
20
376.34974098867332
10
261.34973144531233
20
371.34974098867332
10
246.34973144531233
20
371.34974098867332
0
LWPOLYLINE
5
122
100
AcDbEntity
8
0
100
AcDbPolyline
90
28
70
1
43
0.0
10
251.34984492891604
20
441.34985351562483
10
251.34984492891604
20
446.34985351562483
10
271.34984492891601
20
446.34985351562483
10
271.34984492891601
20
441.34985351562483
10
296.34984492891601
20
441.34985351562483
10
296.34984492891601
20
426.34985351562483
10
291.34984492891601
20
426.34985351562483
10
291.34984492891601
20
411.34985351562483
10
296.34984492891601
20
411.34985351562483
10
296.34984492891601
20
396.34985351562483
10
291.34984492891601
20
396.34985351562483
10
291.34984492891601
20
381.34985351562483
10
151.34984492891604
20
381.34985351562483
10
151.34984492891604
20
396.34985351562483
10
146.34984492891604
20
396.34985351562483
10
146.34984492891604
20
411.34985351562483
10
151.34984492891604
20
411.34985351562483
10
151.34984492891604
20
426.34985351562483
10
146.34984492891604
20
426.34985351562483
10
146.34984492891604
20
441.34985351562483
10
171.34984492891604
20
441.34985351562483
10
171.34984492891604
20
446.34985351562483
10
191.34984492891604
20
446.34985351562483
10
191.34984492891604
20
441.34985351562483
10
211.34984492891604
20
441.34985351562483
10
211.34984492891604
20
446.34985351562483
10
231.34984492891604
20
446.34985351562483
10
231.34984492891604
20
441.34985351562483
0
CIRCLE
5
123
100
AcDbEntity
8
0
100
AcDbCircle
10
17.306899649183201
20
105.08447233596456
30
0
40
1.6000000000000003
210
0
220
-0
230
1
0
CIRCLE
5
124
100
AcDbEntity
8
0
100
AcDbCircle
10
49.306899649183208
20
105.08447233596456
30
0
40
1.6000000000000003
210
0
220
-0
230
1
0
CIRCLE
5
125
100
AcDbEntity
8
0
100
AcDbCircle
10
17.306899649183212
20
137.08447233596445
30
0
40
1.6000000000000003
210
0
220
-0
230
1
0
CIRCLE
5
126
100
AcDbEntity
8
0
100
AcDbCircle
10
49.306899649183215
20
137.08447233596445
30
0
40
1.6000000000000003
210
0
220
-0
230
1
0
CIRCLE
5
127
100
AcDbEntity
8
0
100
AcDbCircle
10
17.306899649183265
20
347.08447233596445
30
0
40
1.6000000000000003
210
0
220
-0
230
1
0
CIRCLE
5
128
100
AcDbEntity
8
0
100
AcDbCircle
10
49.306899649183258
20
347.08447233596445
30
0
40
1.6000000000000003
210
0
220
-0
230
1
0
CIRCLE
5
129
100
AcDbEntity
8
0
100
AcDbCircle
10
17.306899649183258
20
315.08447233596456
30
0
40
1.6000000000000003
210
0
220
-0
230
1
0
CIRCLE
5
130
100
AcDbEntity
8
0
100
AcDbCircle
10
49.306899649183258
20
315.08447233596456
30
0
40
1.6000000000000003
210
0
220
-0
230
1
0
CIRCLE
5
131
100
AcDbEntity
8
0
100
AcDbCircle
10
33.349998474121463
20
331.1149711476537
30
0
40
13.000000000000044
210
0
220
-0
230
1
0
CIRCLE
5
132
100
AcDbEntity
8
0
100
AcDbCircle
10
33.349998474121435
20
121.1149711476537
30
0
40
13.000000000000044
210
0
220
-0
230
1
0
LWPOLYLINE
5
133
100
AcDbEntity
8
0
100
AcDbPolyline
90
44
70
1
43
0.0
10
6.3499984741214277
20
116.34972190195185
10
11.349998474121428
20
116.34972190195185
10
11.349998474121437
20
136.34972190195185
10
6.3499984741214366
20
136.34972190195185
10
6.3499984741214366
20
156.34972190195185
10
11.349998474121437
20
156.34972190195185
10
11.349998474121445
20
176.34972190195185
10
6.3499984741214366
20
176.34972190195185
10
6.3499984741214455
20
196.34972190195185
10
11.349998474121445
20
196.34972190195185
10
11.349998474121445
20
216.34972190195185
10
6.3499984741214455
20
216.34972190195185
10
6.3499984741214544
20
236.34972190195185
10
11.349998474121454
20
236.34972190195185
10
11.349998474121454
20
256.34972190195185
10
6.3499984741214455
20
256.34972190195185
10
6.3499984741214544
20
276.34972190195185
10
11.349998474121454
20
276.34972190195185
10
11.349998474121454
20
296.34972190195185
10
6.3499984741214544
20
296.34972190195185
10
6.3499984741214632
20
316.34972190195185
10
11.349998474121463
20
316.34972190195185
10
11.349998474121454
20
336.34972190195185
10
6.3499984741214544
20
336.34972190195185
10
6.3499984741214632
20
356.34972190195185
10
11.349998474121463
20
356.34972190195185
10
11.349998474121463
20
371.34972190195185
10
26.349998474121463
20
371.34972190195185
10
26.349998474121463
20
376.34972190195185
10
41.349998474121463
20
376.34972190195185
10
41.349998474121463
20
371.34972190195185
10
56.349998474121463
20
371.34972190195185
10
56.349998474121463
20
376.34972190195185
10
71.349998474121463
20
376.34972190195185
10
71.349998474121435
20
76.349721901951852
10
56.349998474121428
20
76.349721901951852
10
56.349998474121428
20
81.349721901951852
10
41.349998474121428
20
81.349721901951852
10
41.349998474121428
20
76.349721901951852
10
26.349998474121428
20
76.349721901951852
10
26.349998474121428
20
81.349721901951852
10
11.349998474121428
20
81.349721901943894
10
11.349998474121437
20
96.349721901951852
10
6.3499984741214366
20
96.349721901951852
0
ENDSEC
0
SECTION
2
OBJECTS
0
DICTIONARY
5
C
100
AcDbDictionary
3
ACAD_GROUP
350
D
3
ACAD_MLINESTYLE
350
17
0
DICTIONARY
5
D
100
AcDbDictionary
0
DICTIONARY
5
1A
330
C
100
AcDbDictionary
0
DICTIONARY
5
17
100
AcDbDictionary
0
ENDSEC
0
EOF
