0
SECTION
2
HEADER
9
$INSUNITS
70
4
9
$ACADVER
1
AC1014
9
$HANDSEED
5
FFFF
0
ENDSEC
0
SECTION
2
TABLES
0
TABLE
2
VPORT
5
8
100
AcDbSymbolTable
0
ENDTAB
0
TABLE
2
LTYPE
5
5
100
AcDbSymbolTable
0
LTYPE
5
14
100
AcDbSymbolTableRecord
100
AcDbLinetypeTableRecord
2
BYBLOCK
70
0
0
LTYPE
5
15
100
AcDbSymbolTableRecord
100
AcDbLinetypeTableRecord
2
BYLAYER
70
0
0
ENDTAB
0
TABLE
2
LAYER
5
2
100
AcDbSymbolTable
70
2
0
LAYER
5
50
100
AcDbSymbolTableRecord
100
AcDbLayerTableRecord
2
0
70
0
6
CONTINUOUS
0
ENDTAB
0
TABLE
2
STYLE
5
3
100
AcDbSymbolTable
70
1
0
STYLE
5
11
100
AcDbSymbolTableRecord
100
AcDbTextStyleTableRecord
2
STANDARD
70
0
0
ENDTAB
0
TABLE
2
VIEW
5
6
100
AcDbSymbolTable
70
0
0
ENDTAB
0
TABLE
2
UCS
5
7
100
AcDbSymbolTable
70
0
0
ENDTAB
0
TABLE
2
APPID
5
9
100
AcDbSymbolTable
70
2
0
APPID
5
12
100
AcDbSymbolTableRecord
100
AcDbRegAppTableRecord
2
ACAD
70
0
0
ENDTAB
0
TABLE
2
DIMSTYLE
5
A
100
AcDbSymbolTable
70
1
0
ENDTAB
0
TABLE
2
BLOCK_RECORD
5
1
100
AcDbSymbolTable
70
1
0
BLOCK_RECORD
5
1F
100
AcDbSymbolTableRecord
100
AcDbBlockTableRecord
2
*MODEL_SPACE
0
BLOCK_RECORD
5
1B
100
AcDbSymbolTableRecord
100
AcDbBlockTableRecord
2
*PAPER_SPACE
0
ENDTAB
0
ENDSEC
0
SECTION
2
BLOCKS
0
BLOCK
5
20
100
AcDbEntity
100
AcDbBlockBegin
2
*MODEL_SPACE
0
ENDBLK
5
21
100
AcDbEntity
100
AcDbBlockEnd
0
BLOCK
5
1C
100
AcDbEntity
100
AcDbBlockBegin
2
*PAPER_SPACE
0
ENDBLK
5
1D
100
AcDbEntity
100
AcDbBlockEnd
0
ENDSEC
0
SECTION
2
ENTITIES
0
LWPOLYLINE
5
100
100
AcDbEntity
8
0
100
AcDbPolyline
90
4
70
1
43
0.0
10
52.100252664923502
20
141.20018567204511
10
46.800252664923505
20
141.20018567204511
10
46.800252664923505
20
146.50018567204484
10
52.100252664923502
20
146.50018567204484
0
LWPOLYLINE
5
101
100
AcDbEntity
8
0
100
AcDbPolyline
90
4
70
1
43
0.0
10
56.800252664923505
20
141.20018567204511
10
56.800252664923512
20
146.50018567204484
10
82.100252664923502
20
146.50018567204484
10
82.100252664923502
20
141.20018567204511
0
LWPOLYLINE
5
102
100
AcDbEntity
8
0
100
AcDbPolyline
90
4
70
1
43
0.0
10
52.100252664923488
20
16.200185672045109
10
46.800252664923498
20
16.200185672045109
10
46.800252664923491
20
21.500185672044836
10
52.100252664923481
20
21.500185672044836
0
LWPOLYLINE
5
103
100
AcDbEntity
8
0
100
AcDbPolyline
90
4
70
1
43
0.0
10
46.800252664923491
20
26.200185672045109
10
46.800252664923491
20
51.500185672044836
10
52.100252664923488
20
51.500185672044836
10
52.100252664923488
20
26.200185672045109
0
LWPOLYLINE
5
104
100
AcDbEntity
8
0
100
AcDbPolyline
90
4
70
1
43
0.0
10
167.10025266492352
20
141.20018567204511
10
141.80025266492351
20
141.20018567204511
10
141.80025266492348
20
146.50018567204484
10
167.10025266492352
20
146.50018567204484
0
LWPOLYLINE
5
105
100
AcDbEntity
8
0
100
AcDbPolyline
90
4
70
1
43
0.0
10
177.10025266492349
20
136.50018567204484
10
177.10025266492349
20
111.20018567204511
10
171.80025266492348
20
111.20018567204511
10
171.80025266492348
20
136.50018567204484
0
LWPOLYLINE
5
106
100
AcDbEntity
8
0
100
AcDbPolyline
90
4
70
1
43
0.0
10
171.80025266492351
20
21.50018567204512
10
177.10025266492352
20
21.500185672045404
10
177.10025266492349
20
16.200185672045109
10
171.80025266492351
20
16.200185672045109
0
LWPOLYLINE
5
107
100
AcDbEntity
8
0
100
AcDbPolyline
90
4
70
1
43
0.0
10
167.10025266492349
20
21.500185672044836
10
167.10025266492349
20
16.200185672045109
10
141.80025266492351
20
16.200185672045112
10
141.80025266492351
20
21.500185672044836
0
LWPOLYLINE
5
108
100
AcDbEntity
8
0
100
AcDbPolyline
90
58
70
1
43
0.0
10
187.55000170701877
20
311.94996071523576
10
115.45250170701875
20
311.94996071523576
10
115.45250170701875
20
316.94996071523605
10
108.45250170701875
20
316.94996071523605
10
108.45250170701875
20
311.94996071523576
10
36.350001707018748
20
311.94996071523576
10
36.350001707018748
20
282.54996071523578
10
31.350001707018752
20
282.54996071523578
10
31.350001707018748
20
252.54996071523578
10
36.350001707018748
20
252.54996071523578
10
36.350001707018741
20
222.54996071523578
10
31.350001707018741
20
222.54996071523578
10
31.350001707018738
20
192.54996071523578
10
36.350001707018734
20
192.54996071523578
10
36.350001707018734
20
161.94996071523576
10
31.350001707018734
20
161.94996071523576
10
31.350001707018734
20
131.34996071523574
10
36.350001707018727
20
131.34996071523574
10
36.350001707018727
20
101.34996071523574
10
31.350001707018727
20
101.34996071523574
10
31.350001707018723
20
71.349960715235738
10
36.350001707018727
20
71.349960715235738
10
36.35000170701872
20
41.349960715235738
10
31.35000170701872
20
41.349960715235738
10
31.350001707018716
20
11.349960715235738
10
36.350001707018691
20
11.349960715235738
10
36.350001707018691
20
6.3499607152357385
10
61.350001707018684
20
6.3499607152357349
10
61.350001707018684
20
11.349960715235738
10
86.350001707018691
20
11.349960715235737
10
86.350001707018706
20
6.3499607152357385
10
111.95000170701871
20
6.3499607152357349
10
111.95000170701869
20
11.349960715235738
10
137.55000170701868
20
11.349960715235737
10
137.55000170701868
20
6.3499607152357385
10
162.55000170701868
20
6.3499607152357349
10
162.55000170701868
20
11.349960715235738
10
187.55000170701868
20
11.349960715235737
10
187.55000170701874
20
6.3499607152357385
10
192.55000170701874
20
6.3499607152357376
10
192.55000170701874
20
41.349960715235738
10
187.55000170701874
20
41.349960715235738
10
187.55000170701874
20
71.349960715235738
10
192.55000170701874
20
71.349960715235738
10
192.55000170701874
20
101.34996071523574
10
187.55000170701874
20
101.34996071523574
10
187.55000170701874
20
131.34996071523574
10
192.55000170701874
20
131.34996071523574
10
192.55000170701874
20
161.94996071523576
10
187.55000170701874
20
161.94996071523576
10
187.55000170701874
20
192.54996071523578
10
192.55000170701874
20
192.54996071523578
10
192.55000170701874
20
222.54996071523578
10
187.55000170701874
20
222.54996071523578
10
187.55000170701874
20
252.54996071523578
10
192.55000170701874
20
252.54996071523578
10
192.55000170701874
20
282.54996071523578
10
187.55000170701874
20
282.54996071523578
0
LWPOLYLINE
5
109
100
AcDbEntity
8
0
100
AcDbPolyline
90
4
70
1
43
0.0
10
177.10025266492352
20
26.20018567204454
10
171.80025266492351
20
26.20018567204454
10
171.80025266492351
20
51.500185672045404
10
177.10025266492352
20
51.500185672045404
0
LWPOLYLINE
5
110
100
AcDbEntity
8
0
100
AcDbPolyline
90
4
70
1
43
0.0
10
171.80025266492351
20
141.20018567204511
10
171.80025266492351
20
146.50018567204484
10
177.10025266492352
20
146.50018567204484
10
177.10025266492352
20
141.20018567204511
0
LWPOLYLINE
5
111
100
AcDbEntity
8
0
100
AcDbPolyline
90
4
70
1
43
0.0
10
56.800252664923498
20
16.200185672045109
10
56.800252664923498
20
21.500185672044836
10
82.100252664923488
20
21.500185672044832
10
82.100252664923488
20
16.200185672045109
0
LWPOLYLINE
5
112
100
AcDbEntity
8
0
100
AcDbPolyline
90
4
70
1
43
0.0
10
46.800252664923505
20
136.50018567204484
10
52.100252664923502
20
136.50018567204484
10
52.100252664923502
20
111.20018567204511
10
46.800252664923505
20
111.20018567204511
0
LWPOLYLINE
5
113
100
AcDbEntity
8
0
100
AcDbPolyline
90
26
70
1
43
0.0
10
197.54975280761721
20
11.350088112889409
10
217.54975280761721
20
11.350088112889409
10
217.54975280761721
20
40.750088112889387
10
212.54975280761721
20
40.750088112889387
10
212.54975280761721
20
70.750088112889387
10
217.54975280761721
20
70.750088112889387
10
217.54975280761721
20
100.75008811288939
10
212.54975280761721
20
100.75008811288939
10
212.54975280761721
20
130.75008811288939
10
217.54975280761721
20
130.75008811288939
10
217.54975280761721
20
161.35008811288941
10
212.54975280761721
20
161.35008811288941
10
212.54975280761721
20
191.95008811288943
10
217.54975280761721
20
191.95008811288943
10
217.54975280761721
20
221.95008811288943
10
212.54975280761721
20
221.95008811288943
10
212.54975280761721
20
251.95008811288943
10
217.54975280761721
20
251.95008811288943
10
217.54975280761721
20
281.95008811288943
10
212.54975280761721
20
281.95008811288943
10
212.54975280761721
20
311.95008811288943
10
207.54975280761721
20
311.95008811288943
10
207.54975280761721
20
316.95008811288943
10
202.54975280761721
20
316.95008811288943
10
202.54975280761721
20
311.95008811288943
10
197.54975280761721
20
311.95008811288943
0
LWPOLYLINE
5
114
100
AcDbEntity
8
0
100
AcDbPolyline
90
8
70
1
43
0.0
10
198.05255741483407
20
328.95034179687542
10
198.05255741483407
20
333.95034179687542
10
189.0525574148341
20
333.95034179687542
10
189.0525574148341
20
321.95034179687536
10
214.05255741483404
20
321.95034179687536
10
214.0525574148341
20
333.95034179687542
10
205.0525574148341
20
333.95034179687542
10
205.05255741483407
20
328.95034179687542
0
LWPOLYLINE
5
115
100
AcDbEntity
8
0
100
AcDbPolyline
90
26
70
1
43
0.0
10
184.05255566602722
20
336.95001908672145
10
22.85255566602725
20
336.95001908672157
10
22.852555666027232
20
331.95001908672157
10
27.852555666027232
20
331.95001908672157
10
27.852555666027232
20
326.95001908672157
10
22.852555666027232
20
326.95001908672157
10
22.852555666027232
20
321.95001908672157
10
27.852555666027232
20
321.95001908672157
10
27.85255566602725
20
316.95001908672157
10
52.85255566602725
20
316.95001908672157
10
52.85255566602725
20
321.95001908672157
10
77.852555666027257
20
321.95001908672157
10
77.852555666027257
20
316.95001908672157
10
103.45255566602724
20
316.95001908672157
10
103.45255566602724
20
321.95001908672157
10
129.05255566602727
20
321.95001908672157
10
129.05255566602727
20
316.95001908672157
10
154.05255566602727
20
316.95001908672151
10
154.05255566602727
20
321.95001908672157
10
179.05255566602722
20
321.95001908672157
10
179.05255566602722
20
316.95001908672145
10
184.05255566602722
20
316.95001908672151
10
184.05255566602722
20
326.95001908672157
10
179.05255566602722
20
326.95001908672145
10
179.05255566602722
20
331.95001908672145
10
184.05255566602722
20
331.95001908672145
0
LWPOLYLINE
5
116
100
AcDbEntity
8
0
100
AcDbPolyline
90
26
70
1
43
0.0
10
26.350000762939292
20
311.94996071523576
10
6.3500007629392918
20
311.94996071523576
10
6.3500007629392847
20
282.54996071523578
10
11.350000762939285
20
282.54996071523578
10
11.350000762939281
20
252.54996071523578
10
6.350000762939283
20
252.54996071523578
10
6.3500007629392785
20
222.54996071523578
10
11.350000762939278
20
222.54996071523578
10
11.350000762939274
20
192.54996071523578
10
6.3500007629392741
20
192.54996071523578
10
6.3500007629392705
20
161.94996071523576
10
11.350000762939271
20
161.94996071523576
10
11.350000762939267
20
131.34996071523574
10
6.350000762939267
20
131.34996071523574
10
6.3500007629392634
20
101.34996071523574
10
11.350000762939263
20
101.34996071523574
10
11.350000762939258
20
71.349960715235738
10
6.3500007629392607
20
71.349960715235738
10
6.3500007629392563
20
41.349960715235738
10
11.350000762939256
20
41.349960715235738
10
11.350000762939253
20
11.349960715235738
10
16.350000762939253
20
11.349960715235738
10
16.350000762939253
20
6.3499607152357385
10
21.350000762939253
20
6.3499607152357376
10
21.350000762939253
20
11.349960715235738
10
26.350000762939253
20
11.349960715235738
0
ENDSEC
0
SECTION
2
OBJECTS
0
DICTIONARY
5
C
100
AcDbDictionary
3
ACAD_GROUP
350
D
3
ACAD_MLINESTYLE
350
17
0
DICTIONARY
5
D
100
AcDbDictionary
0
DICTIONARY
5
1A
330
C
100
AcDbDictionary
0
DICTIONARY
5
17
100
AcDbDictionary
0
ENDSEC
0
EOF
