0
SECTION
2
HEADER
9
$INSUNITS
70
4
9
$ACADVER
1
AC1014
9
$HANDSEED
5
FFFF
0
ENDSEC
0
SECTION
2
TABLES
0
TABLE
2
VPORT
5
8
100
AcDbSymbolTable
0
ENDTAB
0
TABLE
2
LTYPE
5
5
100
AcDbSymbolTable
0
LTYPE
5
14
100
AcDbSymbolTableRecord
100
AcDbLinetypeTableRecord
2
BYBLOCK
70
0
0
LTYPE
5
15
100
AcDbSymbolTableRecord
100
AcDbLinetypeTableRecord
2
BYLAYER
70
0
0
ENDTAB
0
TABLE
2
LAYER
5
2
100
AcDbSymbolTable
70
2
0
LAYER
5
50
100
AcDbSymbolTableRecord
100
AcDbLayerTableRecord
2
0
70
0
6
CONTINUOUS
0
ENDTAB
0
TABLE
2
STYLE
5
3
100
AcDbSymbolTable
70
1
0
STYLE
5
11
100
AcDbSymbolTableRecord
100
AcDbTextStyleTableRecord
2
STANDARD
70
0
0
ENDTAB
0
TABLE
2
VIEW
5
6
100
AcDbSymbolTable
70
0
0
ENDTAB
0
TABLE
2
UCS
5
7
100
AcDbSymbolTable
70
0
0
ENDTAB
0
TABLE
2
APPID
5
9
100
AcDbSymbolTable
70
2
0
APPID
5
12
100
AcDbSymbolTableRecord
100
AcDbRegAppTableRecord
2
ACAD
70
0
0
ENDTAB
0
TABLE
2
DIMSTYLE
5
A
100
AcDbSymbolTable
70
1
0
ENDTAB
0
TABLE
2
BLOCK_RECORD
5
1
100
AcDbSymbolTable
70
1
0
BLOCK_RECORD
5
1F
100
AcDbSymbolTableRecord
100
AcDbBlockTableRecord
2
*MODEL_SPACE
0
BLOCK_RECORD
5
1B
100
AcDbSymbolTableRecord
100
AcDbBlockTableRecord
2
*PAPER_SPACE
0
ENDTAB
0
ENDSEC
0
SECTION
2
BLOCKS
0
BLOCK
5
20
100
AcDbEntity
100
AcDbBlockBegin
2
*MODEL_SPACE
0
ENDBLK
5
21
100
AcDbEntity
100
AcDbBlockEnd
0
BLOCK
5
1C
100
AcDbEntity
100
AcDbBlockBegin
2
*PAPER_SPACE
0
ENDBLK
5
1D
100
AcDbEntity
100
AcDbBlockEnd
0
ENDSEC
0
SECTION
2
ENTITIES
0
LWPOLYLINE
5
100
100
AcDbEntity
8
0
100
AcDbPolyline
90
12
70
1
43
0.0
10
31.350107199610591
20
211.34998608594987
10
51.350107199610591
20
211.34998608594987
10
51.350107199610591
20
121.34998608594989
10
31.350107199610591
20
121.34998608594989
10
31.350107199610591
20
111.34998608594989
10
16.350107199610591
20
111.34998608594989
10
16.350107199610591
20
121.34998608594989
10
6.3501071996105907
20
121.34998608594989
10
6.3501071996105996
20
211.34998608594987
10
16.350175551672521
20
211.34998608594987
10
16.350175551672521
20
221.34998608594992
10
31.350107199610591
20
221.34998608594992
0
CIRCLE
5
101
100
AcDbEntity
8
0
100
AcDbCircle
10
51.437178449331213
20
45.008348821873589
30
0
40
1.6000000000000003
210
-0
220
0
230
1
0
CIRCLE
5
102
100
AcDbEntity
8
0
100
AcDbCircle
10
19.437178449331327
20
45.008348821873589
30
-2.2204460492503131e-15
40
1.6000000000000003
210
-0
220
0
230
1
0
CIRCLE
5
103
100
AcDbEntity
8
0
100
AcDbCircle
10
51.437178449331213
20
77.008348821873597
30
0
40
1.6000000000000003
210
-0
220
0
230
1
0
CIRCLE
5
104
100
AcDbEntity
8
0
100
AcDbCircle
10
19.437178449331327
20
77.008348821873597
30
0
40
1.6000000000000003
210
-0
220
0
230
1
0
CIRCLE
5
105
100
AcDbEntity
8
0
100
AcDbCircle
10
35.349966042576852
20
61.349995603503238
30
0
40
13
210
-0
220
0
230
1
0
LWPOLYLINE
5
106
100
AcDbEntity
8
0
100
AcDbPolyline
90
12
70
1
43
0.0
10
36.349966042576796
20
16.349995603503277
10
11.349966042576796
20
16.349995603503285
10
11.349966042576796
20
106.34999560350326
10
36.349966042576796
20
106.34999560350326
10
36.349966042576796
20
116.34999560350326
10
46.349966042576796
20
116.34999560350326
10
46.349966042576796
20
106.34999560350326
10
56.349966042576796
20
106.34999560350326
10
56.349966042576789
20
16.349995603503285
10
46.349897690514865
20
16.349995603503274
10
46.349897690514865
20
6.3499956035032561
10
36.349966042576796
20
6.3499956035032596
0
CIRCLE
5
107
100
AcDbEntity
8
0
100
AcDbCircle
10
49.350122869581625
20
257.75392995934942
30
0
40
1.4999999999999147
210
0
220
0
230
1
0
CIRCLE
5
108
100
AcDbEntity
8
0
100
AcDbCircle
10
49.350122869581625
20
238.95380681895361
30
0
40
1.4999999999999147
210
0
220
0
230
1
0
CIRCLE
5
109
100
AcDbEntity
8
0
100
AcDbCircle
10
49.350122869581625
20
323.75392995934942
30
0
40
1.4999999999999147
210
0
220
0
230
1
0
CIRCLE
5
110
100
AcDbEntity
8
0
100
AcDbCircle
10
49.350122869581625
20
304.95380681895364
30
0
40
1.4999999999999147
210
0
220
0
230
1
0
CIRCLE
5
111
100
AcDbEntity
8
0
100
AcDbCircle
10
40.400122750372276
20
300.84673422652514
30
0
40
1.7836426088897825
210
0
220
0
230
1
0
CIRCLE
5
112
100
AcDbEntity
8
0
100
AcDbCircle
10
40.400122750372276
20
261.84373402535948
30
0
40
1.7836426088897825
210
0
220
0
230
1
0
LWPOLYLINE
5
113
100
AcDbEntity
8
0
100
AcDbPolyline
90
16
70
1
43
0.0
10
22.350116745204502
20
326.34998608594992
10
22.350116745204502
20
336.34998608595004
10
31.350116745204559
20
336.34998608595004
10
31.350116745204559
20
326.34998608595004
10
43.850116745204559
20
326.34998608595015
10
43.850116745204559
20
336.34998608595004
10
56.350116745204559
20
336.34998608595004
10
56.350116745204559
20
226.34998608595004
10
43.850116745204559
20
226.34998608595004
10
43.850116745204559
20
236.34998608595009
10
31.350116745204559
20
236.34998608595004
10
31.350116745204559
20
226.34998608595004
10
22.350116745204502
20
226.34998608594992
10
22.350116745204502
20
236.34998608595004
10
6.3501167452045593
20
236.34998608595009
10
6.3501167452045593
20
326.34998608595015
0
ENDSEC
0
SECTION
2
OBJECTS
0
DICTIONARY
5
C
100
AcDbDictionary
3
ACAD_GROUP
350
D
3
ACAD_MLINESTYLE
350
17
0
DICTIONARY
5
D
100
AcDbDictionary
0
DICTIONARY
5
1A
330
C
100
AcDbDictionary
0
DICTIONARY
5
17
100
AcDbDictionary
0
ENDSEC
0
EOF
