0
SECTION
2
HEADER
9
$INSUNITS
70
4
9
$ACADVER
1
AC1014
9
$HANDSEED
5
FFFF
0
ENDSEC
0
SECTION
2
TABLES
0
TABLE
2
VPORT
5
8
100
AcDbSymbolTable
0
ENDTAB
0
TABLE
2
LTYPE
5
5
100
AcDbSymbolTable
0
LTYPE
5
14
100
AcDbSymbolTableRecord
100
AcDbLinetypeTableRecord
2
BYBLOCK
70
0
0
LTYPE
5
15
100
AcDbSymbolTableRecord
100
AcDbLinetypeTableRecord
2
BYLAYER
70
0
0
ENDTAB
0
TABLE
2
LAYER
5
2
100
AcDbSymbolTable
70
2
0
LAYER
5
50
100
AcDbSymbolTableRecord
100
AcDbLayerTableRecord
2
0
70
0
6
CONTINUOUS
0
ENDTAB
0
TABLE
2
STYLE
5
3
100
AcDbSymbolTable
70
1
0
STYLE
5
11
100
AcDbSymbolTableRecord
100
AcDbTextStyleTableRecord
2
STANDARD
70
0
0
ENDTAB
0
TABLE
2
VIEW
5
6
100
AcDbSymbolTable
70
0
0
ENDTAB
0
TABLE
2
UCS
5
7
100
AcDbSymbolTable
70
0
0
ENDTAB
0
TABLE
2
APPID
5
9
100
AcDbSymbolTable
70
2
0
APPID
5
12
100
AcDbSymbolTableRecord
100
AcDbRegAppTableRecord
2
ACAD
70
0
0
ENDTAB
0
TABLE
2
DIMSTYLE
5
A
100
AcDbSymbolTable
70
1
0
ENDTAB
0
TABLE
2
BLOCK_RECORD
5
1
100
AcDbSymbolTable
70
1
0
BLOCK_RECORD
5
1F
100
AcDbSymbolTableRecord
100
AcDbBlockTableRecord
2
*MODEL_SPACE
0
BLOCK_RECORD
5
1B
100
AcDbSymbolTableRecord
100
AcDbBlockTableRecord
2
*PAPER_SPACE
0
ENDTAB
0
ENDSEC
0
SECTION
2
BLOCKS
0
BLOCK
5
20
100
AcDbEntity
100
AcDbBlockBegin
2
*MODEL_SPACE
0
ENDBLK
5
21
100
AcDbEntity
100
AcDbBlockEnd
0
BLOCK
5
1C
100
AcDbEntity
100
AcDbBlockBegin
2
*PAPER_SPACE
0
ENDBLK
5
1D
100
AcDbEntity
100
AcDbBlockEnd
0
ENDSEC
0
SECTION
2
ENTITIES
0
LWPOLYLINE
5
100
100
AcDbEntity
8
0
100
AcDbPolyline
90
10
70
1
43
0.0
10
39.349997204590125
20
359.35009765624983
10
39.349997204590153
20
479.35009765624983
10
31.849997204590149
20
479.35009765624983
10
31.849997204590153
20
489.35009765624983
10
24.349997204590149
20
489.35009765624983
10
24.349997204590153
20
479.35009765624983
10
16.849997204590146
20
479.35009765624983
10
16.849997204590149
20
489.35009765624983
10
6.3499972045901565
20
489.35009765624983
10
6.3499972045901281
20
359.35009765624983
0
LWPOLYLINE
5
101
100
AcDbEntity
8
0
100
AcDbPolyline
90
10
70
1
43
0.0
10
39.349997204590125
20
224.35009765624983
10
39.349997204590153
20
354.35009765624983
10
28.849997204590139
20
354.35009765624983
10
28.849997204590139
20
344.35009765624983
10
21.349997204590139
20
344.35009765624983
10
21.349997204590139
20
354.35009765624983
10
13.849997204590139
20
354.35009765624983
10
13.849997204590137
20
344.35009765624983
10
6.3499972045901387
20
344.35009765624983
10
6.3499972045901121
20
224.35009765624983
0
CIRCLE
5
102
100
AcDbEntity
8
0
100
AcDbCircle
10
15.165834690630788
20
191.83825865644334
30
0
40
2.2000000000000006
210
-1.836676017326774e-48
220
4.0782400064260342e-64
230
1
0
CIRCLE
5
103
100
AcDbEntity
8
0
100
AcDbCircle
10
27.565834690630595
20
191.83825865644332
30
0
40
2.2000000000000006
210
-1.836676017326774e-48
220
4.0782400064260342e-64
230
1
0
CIRCLE
5
104
100
AcDbEntity
8
0
100
AcDbCircle
10
14.865854836999688
20
161.0382586564433
30
-8.8817841970012523e-15
40
2.2000000000000006
210
-1.836676017326774e-48
220
4.0782400064260342e-64
230
1
0
CIRCLE
5
105
100
AcDbEntity
8
0
100
AcDbCircle
10
27.265854836999495
20
161.0382586564433
30
0
40
2.2000000000000006
210
-1.836676017326774e-48
220
4.0782400064260342e-64
230
1
0
CIRCLE
5
106
100
AcDbEntity
8
0
100
AcDbCircle
10
19.350595480860591
20
176.35010815626228
30
0
40
1.8500000000000003
210
-3.3461697400638053e-48
220
7.4299893794456235e-64
230
1
0
CIRCLE
5
107
100
AcDbEntity
8
0
100
AcDbCircle
10
27.350595480860136
20
184.35010815626248
30
0
40
1.8500000000002874
210
-3.3461697400638053e-48
220
7.4299893794456235e-64
230
1
0
CIRCLE
5
108
100
AcDbEntity
8
0
100
AcDbCircle
10
27.350595480860704
20
168.35010815626248
30
0
40
1.8500000000000028
210
-3.3461697400638059e-48
220
7.4299893794456249e-64
230
1
0
CIRCLE
5
109
100
AcDbEntity
8
0
100
AcDbCircle
10
35.350595480860534
20
176.35010815626273
30
0
40
1.8500000000002874
210
-3.3461697400638053e-48
220
7.4299893794456235e-64
230
1
0
CIRCLE
5
110
100
AcDbEntity
8
0
100
AcDbCircle
10
21.350595480860761
20
209.35010815626248
30
0
40
5.5
210
-3.4306208749694662e-32
220
-2.4651903288156616e-32
230
1
0
CIRCLE
5
111
100
AcDbEntity
8
0
100
AcDbCircle
10
21.350595480860761
20
143.35010815626248
30
-8.8817841970012523e-15
40
5.5
210
-3.4306208749694662e-32
220
-2.4651903288156616e-32
230
1
0
LWPOLYLINE
5
112
100
AcDbEntity
8
0
100
AcDbPolyline
90
18
70
1
43
0.0
10
36.850595480860875
20
219.35015286451261
10
36.850595480860875
20
219.35010815626254
10
6.3500593580204168
20
219.35010815626248
10
6.3500593580203981
20
133.35010815626251
10
36.850595480860875
20
133.35010815626248
10
36.850595480860875
20
133.35015742187522
10
64.115844726562727
20
133.35015742187525
10
64.115844726562727
20
148.35015742187525
10
54.115844726562727
20
148.35015742187525
10
54.115844726562727
20
163.35015742187522
10
64.115844726562727
20
163.35015742187522
10
64.115844726562727
20
176.35015742187522
10
54.115844726562727
20
176.35015742187522
10
54.115844726562727
20
189.35015742187522
10
64.115844726562727
20
189.35015742187522
10
64.115844726562727
20
204.35015742187522
10
54.115844726562727
20
204.35015742187522
10
54.115844726562727
20
219.35015286451261
0
CIRCLE
5
113
100
AcDbEntity
8
0
100
AcDbCircle
10
27.350595480860704
20
176.35010815626248
30
0
40
5
210
-9.6543054615380456e-33
220
9.6137501388644956e-49
230
1
0
CIRCLE
5
114
100
AcDbEntity
8
0
100
AcDbCircle
10
74.443695714473165
20
90.470195789333602
30
0
40
1.5500000000000003
210
-1.9202082338874331e-32
220
-5.0234287321185566e-47
230
1
0
CIRCLE
5
115
100
AcDbEntity
8
0
100
AcDbCircle
10
24.443695714473161
20
44.170195789333619
30
0
40
1.5500000000000003
210
-1.9202082338874418e-32
220
-5.0234287321185799e-47
230
1
0
CIRCLE
5
116
100
AcDbEntity
8
0
100
AcDbCircle
10
74.443695714473165
20
44.170195789333597
30
0
40
1.5500000000000003
210
-1.9202082338874331e-32
220
-5.0234287321185566e-47
230
1
0
CIRCLE
5
117
100
AcDbEntity
8
0
100
AcDbCircle
10
24.453695714473156
20
90.45019578933362
30
0
40
1.5500000000000003
210
-1.9202082338874331e-32
220
-5.0234287321185566e-47
230
1
0
LWPOLYLINE
5
118
100
AcDbEntity
8
0
100
AcDbPolyline
90
6
70
1
43
0.0
10
13.453695520758071
20
100.35019531250015
10
39.349997204589314
20
100.35019531250015
10
39.3499972045893
20
31.350195312500155
10
35.549997204589289
20
31.350195312500162
10
35.549997204589296
20
93.450195834040954
10
13.453695520758053
20
93.450195834040954
0
LWPOLYLINE
5
119
100
AcDbEntity
8
0
100
AcDbPolyline
90
4
70
1
43
0.0
10
59.349997204589293
20
31.350195312500158
10
59.3499972045893
20
100.35019531250015
10
63.04999720458931
20
100.35019531250015
10
63.049997204589296
20
31.350195312500155
0
LWPOLYLINE
5
120
100
AcDbEntity
8
0
100
AcDbPolyline
90
26
70
1
43
0.0
10
6.3499972045893038
20
128.35019531250015
10
6.349997204589279
20
16.350195312500162
10
21.349997204589268
20
16.350195312500166
10
21.349997204589268
20
6.3501953125001709
10
36.349997204589272
20
6.3501953125001673
10
36.349997204589272
20
16.350195312500162
10
49.349997204589265
20
16.350195312500158
10
49.349997204589272
20
6.350195312500162
10
62.349997204589272
20
6.3501953125001585
10
62.349997204589272
20
16.350195312500162
10
77.349997204589272
20
16.350195312500158
10
77.349997204589272
20
6.3501953125001531
10
92.349997204589286
20
6.3501953125001496
10
92.3499972045893
20
128.35019531250015
10
84.8499972045893
20
128.35019531250015
10
84.8499972045893
20
118.35019531250015
10
77.3499972045893
20
118.35019531250015
10
77.3499972045893
20
128.35019531250015
10
69.849997204589314
20
128.35019531250015
10
69.849997204589314
20
118.35019531250015
10
28.849997204589293
20
118.35019531250018
10
28.849997204589304
20
128.35019531250015
10
21.349997204589304
20
128.35019531250015
10
21.349997204589304
20
118.35019531250015
10
13.849997204589304
20
118.35019531250015
10
13.849997204589306
20
128.35019531250015
0
ENDSEC
0
SECTION
2
OBJECTS
0
DICTIONARY
5
C
100
AcDbDictionary
3
ACAD_GROUP
350
D
3
ACAD_MLINESTYLE
350
17
0
DICTIONARY
5
D
100
AcDbDictionary
0
DICTIONARY
5
1A
330
C
100
AcDbDictionary
0
DICTIONARY
5
17
100
AcDbDictionary
0
ENDSEC
0
EOF
