0
SECTION
2
HEADER
9
$INSUNITS
70
4
9
$ACADVER
1
AC1014
9
$HANDSEED
5
FFFF
0
ENDSEC
0
SECTION
2
TABLES
0
TABLE
2
VPORT
5
8
100
AcDbSymbolTable
0
ENDTAB
0
TABLE
2
LTYPE
5
5
100
AcDbSymbolTable
0
LTYPE
5
14
100
AcDbSymbolTableRecord
100
AcDbLinetypeTableRecord
2
BYBLOCK
70
0
0
LTYPE
5
15
100
AcDbSymbolTableRecord
100
AcDbLinetypeTableRecord
2
BYLAYER
70
0
0
ENDTAB
0
TABLE
2
LAYER
5
2
100
AcDbSymbolTable
70
2
0
LAYER
5
50
100
AcDbSymbolTableRecord
100
AcDbLayerTableRecord
2
0
70
0
6
CONTINUOUS
0
ENDTAB
0
TABLE
2
STYLE
5
3
100
AcDbSymbolTable
70
1
0
STYLE
5
11
100
AcDbSymbolTableRecord
100
AcDbTextStyleTableRecord
2
STANDARD
70
0
0
ENDTAB
0
TABLE
2
VIEW
5
6
100
AcDbSymbolTable
70
0
0
ENDTAB
0
TABLE
2
UCS
5
7
100
AcDbSymbolTable
70
0
0
ENDTAB
0
TABLE
2
APPID
5
9
100
AcDbSymbolTable
70
2
0
APPID
5
12
100
AcDbSymbolTableRecord
100
AcDbRegAppTableRecord
2
ACAD
70
0
0
ENDTAB
0
TABLE
2
DIMSTYLE
5
A
100
AcDbSymbolTable
70
1
0
ENDTAB
0
TABLE
2
BLOCK_RECORD
5
1
100
AcDbSymbolTable
70
1
0
BLOCK_RECORD
5
1F
100
AcDbSymbolTableRecord
100
AcDbBlockTableRecord
2
*MODEL_SPACE
0
BLOCK_RECORD
5
1B
100
AcDbSymbolTableRecord
100
AcDbBlockTableRecord
2
*PAPER_SPACE
0
ENDTAB
0
ENDSEC
0
SECTION
2
BLOCKS
0
BLOCK
5
20
100
AcDbEntity
100
AcDbBlockBegin
2
*MODEL_SPACE
0
ENDBLK
5
21
100
AcDbEntity
100
AcDbBlockEnd
0
BLOCK
5
1C
100
AcDbEntity
100
AcDbBlockBegin
2
*PAPER_SPACE
0
ENDBLK
5
1D
100
AcDbEntity
100
AcDbBlockEnd
0
ENDSEC
0
SECTION
2
ENTITIES
0
LWPOLYLINE
5
100
100
AcDbEntity
8
0
100
AcDbPolyline
90
40
70
1
43
0.0
10
251.34963896173332
20
40.350006103516023
10
251.34963896173332
20
6.3500061035161792
10
281.34963896173332
20
6.3500061035161792
10
281.34963896173332
20
40.350006103516023
10
271.34963896173332
20
40.350006103516023
10
271.34963896173332
20
90.350006103516023
10
281.34963896173332
20
90.350006103516023
10
281.34963896173338
20
140.35000610351602
10
271.34963896173332
20
140.35000610351602
10
271.34963896173338
20
190.35000610351602
10
281.34963896173332
20
190.35000610351602
10
281.34963896173338
20
240.35000610351602
10
271.34963896173338
20
240.35000610351602
10
271.34963896173338
20
290.35000610351602
10
281.34963896173338
20
290.35000610351602
10
281.34963896173338
20
340.35000610351602
10
271.34963896173338
20
340.35000610351602
10
271.34963896173338
20
390.35000610351602
10
281.34963896173338
20
390.35000610351602
10
281.34963896173338
20
445.35000610351602
10
271.34963896173338
20
445.35000610351602
10
271.34963896173338
20
425.35000610351602
10
261.34963896173338
20
425.35000610351602
10
261.34963896173338
20
445.35000610351602
10
251.34963896173338
20
445.35000610351602
10
251.34963896173335
20
390.35000610351602
10
261.34963896173338
20
390.35000610351602
10
261.34963896173338
20
340.35000610351602
10
251.34963896173335
20
340.35000610351602
10
251.34963896173332
20
290.35000610351602
10
261.34963896173338
20
290.35000610351602
10
261.34963896173338
20
240.35000610351602
10
251.34963896173335
20
240.35000610351602
10
251.34963896173332
20
190.35000610351602
10
261.34963896173338
20
190.35000610351602
10
261.34963896173332
20
140.35000610351602
10
251.34963896173335
20
140.35000610351602
10
251.34963896173332
20
90.350006103516023
10
261.34963896173332
20
90.350006103516023
10
261.34963896173332
20
40.350006103516023
0
LWPOLYLINE
5
101
100
AcDbEntity
8
0
100
AcDbPolyline
90
40
70
1
43
0.0
10
246.34963896173338
20
390.35000610351602
10
246.34963896173343
20
445.35000610351602
10
236.34963896173338
20
445.35000610351602
10
236.34963896173335
20
425.35000610351602
10
226.34963896173338
20
425.35000610351602
10
226.34963896173343
20
445.35000610351602
10
216.34963896173338
20
445.35000610351602
10
216.34963896173335
20
390.35000610351602
10
226.34963896173338
20
390.35000610351602
10
226.34963896173335
20
340.35000610351602
10
216.34963896173335
20
340.35000610351602
10
216.34963896173335
20
290.35000610351602
10
226.34963896173335
20
290.35000610351602
10
226.34963896173335
20
240.35000610351605
10
216.34963896173335
20
240.35000610351605
10
216.34963896173335
20
190.35000610351605
10
226.34963896173332
20
190.35000610351602
10
226.34963896173332
20
140.35000610351605
10
216.34963896173332
20
140.35000610351605
10
216.34963896173332
20
90.350006103516051
10
226.34963896173332
20
90.350006103516023
10
226.34963896173332
20
40.350006103516023
10
216.34963896173332
20
40.350006103516023
10
216.34963896173332
20
6.3500061035161792
10
246.34963896173332
20
6.3500061035161792
10
246.34963896173332
20
40.350006103516023
10
236.34963896173332
20
40.350006103516023
10
236.34963896173332
20
90.350006103516023
10
246.34963896173332
20
90.350006103516023
10
246.34963896173332
20
140.35000610351602
10
236.34963896173332
20
140.35000610351602
10
236.34963896173332
20
190.35000610351602
10
246.34963896173332
20
190.35000610351602
10
246.34963896173332
20
240.35000610351602
10
236.34963896173335
20
240.35000610351602
10
236.34963896173335
20
290.35000610351602
10
246.34963896173335
20
290.35000610351602
10
246.34963896173335
20
340.35000610351602
10
236.34963896173335
20
340.35000610351602
10
236.34963896173338
20
390.35000610351602
0
LWPOLYLINE
5
102
100
AcDbEntity
8
0
100
AcDbPolyline
90
40
70
1
43
0.0
10
211.34986305898565
20
456.34999847412143
10
211.34986305898565
20
406.34999847412143
10
201.34986305898565
20
406.34999847412143
10
201.34986305898565
20
356.34999847412138
10
211.34986305898565
20
356.34999847412138
10
211.34986305898565
20
306.34999847412138
10
201.34986305898565
20
306.34999847412143
10
201.34986305898565
20
256.34999847412143
10
211.34986305898565
20
256.34999847412143
10
211.34986305898565
20
206.34999847412143
10
201.34986305898565
20
206.34999847412143
10
201.34986305898565
20
156.34999847412143
10
211.34986305898565
20
156.34999847412143
10
211.34986305898565
20
106.34999847412143
10
201.34986305898565
20
106.34999847412143
10
201.34986305898565
20
51.349998474121428
10
211.34986305898565
20
51.349998474121428
10
211.34986305898565
20
6.3499984741214277
10
191.34986305898565
20
6.3499984741214277
10
191.34986305898565
20
56.349998474121428
10
181.34986305898565
20
56.349998474121428
10
181.34986305898565
20
106.34999847412143
10
191.34986305898565
20
106.34999847412143
10
191.34986305898565
20
156.34999847412143
10
181.34986305898565
20
156.34999847412143
10
181.34986305898565
20
206.34999847412143
10
191.34986305898565
20
206.34999847412143
10
191.34986305898565
20
256.34999847412143
10
181.34986305898565
20
256.34999847412143
10
181.34986305898565
20
306.34999847412143
10
191.34986305898565
20
306.34999847412138
10
191.34986305898565
20
356.34999847412138
10
181.34986305898565
20
356.34999847412138
10
181.34986305898565
20
406.34999847412138
10
191.34986305898565
20
406.34999847412143
10
191.34986305898565
20
456.34999847412143
10
181.34986305898565
20
456.34999847412143
10
181.34986305898565
20
490.34999847412132
10
201.34986305898565
20
490.34999847412132
10
201.34986305898565
20
456.34999847412143
0
LWPOLYLINE
5
103
100
AcDbEntity
8
0
100
AcDbPolyline
90
52
70
1
43
0.0
10
169.34984397114746
20
18.850006103515327
10
169.34984397114746
20
6.3500061035153266
10
156.34984397226432
20
6.3500061035156108
10
156.34984397226432
20
40.350006103515383
10
146.34984397226432
20
40.350006103515383
10
146.34984397226435
20
90.350006103515383
10
156.34984397226432
20
90.350006103515383
10
156.34984397226435
20
140.3500061035154
10
146.34984397226432
20
140.3500061035154
10
146.34984397226435
20
190.3500061035154
10
156.34984397226432
20
190.3500061035154
10
156.34984397226435
20
240.3500061035154
10
146.34984397226432
20
240.3500061035154
10
146.34984397226435
20
290.3500061035154
10
156.34984397226432
20
290.3500061035154
10
156.34984397226435
20
340.35000610351528
10
146.34984397226432
20
340.35000610351528
10
146.34984397226435
20
390.3500061035154
10
156.34984397226432
20
390.3500061035154
10
156.34984397226435
20
433.05039808351535
10
166.34977562020239
20
433.05039808512652
10
166.34977562020239
20
438.05039808351535
10
156.34984397226432
20
438.05039808351535
10
156.34984397226432
20
445.3500061035154
10
146.34984397226432
20
445.3500061035154
10
146.34984397226435
20
490.3500061035154
10
166.34984397226432
20
490.3500061035154
10
166.34984397226432
20
446.3500061035154
10
176.34984397226432
20
446.3500061035154
10
176.34984397226432
20
390.3500061035154
10
166.34984397226432
20
390.3500061035154
10
166.34984397226432
20
340.35000610351528
10
176.34984397226432
20
340.35000610351528
10
176.34984397226432
20
290.35000610351528
10
166.34984397226432
20
290.35000610351534
10
166.34984397226432
20
240.3500061035154
10
176.34984397226432
20
240.3500061035154
10
176.34984397226432
20
190.3500061035154
10
166.34984397226432
20
190.3500061035154
10
166.34984397226432
20
140.3500061035154
10
176.34984397226432
20
140.3500061035154
10
176.34984397226432
20
90.350006103515383
10
166.34984397226432
20
90.350006103515383
10
166.34984397226432
20
40.350006103515383
10
169.34984397114746
20
40.350006103515383
10
169.34984397114775
20
31.350006103515327
10
174.34984397114746
20
31.350006103515327
10
174.34984397114746
20
40.350006103515383
10
176.34984397226432
20
40.350006103515383
10
176.34984397226432
20
6.3500061035155397
10
174.34984397114746
20
6.3500061035153266
10
174.34984397114746
20
18.850006103515327
0
LWPOLYLINE
5
104
100
AcDbEntity
8
0
100
AcDbPolyline
90
4
70
1
43
0.0
10
151.34984397226432
20
477.55000610351539
10
166.34977562020239
20
477.55000610351539
10
166.34977562020239
20
482.55000610351539
10
151.34984397226432
20
482.55000610351539
0
LWPOLYLINE
5
105
100
AcDbEntity
8
0
100
AcDbPolyline
90
56
70
1
43
0.0
10
118.34986306010251
20
477.84999847412155
10
118.34986306010251
20
490.34999847412155
10
131.34986305898565
20
490.34999847412132
10
131.34986305898565
20
456.34999847412143
10
141.34986305898565
20
456.34999847412143
10
141.34986305898562
20
406.34999847412143
10
131.34986305898565
20
406.34999847412143
10
131.34986305898562
20
356.34999847412143
10
141.34986305898565
20
356.34999847412138
10
141.34986305898562
20
306.34999847412138
10
131.34986305898565
20
306.34999847412143
10
131.34986305898562
20
256.34999847412143
10
141.34986305898565
20
256.34999847412143
10
141.34986305898562
20
206.34999847412143
10
131.34986305898565
20
206.34999847412143
10
131.34986305898562
20
156.34999847412143
10
141.34986305898565
20
156.34999847412143
10
141.34986305898562
20
106.34999847412143
10
131.34986305898565
20
106.34999847412143
10
131.34986305898562
20
63.64960649251028
10
121.34986305898565
20
63.649606492510287
10
121.34986305898565
20
58.649606492510316
10
131.34986305898565
20
58.649606494121436
10
131.34986305898565
20
51.349998474121428
10
141.34986305898565
20
51.349998474121428
10
141.34986305898562
20
6.3499984741214277
10
121.34986305898565
20
6.3499984741214233
10
121.34986305898565
20
14.149606492510287
10
136.34986305898565
20
14.149606492510284
10
136.34986305898565
20
19.149606492510305
10
121.34986305898565
20
19.149606492510291
10
121.34986305898565
20
50.349998474121413
10
111.34986305898565
20
50.349998474121421
10
111.34986305898566
20
106.34999847412143
10
121.34986305898565
20
106.34999847412143
10
121.34986305898565
20
156.34999847412143
10
111.34986305898565
20
156.34999847412143
10
111.34986305898566
20
206.34999847412143
10
121.34986305898565
20
206.34999847412143
10
121.34986305898565
20
256.34999847412143
10
111.34986305898565
20
256.34999847412143
10
111.34986305898566
20
306.34999847412143
10
121.34986305898565
20
306.34999847412143
10
121.34986305898565
20
356.34999847412138
10
111.34986305898565
20
356.34999847412138
10
111.34986305898566
20
406.34999847412138
10
121.34986305898565
20
406.34999847412143
10
121.34986305898565
20
456.34999847412143
10
118.34986306010251
20
456.34999847412143
10
118.34986306010251
20
465.34999847412155
10
113.34986306010222
20
465.34999847412155
10
113.34986306010251
20
456.34999847412143
10
111.34986305898565
20
456.34999847412143
10
111.34986305898565
20
490.34999847412132
10
113.34986306010251
20
490.34999847412155
10
113.34986306010251
20
477.84999847412155
0
CIRCLE
5
106
100
AcDbEntity
8
0
100
AcDbCircle
10
91.350127242983277
20
435.3500061035158
30
0
40
2
210
0
220
0
230
1
0
CIRCLE
5
107
100
AcDbEntity
8
0
100
AcDbCircle
10
91.350127242983262
20
480.3500061035158
30
0
40
2
210
0
220
0
230
1
0
LWPOLYLINE
5
108
100
AcDbEntity
8
0
100
AcDbPolyline
90
40
70
1
43
0.0
10
76.35012724298322
20
490.3500061035158
10
106.35012724298323
20
490.3500061035158
10
106.35012724298323
20
446.35000610351585
10
96.350127242983234
20
446.35000610351585
10
96.35012724298322
20
390.3500061035158
10
106.35012724298326
20
390.3500061035158
10
106.35012724298328
20
340.3500061035158
10
96.350127242983277
20
340.3500061035158
10
96.35012724298322
20
290.3500061035158
10
106.35012724298329
20
290.3500061035158
10
106.35012724298329
20
240.3500061035158
10
96.350127242983291
20
240.3500061035158
10
96.350127242983206
20
190.3500061035158
10
106.35012724298332
20
190.3500061035158
10
106.35012724298332
20
140.3500061035158
10
96.350127242983319
20
140.3500061035158
10
96.350127242983191
20
90.35000610351581
10
106.35012724298333
20
90.350006103515881
10
106.35012724298335
20
40.350006103515881
10
96.350127242983348
20
40.350006103515881
10
96.350127242983177
20
6.350006103515895
10
86.350127242983177
20
6.3500061035158932
10
86.350127242983206
20
40.350006103515881
10
76.350127242983348
20
40.350006103515881
10
76.350127242983334
20
90.350006103515881
10
86.350127242983334
20
90.350006103515881
10
86.350127242983206
20
140.35000610351588
10
76.350127242983319
20
140.3500061035158
10
76.350127242983319
20
190.3500061035158
10
86.350127242983319
20
190.3500061035158
10
86.35012724298322
20
240.3500061035158
10
76.350127242983291
20
240.3500061035158
10
76.350127242983291
20
290.3500061035158
10
86.350127242983291
20
290.3500061035158
10
86.350127242983234
20
340.3500061035158
10
76.350127242983277
20
340.3500061035158
10
76.350127242983262
20
390.3500061035158
10
86.350127242983262
20
390.3500061035158
10
86.350127242983234
20
440.3500061035158
10
76.350127242983248
20
440.3500061035158
0
LWPOLYLINE
5
109
100
AcDbEntity
8
0
100
AcDbPolyline
90
40
70
1
43
0.0
10
71.349985129298261
20
456.34999847412126
10
71.349985129298247
20
406.34999847412126
10
61.349985129298261
20
406.34999847412126
10
61.349985129298261
20
356.34999847412126
10
71.349985129298261
20
356.34999847412126
10
71.349985129298247
20
306.34999847412126
10
61.349985129298261
20
306.34999847412126
10
61.349985129298261
20
256.34999847412126
10
71.349985129298261
20
256.34999847412126
10
71.349985129298247
20
206.34999847412129
10
61.349985129298261
20
206.34999847412126
10
61.349985129298261
20
156.34999847412126
10
71.349985129298261
20
156.34999847412126
10
71.349985129298247
20
106.34999847412125
10
61.349985129298261
20
106.34999847412125
10
61.349985129298261
20
51.349998474121257
10
71.349985129298261
20
51.349998474121257
10
71.349985129298247
20
6.349998474121259
10
51.349985129298254
20
6.3499984741212678
10
51.349985129298261
20
56.349998474121264
10
41.349985129298261
20
56.349998474121264
10
41.349985129298268
20
106.34999847412126
10
51.349985129298254
20
106.34999847412125
10
51.349985129298261
20
156.34999847412126
10
41.349985129298261
20
156.34999847412126
10
41.349985129298268
20
206.34999847412126
10
51.349985129298254
20
206.34999847412129
10
51.349985129298261
20
256.34999847412126
10
41.349985129298261
20
256.34999847412126
10
41.349985129298268
20
306.34999847412126
10
51.349985129298254
20
306.34999847412126
10
51.349985129298261
20
356.34999847412126
10
41.349985129298261
20
356.34999847412126
10
41.349985129298268
20
406.34999847412126
10
51.349985129298254
20
406.34999847412126
10
51.349985129298261
20
456.34999847412126
10
41.349985129298261
20
456.34999847412126
10
41.349985129298261
20
490.34999847412109
10
61.349985129298261
20
490.34999847412109
10
61.349985129298261
20
456.34999847412126
0
CIRCLE
5
110
100
AcDbEntity
8
0
100
AcDbCircle
10
21.35012724298327
20
435.35000610351585
30
0
40
2
210
0
220
0
230
1
0
CIRCLE
5
111
100
AcDbEntity
8
0
100
AcDbCircle
10
21.350127242983259
20
480.35000610351585
30
0
40
2
210
0
220
0
230
1
0
LWPOLYLINE
5
112
100
AcDbEntity
8
0
100
AcDbPolyline
90
40
70
1
43
0.0
10
36.350127242983334
20
40.350006103515881
10
36.350127242983341
20
90.350006103515881
10
26.35012724298333
20
90.350006103515881
10
26.350127242983206
20
140.35000610351585
10
36.350127242983312
20
140.35000610351585
10
36.350127242983319
20
190.35000610351585
10
26.350127242983312
20
190.35000610351585
10
26.35012724298322
20
240.35000610351585
10
36.350127242983291
20
240.35000610351585
10
36.350127242983291
20
290.35000610351585
10
26.350127242983284
20
290.35000610351585
10
26.350127242983234
20
340.35000610351585
10
36.35012724298327
20
340.35000610351585
10
36.35012724298327
20
390.35000610351585
10
26.350127242983262
20
390.35000610351585
10
26.350127242983241
20
440.35000610351585
10
36.350127242983241
20
440.35000610351585
10
36.350127242983248
20
490.35000610351585
10
6.35012724298325
20
490.35000610351585
10
6.350127242983242
20
446.35000610351591
10
16.350127242983241
20
446.35000610351591
10
16.350127242983262
20
390.35000610351585
10
6.3501272429832722
20
390.35000610351585
10
6.350127242983266
20
340.35000610351585
10
16.350127242983231
20
340.35000610351585
10
16.350127242983284
20
290.35000610351585
10
6.3501272429832945
20
290.35000610351585
10
6.3501272429832873
20
240.35000610351588
10
16.350127242983216
20
240.35000610351585
10
16.350127242983309
20
190.35000610351585
10
6.3501272429833167
20
190.35000610351585
10
6.3501272429833104
20
140.35000610351585
10
16.350127242983209
20
140.35000610351588
10
16.350127242983334
20
90.350006103515881
10
6.3501272429833433
20
90.350006103515881
10
6.3501272429833371
20
40.350006103515881
10
16.350127242983344
20
40.350006103515881
10
16.350127242983188
20
6.350006103515895
10
26.350127242983188
20
6.350006103515895
10
26.350127242983344
20
40.350006103515881
0
ENDSEC
0
SECTION
2
OBJECTS
0
DICTIONARY
5
C
100
AcDbDictionary
3
ACAD_GROUP
350
D
3
ACAD_MLINESTYLE
350
17
0
DICTIONARY
5
D
100
AcDbDictionary
0
DICTIONARY
5
1A
330
C
100
AcDbDictionary
0
DICTIONARY
5
17
100
AcDbDictionary
0
ENDSEC
0
EOF
