0
SECTION
2
HEADER
9
$INSUNITS
70
4
9
$ACADVER
1
AC1014
9
$HANDSEED
5
FFFF
0
ENDSEC
0
SECTION
2
TABLES
0
TABLE
2
VPORT
5
8
100
AcDbSymbolTable
0
ENDTAB
0
TABLE
2
LTYPE
5
5
100
AcDbSymbolTable
0
LTYPE
5
14
100
AcDbSymbolTableRecord
100
AcDbLinetypeTableRecord
2
BYBLOCK
70
0
0
LTYPE
5
15
100
AcDbSymbolTableRecord
100
AcDbLinetypeTableRecord
2
BYLAYER
70
0
0
ENDTAB
0
TABLE
2
LAYER
5
2
100
AcDbSymbolTable
70
2
0
LAYER
5
50
100
AcDbSymbolTableRecord
100
AcDbLayerTableRecord
2
0
70
0
6
CONTINUOUS
0
ENDTAB
0
TABLE
2
STYLE
5
3
100
AcDbSymbolTable
70
1
0
STYLE
5
11
100
AcDbSymbolTableRecord
100
AcDbTextStyleTableRecord
2
STANDARD
70
0
0
ENDTAB
0
TABLE
2
VIEW
5
6
100
AcDbSymbolTable
70
0
0
ENDTAB
0
TABLE
2
UCS
5
7
100
AcDbSymbolTable
70
0
0
ENDTAB
0
TABLE
2
APPID
5
9
100
AcDbSymbolTable
70
2
0
APPID
5
12
100
AcDbSymbolTableRecord
100
AcDbRegAppTableRecord
2
ACAD
70
0
0
ENDTAB
0
TABLE
2
DIMSTYLE
5
A
100
AcDbSymbolTable
70
1
0
ENDTAB
0
TABLE
2
BLOCK_RECORD
5
1
100
AcDbSymbolTable
70
1
0
BLOCK_RECORD
5
1F
100
AcDbSymbolTableRecord
100
AcDbBlockTableRecord
2
*MODEL_SPACE
0
BLOCK_RECORD
5
1B
100
AcDbSymbolTableRecord
100
AcDbBlockTableRecord
2
*PAPER_SPACE
0
ENDTAB
0
ENDSEC
0
SECTION
2
BLOCKS
0
BLOCK
5
20
100
AcDbEntity
100
AcDbBlockBegin
2
*MODEL_SPACE
0
ENDBLK
5
21
100
AcDbEntity
100
AcDbBlockEnd
0
BLOCK
5
1C
100
AcDbEntity
100
AcDbBlockBegin
2
*PAPER_SPACE
0
ENDBLK
5
1D
100
AcDbEntity
100
AcDbBlockEnd
0
ENDSEC
0
SECTION
2
ENTITIES
0
LWPOLYLINE
5
100
100
AcDbEntity
8
0
100
AcDbPolyline
90
312
70
1
43
0.0
10
95.400300000000001
20
69.399500000000003
10
91.500299999999996
20
69.399500000000003
10
91.500299999999996
20
77.200500000000005
10
95.400300000000001
20
77.200500000000005
10
95.416900000000012
20
77.200500000000005
10
95.470500000000001
20
77.229399999999998
10
95.500799999999998
20
77.283000000000015
10
95.500799999999998
20
77.299599999999998
10
95.500799999999998
20
85.300600000000003
10
95.500799999999998
20
85.318600000000004
10
95.470500000000001
20
85.370800000000017
10
95.416900000000012
20
85.399699999999996
10
95.400300000000001
20
85.399699999999996
10
91.500299999999996
20
85.399699999999996
10
91.500299999999996
20
85.390199999999993
10
91.48520000000002
20
85.358500000000021
10
91.461900000000014
20
85.362700000000004
10
91.457600000000014
20
85.38600000000001
10
91.489400000000018
20
85.399699999999996
10
91.500299999999996
20
85.399699999999996
10
91.500299999999996
20
93.199700000000007
10
91.489400000000018
20
93.199700000000007
10
91.457600000000014
20
93.214500000000001
10
91.461900000000014
20
93.238100000000003
10
91.48520000000002
20
93.2423
10
91.500299999999996
20
93.210600000000014
10
91.500299999999996
20
93.199700000000007
10
95.400300000000001
20
93.199700000000007
10
95.416900000000012
20
93.199700000000007
10
95.470500000000001
20
93.229600000000005
10
95.500799999999998
20
93.283600000000021
10
95.500799999999998
20
93.300200000000018
10
95.500799999999998
20
101.29899999999999
10
95.500799999999998
20
101.31700000000002
10
95.470500000000001
20
101.37100000000002
10
95.416900000000012
20
101.40000000000001
10
95.400300000000001
20
101.40000000000001
10
91.500299999999996
20
101.40000000000001
10
91.489400000000018
20
101.40000000000001
10
91.457600000000014
20
101.387
10
91.461900000000014
20
101.363
10
91.48520000000002
20
101.35899999999999
10
91.500299999999996
20
101.39000000000001
10
91.500299999999996
20
101.40000000000001
10
91.500299999999996
20
109.20000000000002
10
95.400300000000001
20
109.20000000000002
10
95.416900000000012
20
109.20000000000002
10
95.470500000000001
20
109.23000000000002
10
95.500799999999998
20
109.28399999999999
10
95.500799999999998
20
109.3
10
95.500799999999998
20
117.30000000000001
10
95.500799999999998
20
117.318
10
95.470500000000001
20
117.37000000000002
10
95.416900000000012
20
117.399
10
95.400300000000001
20
117.399
10
91.500299999999996
20
117.399
10
91.500299999999996
20
125.20000000000002
10
91.489400000000018
20
125.20000000000002
10
91.457600000000014
20
125.21500000000002
10
91.461900000000014
20
125.23800000000001
10
91.48520000000002
20
125.24299999999999
10
91.500299999999996
20
125.21100000000001
10
91.500299999999996
20
125.20000000000002
10
95.400300000000001
20
125.20000000000002
10
95.416900000000012
20
125.20000000000002
10
95.470500000000001
20
125.229
10
95.500799999999998
20
125.283
10
95.500799999999998
20
125.30000000000001
10
95.500799999999998
20
133.30000000000001
10
95.500799999999998
20
133.31799999999998
10
95.470500000000001
20
133.37100000000001
10
95.416900000000012
20
133.40000000000001
10
95.400300000000001
20
133.40000000000001
10
91.500299999999996
20
133.40000000000001
10
91.489400000000018
20
133.40000000000001
10
91.457600000000014
20
133.386
10
91.461900000000014
20
133.36199999999999
10
91.48520000000002
20
133.358
10
91.500299999999996
20
133.38999999999999
10
91.500299999999996
20
133.40000000000001
10
91.500299999999996
20
141.20100000000002
10
95.400300000000001
20
141.20100000000002
10
95.416900000000012
20
141.20100000000002
10
95.470500000000001
20
141.22999999999999
10
95.500799999999998
20
141.28299999999999
10
95.500799999999998
20
141.30000000000001
10
95.500799999999998
20
149.30100000000004
10
95.500799999999998
20
149.31899999999999
10
95.470500000000001
20
149.37100000000001
10
95.416900000000012
20
149.40000000000001
10
95.400300000000001
20
149.40000000000001
10
91.500299999999996
20
149.40000000000001
10
91.489400000000018
20
149.40000000000001
10
91.457600000000014
20
149.38600000000002
10
91.461900000000014
20
149.363
10
91.48520000000002
20
149.35900000000001
10
91.500299999999996
20
149.38999999999999
10
91.500299999999996
20
149.40000000000001
10
91.500299999999996
20
157.19999999999999
10
91.489400000000018
20
157.19999999999999
10
91.457600000000014
20
157.215
10
91.461900000000014
20
157.238
10
91.48520000000002
20
157.24299999999999
10
91.500299999999996
20
157.21100000000001
10
91.500299999999996
20
157.19999999999999
10
95.400300000000001
20
157.19999999999999
10
95.416900000000012
20
157.19999999999999
10
95.470500000000001
20
157.22999999999999
10
95.500799999999998
20
157.28399999999999
10
95.500799999999998
20
157.30000000000001
10
95.500799999999998
20
172.30000000000001
10
95.500799999999998
20
172.31799999999998
10
95.470500000000001
20
172.37
10
95.416900000000012
20
172.39900000000003
10
95.400300000000001
20
172.39900000000003
10
91.399799999999999
20
172.39900000000003
10
14.400500000000001
20
172.39900000000003
10
10.400100000000002
20
172.39900000000003
10
10.382100000000001
20
172.39900000000003
10
10.3284
20
172.37
10
10.299500000000002
20
172.31799999999998
10
10.299500000000002
20
172.30000000000001
10
10.299500000000002
20
157.30000000000001
10
10.299500000000002
20
157.28399999999999
10
10.3284
20
157.22999999999999
10
10.382100000000001
20
157.19999999999999
10
10.400100000000002
20
157.19999999999999
10
14.299900000000001
20
157.19999999999999
10
14.299900000000001
20
157.21100000000001
10
14.313700000000003
20
157.24299999999999
10
14.3371
20
157.238
10
14.341200000000001
20
157.215
10
14.309500000000002
20
157.19999999999999
10
14.299900000000001
20
157.19999999999999
10
14.299900000000001
20
149.40000000000001
10
10.400100000000002
20
149.40000000000001
10
10.382100000000001
20
149.40000000000001
10
10.3284
20
149.37100000000001
10
10.299500000000002
20
149.31899999999999
10
10.299500000000002
20
149.30100000000004
10
10.299500000000002
20
141.30000000000001
10
10.299500000000002
20
141.28299999999999
10
10.3284
20
141.22999999999999
10
10.382100000000001
20
141.20100000000002
10
10.400100000000002
20
141.20100000000002
10
14.299900000000001
20
141.20100000000002
10
14.309500000000002
20
141.20100000000002
10
14.341200000000001
20
141.21600000000001
10
14.3371
20
141.238
10
14.313700000000003
20
141.24299999999999
10
14.299900000000001
20
141.21200000000002
10
14.299900000000001
20
141.20100000000002
10
14.299900000000001
20
133.40000000000001
10
14.299900000000001
20
133.38999999999999
10
14.313700000000003
20
133.358
10
14.3371
20
133.36199999999999
10
14.341200000000001
20
133.386
10
14.309500000000002
20
133.40000000000001
10
14.299900000000001
20
133.40000000000001
10
10.400100000000002
20
133.40000000000001
10
10.382100000000001
20
133.40000000000001
10
10.3284
20
133.37100000000001
10
10.299500000000002
20
133.31799999999998
10
10.299500000000002
20
133.30000000000001
10
10.299500000000002
20
125.30000000000001
10
10.299500000000002
20
125.283
10
10.3284
20
125.229
10
10.382100000000001
20
125.20000000000002
10
10.400100000000002
20
125.20000000000002
10
14.299900000000001
20
125.20000000000002
10
14.299900000000001
20
117.399
10
14.299900000000001
20
117.39000000000001
10
14.313700000000003
20
117.35799999999999
10
14.3371
20
117.36200000000002
10
14.341200000000001
20
117.38500000000002
10
14.309500000000002
20
117.399
10
14.299900000000001
20
117.399
10
10.400100000000002
20
117.399
10
10.382100000000001
20
117.399
10
10.3284
20
117.37000000000002
10
10.299500000000002
20
117.318
10
10.299500000000002
20
117.30000000000001
10
10.299500000000002
20
109.3
10
10.299500000000002
20
109.28399999999999
10
10.3284
20
109.23000000000002
10
10.382100000000001
20
109.20000000000002
10
10.400100000000002
20
109.20000000000002
10
14.299900000000001
20
109.20000000000002
10
14.299900000000001
20
101.40000000000001
10
14.309500000000002
20
101.40000000000001
10
14.341200000000001
20
101.387
10
14.3371
20
101.363
10
14.313700000000003
20
101.35899999999999
10
14.299900000000001
20
101.39000000000001
10
14.299900000000001
20
101.40000000000001
10
10.400100000000002
20
101.40000000000001
10
10.382100000000001
20
101.40000000000001
10
10.3284
20
101.37100000000002
10
10.299500000000002
20
101.31700000000002
10
10.299500000000002
20
101.29899999999999
10
10.299500000000002
20
93.300200000000018
10
10.299500000000002
20
93.283600000000021
10
10.3284
20
93.229600000000005
10
10.382100000000001
20
93.199700000000007
10
10.400100000000002
20
93.199700000000007
10
14.299900000000001
20
93.199700000000007
10
14.299900000000001
20
85.399699999999996
10
10.400100000000002
20
85.399699999999996
10
10.382100000000001
20
85.399699999999996
10
10.3284
20
85.370800000000017
10
10.299500000000002
20
85.318600000000004
10
10.299500000000002
20
85.300600000000003
10
10.299500000000002
20
77.299599999999998
10
10.299500000000002
20
77.283000000000015
10
10.3284
20
77.229399999999998
10
10.382100000000001
20
77.200500000000005
10
10.400100000000002
20
77.200500000000005
10
14.299900000000001
20
77.200500000000005
10
14.309500000000002
20
77.200500000000005
10
14.341200000000001
20
77.215599999999995
10
14.3371
20
77.237499999999997
10
14.313700000000003
20
77.243200000000002
10
14.299900000000001
20
77.211399999999998
10
14.299900000000001
20
77.200500000000005
10
14.299900000000001
20
69.399500000000003
10
10.400100000000002
20
69.399500000000003
10
10.382100000000001
20
69.399500000000003
10
10.3284
20
69.370599999999996
10
10.299500000000002
20
69.317999999999998
10
10.299500000000002
20
69.299999999999997
10
10.299500000000002
20
61.300800000000002
10
10.299500000000002
20
61.284199999999998
10
10.3284
20
61.230200000000004
10
10.382100000000001
20
61.199900000000007
10
10.400100000000002
20
61.199900000000007
10
14.299900000000001
20
61.199900000000007
10
14.299900000000001
20
53.400300000000001
10
10.400100000000002
20
53.400300000000001
10
10.382100000000001
20
53.400300000000001
10
10.3284
20
53.371400000000008
10
10.299500000000002
20
53.317800000000005
10
10.299500000000002
20
53.299799999999998
10
10.299500000000002
20
45.300199999999997
10
10.299500000000002
20
45.2836
10
10.3284
20
45.229999999999997
10
10.382100000000001
20
45.1997
10
10.400100000000002
20
45.1997
10
14.299900000000001
20
45.1997
10
14.299900000000001
20
37.400100000000002
10
10.400100000000002
20
37.400100000000002
10
10.382100000000001
20
37.400100000000002
10
10.3284
20
37.371200000000002
10
10.299500000000002
20
37.3172
10
10.299500000000002
20
37.299199999999999
10
10.299500000000002
20
22.300800000000002
10
10.299500000000002
20
22.284300000000002
10
10.3284
20
22.230500000000003
10
10.382100000000001
20
22.200199999999999
10
10.400100000000002
20
22.200199999999999
10
14.400500000000001
20
22.200199999999999
10
91.399799999999999
20
22.200199999999999
10
95.400300000000001
20
22.200199999999999
10
95.416900000000012
20
22.200199999999999
10
95.470500000000001
20
22.230500000000003
10
95.500799999999998
20
22.284300000000002
10
95.500799999999998
20
22.300800000000002
10
95.500799999999998
20
37.299199999999999
10
95.500799999999998
20
37.3172
10
95.470500000000001
20
37.371200000000002
10
95.416900000000012
20
37.400100000000002
10
95.400300000000001
20
37.400100000000002
10
91.500299999999996
20
37.400100000000002
10
91.500299999999996
20
37.3902
10
91.48520000000002
20
37.358499999999999
10
91.461900000000014
20
37.362699999999997
10
91.457600000000014
20
37.386299999999999
10
91.489400000000018
20
37.400100000000002
10
91.500299999999996
20
37.400100000000002
10
91.500299999999996
20
45.1997
10
91.489400000000018
20
45.1997
10
91.457600000000014
20
45.214799999999997
10
91.461900000000014
20
45.238100000000003
10
91.48520000000002
20
45.2423
10
91.500299999999996
20
45.210599999999999
10
91.500299999999996
20
45.1997
10
95.400300000000001
20
45.1997
10
95.416900000000012
20
45.1997
10
95.470500000000001
20
45.229999999999997
10
95.500799999999998
20
45.2836
10
95.500799999999998
20
45.300199999999997
10
95.500799999999998
20
53.299799999999998
10
95.500799999999998
20
53.317800000000005
10
95.470500000000001
20
53.371400000000008
10
95.416900000000012
20
53.400300000000001
10
95.400300000000001
20
53.400300000000001
10
91.500299999999996
20
53.400300000000001
10
91.500299999999996
20
61.199900000000007
10
91.500299999999996
20
61.211200000000005
10
91.48520000000002
20
61.242900000000006
10
91.461900000000014
20
61.238700000000001
10
91.457600000000014
20
61.215100000000007
10
91.489400000000018
20
61.199900000000007
10
91.500299999999996
20
61.199900000000007
10
95.400300000000001
20
61.199900000000007
10
95.416900000000012
20
61.199900000000007
10
95.470500000000001
20
61.230200000000004
10
95.500799999999998
20
61.284199999999998
10
95.500799999999998
20
61.300800000000002
10
95.500799999999998
20
69.299999999999997
10
95.500799999999998
20
69.317999999999998
10
95.470500000000001
20
69.370599999999996
10
95.416900000000012
20
69.399500000000003
0
LWPOLYLINE
5
101
100
AcDbEntity
8
0
100
AcDbPolyline
90
6
70
1
43
0.0
10
91.489400000000018
20
69.399500000000003
10
91.457600000000014
20
69.3857
10
91.461900000000014
20
69.362099999999998
10
91.48520000000002
20
69.357900000000001
10
91.500299999999996
20
69.389600000000002
10
91.500299999999996
20
69.399500000000003
0
LWPOLYLINE
5
102
100
AcDbEntity
8
0
100
AcDbPolyline
90
6
70
1
43
0.0
10
91.457600000000014
20
53.386600000000008
10
91.461900000000014
20
53.363300000000002
10
91.48520000000002
20
53.358999999999995
10
91.500299999999996
20
53.390799999999999
10
91.500299999999996
20
53.400300000000001
10
91.489400000000018
20
53.400300000000001
0
LWPOLYLINE
5
103
100
AcDbEntity
8
0
100
AcDbPolyline
90
6
70
1
43
0.0
10
203.66200000000003
20
301.43799999999999
10
203.65800000000002
20
301.41500000000002
10
203.68900000000002
20
301.39999999999998
10
203.70000000000002
20
301.39999999999998
10
203.70000000000002
20
301.41200000000003
10
203.685
20
301.44299999999998
0
LWPOLYLINE
5
104
100
AcDbEntity
8
0
100
AcDbPolyline
90
293
70
1
43
0.0
10
97.500399999999999
20
301.483
10
97.529300000000006
20
301.42900000000003
10
97.581500000000005
20
301.39999999999998
10
97.59950000000002
20
301.39999999999998
10
101.50100000000002
20
301.39999999999998
10
101.50100000000002
20
293.601
10
101.51000000000002
20
293.601
10
101.54200000000002
20
293.58699999999999
10
101.53800000000001
20
293.56299999999999
10
101.515
20
293.55900000000008
10
101.50100000000002
20
293.59100000000001
10
101.50100000000002
20
293.601
10
97.59950000000002
20
293.601
10
97.581500000000005
20
293.601
10
97.529300000000006
20
293.572
10
97.500399999999999
20
293.51799999999997
10
97.500399999999999
20
293.5
10
97.500399999999999
20
285.49900000000002
10
97.500399999999999
20
285.483
10
97.529300000000006
20
285.43000000000001
10
97.581500000000005
20
285.39999999999998
10
97.59950000000002
20
285.39999999999998
10
101.50100000000002
20
285.39999999999998
10
101.50100000000002
20
285.411
10
101.515
20
285.44299999999998
10
101.53800000000001
20
285.43700000000001
10
101.54200000000002
20
285.41500000000002
10
101.51000000000002
20
285.39999999999998
10
101.50100000000002
20
285.39999999999998
10
101.50100000000002
20
277.60000000000002
10
97.59950000000002
20
277.60000000000002
10
97.581500000000005
20
277.60000000000002
10
97.529300000000006
20
277.57099999999997
10
97.500399999999999
20
277.51799999999997
10
97.500399999999999
20
277.5
10
97.500399999999999
20
269.5
10
97.500399999999999
20
269.48400000000004
10
97.529300000000006
20
269.43000000000001
10
97.581500000000005
20
269.399
10
97.59950000000002
20
269.399
10
101.50100000000002
20
269.399
10
101.51000000000002
20
269.399
10
101.54200000000002
20
269.41500000000008
10
101.53800000000001
20
269.43799999999999
10
101.515
20
269.44200000000001
10
101.50100000000002
20
269.411
10
101.50100000000002
20
269.399
10
101.50100000000002
20
261.60000000000002
10
101.51000000000002
20
261.60000000000002
10
101.54200000000002
20
261.58600000000001
10
101.53800000000001
20
261.56299999999999
10
101.515
20
261.55900000000003
10
101.50100000000002
20
261.58999999999997
10
101.50100000000002
20
261.60000000000002
10
97.59950000000002
20
261.60000000000002
10
97.581500000000005
20
261.60000000000002
10
97.529300000000006
20
261.57100000000003
10
97.500399999999999
20
261.51900000000001
10
97.500399999999999
20
261.50099999999998
10
97.500399999999999
20
253.5
10
97.500399999999999
20
253.483
10
97.529300000000006
20
253.43000000000004
10
97.581500000000005
20
253.40100000000001
10
97.59950000000002
20
253.40100000000001
10
101.50100000000002
20
253.40100000000001
10
101.51000000000002
20
253.40100000000001
10
101.54200000000002
20
253.416
10
101.53800000000001
20
253.43800000000002
10
101.515
20
253.44300000000001
10
101.50100000000002
20
253.41200000000001
10
101.50100000000002
20
253.40100000000001
10
101.50100000000002
20
245.60000000000002
10
101.51000000000002
20
245.60000000000002
10
101.54200000000002
20
245.58599999999998
10
101.53800000000001
20
245.56200000000004
10
101.515
20
245.55800000000002
10
101.50100000000002
20
245.59
10
101.50100000000002
20
245.60000000000002
10
97.59950000000002
20
245.60000000000002
10
97.581500000000005
20
245.60000000000002
10
97.529300000000006
20
245.57000000000002
10
97.500399999999999
20
245.518
10
97.500399999999999
20
245.5
10
97.500399999999999
20
237.5
10
97.500399999999999
20
237.483
10
97.529300000000006
20
237.42900000000003
10
97.581500000000005
20
237.40000000000003
10
97.59950000000002
20
237.40000000000003
10
101.50100000000002
20
237.40000000000003
10
101.50100000000002
20
237.411
10
101.515
20
237.44299999999998
10
101.53800000000001
20
237.43700000000004
10
101.54200000000002
20
237.41500000000002
10
101.51000000000002
20
237.40000000000003
10
101.50100000000002
20
237.40000000000003
10
101.50100000000002
20
229.60000000000002
10
101.50100000000002
20
229.59100000000001
10
101.515
20
229.55900000000003
10
101.53800000000001
20
229.56299999999999
10
101.54200000000002
20
229.58700000000005
10
101.51000000000002
20
229.60000000000002
10
101.50100000000002
20
229.60000000000002
10
97.59950000000002
20
229.60000000000002
10
97.581500000000005
20
229.60000000000002
10
97.529300000000006
20
229.572
10
97.500399999999999
20
229.51800000000003
10
97.500399999999999
20
229.50000000000003
10
97.500399999999999
20
221.50000000000003
10
97.500399999999999
20
221.48400000000004
10
97.529300000000006
20
221.43000000000001
10
97.581500000000005
20
221.40000000000001
10
97.59950000000002
20
221.40000000000001
10
101.50100000000002
20
221.40000000000001
10
101.50100000000002
20
221.41099999999997
10
101.515
20
221.44200000000001
10
101.53800000000001
20
221.43799999999999
10
101.54200000000002
20
221.41500000000002
10
101.51000000000002
20
221.40000000000001
10
101.50100000000002
20
221.40000000000001
10
101.50100000000002
20
213.59999999999999
10
101.51000000000002
20
213.59999999999999
10
101.54200000000002
20
213.58599999999998
10
101.53800000000001
20
213.56300000000002
10
101.515
20
213.55900000000005
10
101.50100000000002
20
213.59000000000003
10
101.50100000000002
20
213.59999999999999
10
97.59950000000002
20
213.59999999999999
10
97.581500000000005
20
213.59999999999999
10
97.529300000000006
20
213.57100000000003
10
97.500399999999999
20
213.517
10
97.500399999999999
20
213.49900000000005
10
97.500399999999999
20
205.5
10
97.500399999999999
20
205.48400000000001
10
97.529300000000006
20
205.43000000000004
10
97.581500000000005
20
205.39900000000003
10
97.59950000000002
20
205.39900000000003
10
101.50100000000002
20
205.39900000000003
10
101.50100000000002
20
205.411
10
101.515
20
205.44200000000004
10
101.53800000000001
20
205.43800000000002
10
101.54200000000002
20
205.41400000000004
10
147.59999999999999
20
205.41400000000004
10
147.59999999999999
20
174.40000000000001
10
152.59999999999999
20
174.40000000000001
10
157.59999999999999
20
174.40000000000001
10
157.59999999999999
20
205.41400000000004
10
203.65800000000002
20
205.41400000000004
10
203.66200000000003
20
205.43800000000002
10
203.685
20
205.44200000000004
10
203.70000000000002
20
205.411
10
203.70000000000002
20
205.39900000000003
10
207.60000000000002
20
205.39900000000003
10
207.61700000000005
20
205.39900000000003
10
207.66999999999999
20
205.43000000000004
10
207.70099999999999
20
205.48400000000001
10
207.70099999999999
20
205.5
10
207.70099999999999
20
213.49900000000005
10
207.70099999999999
20
213.517
10
207.66999999999999
20
213.57100000000003
10
207.61700000000005
20
213.59999999999999
10
207.60000000000002
20
213.59999999999999
10
203.70000000000002
20
213.59999999999999
10
203.68900000000002
20
213.59999999999999
10
203.65800000000002
20
213.58599999999998
10
203.66200000000003
20
213.56300000000002
10
203.685
20
213.55900000000005
10
203.70000000000002
20
213.59000000000003
10
203.70000000000002
20
213.59999999999999
10
203.70000000000002
20
221.40000000000001
10
203.68900000000002
20
221.40000000000001
10
203.65800000000002
20
221.41500000000002
10
203.66200000000003
20
221.43799999999999
10
203.685
20
221.44200000000001
10
203.70000000000002
20
221.41099999999997
10
203.70000000000002
20
221.40000000000001
10
207.60000000000002
20
221.40000000000001
10
207.61700000000005
20
221.40000000000001
10
207.66999999999999
20
221.43000000000001
10
207.70099999999999
20
221.48400000000004
10
207.70099999999999
20
221.50000000000003
10
207.70099999999999
20
229.50000000000003
10
207.70099999999999
20
229.51800000000003
10
207.66999999999999
20
229.572
10
207.61700000000005
20
229.60000000000002
10
207.60000000000002
20
229.60000000000002
10
203.70000000000002
20
229.60000000000002
10
203.70000000000002
20
237.40000000000003
10
203.68900000000002
20
237.40000000000003
10
203.65800000000002
20
237.41500000000002
10
203.66200000000003
20
237.43700000000004
10
203.685
20
237.44299999999998
10
203.70000000000002
20
237.411
10
203.70000000000002
20
237.40000000000003
10
207.60000000000002
20
237.40000000000003
10
207.61700000000005
20
237.40000000000003
10
207.66999999999999
20
237.42900000000003
10
207.70099999999999
20
237.483
10
207.70099999999999
20
237.5
10
207.70099999999999
20
245.5
10
207.70099999999999
20
245.518
10
207.66999999999999
20
245.57000000000002
10
207.61700000000005
20
245.60000000000002
10
207.60000000000002
20
245.60000000000002
10
203.70000000000002
20
245.60000000000002
10
203.70000000000002
20
253.40100000000001
10
207.60000000000002
20
253.40100000000001
10
207.61700000000005
20
253.40100000000001
10
207.66999999999999
20
253.43000000000004
10
207.70099999999999
20
253.483
10
207.70099999999999
20
253.5
10
207.70099999999999
20
261.50099999999998
10
207.70099999999999
20
261.51900000000001
10
207.66999999999999
20
261.57100000000003
10
207.61700000000005
20
261.60000000000002
10
207.60000000000002
20
261.60000000000002
10
203.70000000000002
20
261.60000000000002
10
203.70000000000002
20
269.399
10
203.68900000000002
20
269.399
10
203.65800000000002
20
269.41500000000008
10
203.66200000000003
20
269.43799999999999
10
203.685
20
269.44200000000001
10
203.70000000000002
20
269.411
10
203.70000000000002
20
269.399
10
207.60000000000002
20
269.399
10
207.61700000000005
20
269.399
10
207.66999999999999
20
269.43000000000001
10
207.70099999999999
20
269.48400000000004
10
207.70099999999999
20
269.5
10
207.70099999999999
20
277.5
10
207.70099999999999
20
277.51799999999997
10
207.66999999999999
20
277.57099999999997
10
207.61700000000005
20
277.60000000000002
10
207.60000000000002
20
277.60000000000002
10
203.70000000000002
20
277.60000000000002
10
203.70000000000002
20
277.59100000000001
10
203.685
20
277.55900000000003
10
203.66200000000003
20
277.56299999999999
10
203.65800000000002
20
277.58600000000001
10
203.68900000000002
20
277.60000000000002
10
203.70000000000002
20
277.60000000000002
10
203.70000000000002
20
285.39999999999998
10
203.68900000000002
20
285.39999999999998
10
203.65800000000002
20
285.41500000000002
10
203.66200000000003
20
285.43700000000001
10
203.685
20
285.44299999999998
10
203.70000000000002
20
285.411
10
203.70000000000002
20
285.39999999999998
10
207.60000000000002
20
285.39999999999998
10
207.61700000000005
20
285.39999999999998
10
207.66999999999999
20
285.43000000000001
10
207.70099999999999
20
285.483
10
207.70099999999999
20
285.49900000000002
10
207.70099999999999
20
293.5
10
207.70099999999999
20
293.51799999999997
10
207.66999999999999
20
293.572
10
207.61700000000005
20
293.601
10
207.60000000000002
20
293.601
10
203.70000000000002
20
293.601
10
203.68900000000002
20
293.601
10
203.65800000000002
20
293.58699999999999
10
203.66200000000003
20
293.56299999999999
10
203.685
20
293.55900000000008
10
203.70000000000002
20
293.59100000000001
10
203.70000000000002
20
293.601
10
203.70000000000002
20
301.39999999999998
10
207.60000000000002
20
301.39999999999998
10
207.61700000000005
20
301.39999999999998
10
207.66999999999999
20
301.42900000000003
10
207.70099999999999
20
301.483
10
207.70099999999999
20
301.5
10
207.70099999999999
20
309.5
10
207.70099999999999
20
309.51799999999997
10
207.66999999999999
20
309.57099999999997
10
207.61700000000005
20
309.60000000000002
10
207.60000000000002
20
309.60000000000002
10
203.70000000000002
20
309.60000000000002
10
203.70000000000002
20
324.50099999999998
10
203.70000000000002
20
324.51900000000001
10
203.67000000000002
20
324.57099999999997
10
203.61599999999999
20
324.60000000000002
10
203.59999999999999
20
324.60000000000002
10
101.59999999999999
20
324.60000000000002
10
101.58200000000001
20
324.60000000000002
10
101.53
20
324.57099999999997
10
101.50100000000002
20
324.51900000000001
10
101.50100000000002
20
324.50099999999998
10
101.50100000000002
20
309.60000000000002
10
97.59950000000002
20
309.60000000000002
10
97.581500000000005
20
309.60000000000002
10
97.529300000000006
20
309.57099999999997
10
97.500399999999999
20
309.51799999999997
10
97.500399999999999
20
309.5
10
97.500399999999999
20
301.5
0
LWPOLYLINE
5
105
100
AcDbEntity
8
0
100
AcDbPolyline
90
6
70
1
43
0.0
10
203.70000000000002
20
245.60000000000002
10
203.68900000000002
20
245.60000000000002
10
203.65800000000002
20
245.58599999999998
10
203.66200000000003
20
245.56200000000004
10
203.685
20
245.55800000000002
10
203.70000000000002
20
245.59
0
LWPOLYLINE
5
106
100
AcDbEntity
8
0
100
AcDbPolyline
90
6
70
1
43
0.0
10
101.50100000000002
20
301.41200000000003
10
101.50100000000002
20
301.39999999999998
10
101.51000000000002
20
301.39999999999998
10
101.54200000000002
20
301.41500000000002
10
101.53800000000001
20
301.43799999999999
10
101.515
20
301.44299999999998
0
LWPOLYLINE
5
107
100
AcDbEntity
8
0
100
AcDbPolyline
90
314
70
1
43
0.0
10
101.54200000000002
20
69.214600000000004
10
101.53800000000001
20
69.238299999999995
10
101.515
20
69.242199999999997
10
101.50100000000002
20
69.210800000000006
10
101.50100000000002
20
69.1995
10
97.59950000000002
20
69.1995
10
97.581500000000005
20
69.1995
10
97.529300000000006
20
69.229799999999997
10
97.500399999999999
20
69.283800000000014
10
97.500399999999999
20
69.299999999999997
10
97.500399999999999
20
77.299599999999998
10
97.500399999999999
20
77.317599999999999
10
97.529300000000006
20
77.371200000000016
10
97.581500000000005
20
77.400099999999995
10
97.59950000000002
20
77.400099999999995
10
101.50100000000002
20
77.400099999999995
10
101.50100000000002
20
77.390600000000006
10
101.515
20
77.358900000000006
10
101.53800000000001
20
77.363100000000003
10
101.54200000000002
20
77.386400000000009
10
101.51000000000002
20
77.400099999999995
10
101.50100000000002
20
77.400099999999995
10
101.50100000000002
20
85.200100000000006
10
97.59950000000002
20
85.200100000000006
10
97.581500000000005
20
85.200100000000006
10
97.529300000000006
20
85.230400000000003
10
97.500399999999999
20
85.283999999999992
10
97.500399999999999
20
85.300600000000003
10
97.500399999999999
20
93.300200000000018
10
97.500399999999999
20
93.317800000000005
10
97.529300000000006
20
93.371800000000007
10
97.581500000000005
20
93.400700000000001
10
97.59950000000002
20
93.400700000000001
10
101.50100000000002
20
93.400700000000001
10
101.50100000000002
20
101.20000000000002
10
101.51000000000002
20
101.20000000000002
10
101.54200000000002
20
101.215
10
101.53800000000001
20
101.23800000000001
10
101.515
20
101.24299999999999
10
101.50100000000002
20
101.211
10
101.50100000000002
20
101.20000000000002
10
97.59950000000002
20
101.20000000000002
10
97.581500000000005
20
101.20000000000002
10
97.529300000000006
20
101.22900000000001
10
97.500399999999999
20
101.28299999999999
10
97.500399999999999
20
101.29899999999999
10
97.500399999999999
20
109.3
10
97.500399999999999
20
109.31800000000001
10
97.529300000000006
20
109.37100000000001
10
97.581500000000005
20
109.40000000000001
10
97.59950000000002
20
109.40000000000001
10
101.50100000000002
20
109.40000000000001
10
101.50100000000002
20
117.19900000000001
10
101.51000000000002
20
117.19900000000001
10
101.54200000000002
20
117.215
10
101.53800000000001
20
117.238
10
101.515
20
117.24200000000002
10
101.50100000000002
20
117.21000000000001
10
101.50100000000002
20
117.19900000000001
10
97.59950000000002
20
117.19900000000001
10
97.581500000000005
20
117.19900000000001
10
97.529300000000006
20
117.23
10
97.500399999999999
20
117.28299999999999
10
97.500399999999999
20
117.30000000000001
10
97.500399999999999
20
125.30000000000001
10
97.500399999999999
20
125.31700000000001
10
97.529300000000006
20
125.37100000000002
10
97.581500000000005
20
125.40000000000001
10
97.59950000000002
20
125.40000000000001
10
101.50100000000002
20
125.40000000000001
10
101.51000000000002
20
125.40000000000001
10
101.54200000000002
20
125.38600000000002
10
101.53800000000001
20
125.363
10
101.515
20
125.35899999999999
10
101.50100000000002
20
125.39100000000002
10
101.50100000000002
20
125.40000000000001
10
101.50100000000002
20
133.19999999999999
10
101.51000000000002
20
133.19999999999999
10
101.54200000000002
20
133.215
10
101.53800000000001
20
133.23900000000003
10
101.515
20
133.24200000000002
10
101.50100000000002
20
133.21100000000001
10
101.50100000000002
20
133.19999999999999
10
97.59950000000002
20
133.19999999999999
10
97.581500000000005
20
133.19999999999999
10
97.529300000000006
20
133.23000000000002
10
97.500399999999999
20
133.28399999999999
10
97.500399999999999
20
133.30000000000001
10
97.500399999999999
20
141.30000000000001
10
97.500399999999999
20
141.31799999999998
10
97.529300000000006
20
141.37100000000001
10
97.581500000000005
20
141.40000000000001
10
97.59950000000002
20
141.40000000000001
10
101.50100000000002
20
141.40000000000001
10
101.50100000000002
20
149.19999999999999
10
97.59950000000002
20
149.19999999999999
10
97.581500000000005
20
149.19999999999999
10
97.529300000000006
20
149.23099999999999
10
97.500399999999999
20
149.28399999999999
10
97.500399999999999
20
149.30100000000004
10
97.500399999999999
20
157.30000000000001
10
97.500399999999999
20
157.31799999999998
10
97.529300000000006
20
157.37100000000001
10
97.581500000000005
20
157.40000000000003
10
97.59950000000002
20
157.40000000000003
10
101.50100000000002
20
157.40000000000003
10
101.51000000000002
20
157.40000000000003
10
101.54200000000002
20
157.386
10
101.53800000000001
20
157.36199999999999
10
101.515
20
157.358
10
101.50100000000002
20
157.38999999999999
10
101.50100000000002
20
157.40000000000003
10
101.50100000000002
20
172.30000000000001
10
101.50100000000002
20
172.31799999999998
10
101.53
20
172.37
10
101.58200000000001
20
172.39900000000003
10
101.59999999999999
20
172.39900000000003
10
203.59999999999999
20
172.39900000000003
10
203.61599999999999
20
172.39900000000003
10
203.67000000000002
20
172.37
10
203.70000000000002
20
172.31799999999998
10
203.70000000000002
20
172.30000000000001
10
203.70000000000002
20
157.40000000000003
10
207.60000000000002
20
157.40000000000003
10
207.61700000000005
20
157.40000000000003
10
207.66999999999999
20
157.37100000000001
10
207.70099999999999
20
157.31799999999998
10
207.70099999999999
20
157.30000000000001
10
207.70099999999999
20
149.30100000000004
10
207.70099999999999
20
149.28399999999999
10
207.66999999999999
20
149.23099999999999
10
207.61700000000005
20
149.19999999999999
10
207.60000000000002
20
149.19999999999999
10
203.70000000000002
20
149.19999999999999
10
203.70000000000002
20
141.40000000000001
10
203.70000000000002
20
141.39099999999999
10
203.685
20
141.35900000000001
10
203.66200000000003
20
141.363
10
203.65800000000002
20
141.387
10
203.68900000000002
20
141.40000000000001
10
203.70000000000002
20
141.40000000000001
10
207.60000000000002
20
141.40000000000001
10
207.61700000000005
20
141.40000000000001
10
207.66999999999999
20
141.37100000000001
10
207.70099999999999
20
141.31799999999998
10
207.70099999999999
20
141.30000000000001
10
207.70099999999999
20
133.30000000000001
10
207.70099999999999
20
133.28399999999999
10
207.66999999999999
20
133.23000000000002
10
207.61700000000005
20
133.19999999999999
10
207.60000000000002
20
133.19999999999999
10
203.70000000000002
20
133.19999999999999
10
203.70000000000002
20
125.40000000000001
10
203.70000000000002
20
125.39100000000002
10
203.685
20
125.35899999999999
10
203.66200000000003
20
125.363
10
203.65800000000002
20
125.38600000000002
10
203.68900000000002
20
125.40000000000001
10
203.70000000000002
20
125.40000000000001
10
207.60000000000002
20
125.40000000000001
10
207.61700000000005
20
125.40000000000001
10
207.66999999999999
20
125.37100000000002
10
207.70099999999999
20
125.31700000000001
10
207.70099999999999
20
125.30000000000001
10
207.70099999999999
20
117.30000000000001
10
207.70099999999999
20
117.28299999999999
10
207.66999999999999
20
117.23
10
207.61700000000005
20
117.19900000000001
10
207.60000000000002
20
117.19900000000001
10
203.70000000000002
20
117.19900000000001
10
203.70000000000002
20
109.40000000000001
10
207.60000000000002
20
109.40000000000001
10
207.61700000000005
20
109.40000000000001
10
207.66999999999999
20
109.37100000000001
10
207.70099999999999
20
109.31800000000001
10
207.70099999999999
20
109.3
10
207.70099999999999
20
101.29899999999999
10
207.70099999999999
20
101.28299999999999
10
207.66999999999999
20
101.22900000000001
10
207.61700000000005
20
101.20000000000002
10
207.60000000000002
20
101.20000000000002
10
203.70000000000002
20
101.20000000000002
10
203.70000000000002
20
101.211
10
203.685
20
101.24299999999999
10
203.66200000000003
20
101.23800000000001
10
203.65800000000002
20
101.215
10
203.68900000000002
20
101.20000000000002
10
203.70000000000002
20
101.20000000000002
10
203.70000000000002
20
93.400700000000001
10
203.70000000000002
20
93.390900000000002
10
203.685
20
93.359499999999997
10
203.66200000000003
20
93.36330000000001
10
203.65800000000002
20
93.387000000000015
10
203.68900000000002
20
93.400700000000001
10
203.70000000000002
20
93.400700000000001
10
207.60000000000002
20
93.400700000000001
10
207.61700000000005
20
93.400700000000001
10
207.66999999999999
20
93.371800000000007
10
207.70099999999999
20
93.317800000000005
10
207.70099999999999
20
93.300200000000018
10
207.70099999999999
20
85.300600000000003
10
207.70099999999999
20
85.283999999999992
10
207.66999999999999
20
85.230400000000003
10
207.61700000000005
20
85.200100000000006
10
207.60000000000002
20
85.200100000000006
10
203.70000000000002
20
85.200100000000006
10
203.68900000000002
20
85.200100000000006
10
203.65800000000002
20
85.21520000000001
10
203.66200000000003
20
85.238500000000016
10
203.685
20
85.242800000000017
10
203.70000000000002
20
85.211000000000013
10
203.70000000000002
20
85.200100000000006
10
203.70000000000002
20
77.400099999999995
10
203.68900000000002
20
77.400099999999995
10
203.65800000000002
20
77.386400000000009
10
203.66200000000003
20
77.363100000000003
10
203.685
20
77.358900000000006
10
203.70000000000002
20
77.390600000000006
10
203.70000000000002
20
77.400099999999995
10
207.60000000000002
20
77.400099999999995
10
207.61700000000005
20
77.400099999999995
10
207.66999999999999
20
77.371200000000016
10
207.70099999999999
20
77.317599999999999
10
207.70099999999999
20
77.299599999999998
10
207.70099999999999
20
69.299999999999997
10
207.70099999999999
20
69.283800000000014
10
207.66999999999999
20
69.229799999999997
10
207.61700000000005
20
69.1995
10
207.60000000000002
20
69.1995
10
203.70000000000002
20
69.1995
10
203.70000000000002
20
61.399900000000009
10
207.60000000000002
20
61.399900000000009
10
207.61700000000005
20
61.399900000000009
10
207.66999999999999
20
61.371000000000002
10
207.70099999999999
20
61.318400000000004
10
207.70099999999999
20
61.300800000000002
10
207.70099999999999
20
53.299799999999998
10
207.70099999999999
20
53.283200000000008
10
207.66999999999999
20
53.229600000000005
10
207.61700000000005
20
53.200700000000005
10
207.60000000000002
20
53.200700000000005
10
203.70000000000002
20
53.200700000000005
10
203.70000000000002
20
45.399299999999997
10
207.60000000000002
20
45.399299999999997
10
207.61700000000005
20
45.399299999999997
10
207.66999999999999
20
45.370400000000004
10
207.70099999999999
20
45.318199999999997
10
207.70099999999999
20
45.300199999999997
10
207.70099999999999
20
37.299199999999999
10
207.70099999999999
20
37.283000000000001
10
207.66999999999999
20
37.228999999999999
10
207.61700000000005
20
37.200100000000006
10
207.60000000000002
20
37.200100000000006
10
203.70000000000002
20
37.200100000000006
10
203.68900000000002
20
37.200100000000006
10
203.65800000000002
20
37.215200000000003
10
203.66200000000003
20
37.237499999999997
10
203.685
20
37.242800000000003
10
203.70000000000002
20
37.210999999999999
10
203.70000000000002
20
37.200100000000006
10
203.70000000000002
20
22.300800000000002
10
203.70000000000002
20
22.284300000000002
10
203.67000000000002
20
22.230500000000003
10
203.61599999999999
20
22.200199999999999
10
203.59999999999999
20
22.200199999999999
10
101.59999999999999
20
22.200199999999999
10
101.58200000000001
20
22.200199999999999
10
101.53
20
22.230500000000003
10
101.50100000000002
20
22.284300000000002
10
101.50100000000002
20
22.300800000000002
10
101.50100000000002
20
37.200100000000006
10
97.59950000000002
20
37.200100000000006
10
97.581500000000005
20
37.200100000000006
10
97.529300000000006
20
37.228999999999999
10
97.500399999999999
20
37.283000000000001
10
97.500399999999999
20
37.299199999999999
10
97.500399999999999
20
45.300199999999997
10
97.500399999999999
20
45.318199999999997
10
97.529300000000006
20
45.370400000000004
10
97.581500000000005
20
45.399299999999997
10
97.59950000000002
20
45.399299999999997
10
101.50100000000002
20
45.399299999999997
10
101.50100000000002
20
45.389800000000008
10
101.515
20
45.358100000000007
10
101.53800000000001
20
45.362299999999998
10
101.54200000000002
20
45.385599999999997
10
101.51000000000002
20
45.399299999999997
10
101.50100000000002
20
45.399299999999997
10
101.50100000000002
20
53.200700000000005
10
101.50100000000002
20
53.211599999999997
10
101.515
20
53.243299999999998
10
101.53800000000001
20
53.237699999999997
10
101.54200000000002
20
53.215800000000009
10
101.51000000000002
20
53.200700000000005
10
101.50100000000002
20
53.200700000000005
10
97.59950000000002
20
53.200700000000005
10
97.581500000000005
20
53.200700000000005
10
97.529300000000006
20
53.229600000000005
10
97.500399999999999
20
53.283200000000008
10
97.500399999999999
20
53.299799999999998
10
97.500399999999999
20
61.300800000000002
10
97.500399999999999
20
61.318400000000004
10
97.529300000000006
20
61.371000000000002
10
97.581500000000005
20
61.399900000000009
10
97.59950000000002
20
61.399900000000009
10
101.50100000000002
20
61.399900000000009
10
101.50100000000002
20
61.390400000000007
10
101.515
20
61.35860000000001
10
101.53800000000001
20
61.362500000000004
10
101.54200000000002
20
61.386200000000002
10
101.51000000000002
20
61.399900000000009
10
101.50100000000002
20
61.399900000000009
10
101.50100000000002
20
69.1995
10
101.51000000000002
20
69.1995
0
LWPOLYLINE
5
108
100
AcDbEntity
8
0
100
AcDbPolyline
90
6
70
1
43
0.0
10
203.65800000000002
20
229.58700000000005
10
203.66200000000003
20
229.56299999999999
10
203.685
20
229.55900000000003
10
203.70000000000002
20
229.59100000000001
10
203.70000000000002
20
229.60000000000002
10
203.68900000000002
20
229.60000000000002
0
LWPOLYLINE
5
109
100
AcDbEntity
8
0
100
AcDbPolyline
90
6
70
1
43
0.0
10
101.50100000000002
20
277.60000000000002
10
101.50100000000002
20
277.59100000000001
10
101.515
20
277.55900000000003
10
101.53800000000001
20
277.56299999999999
10
101.54200000000002
20
277.58600000000001
10
101.51000000000002
20
277.60000000000002
0
LWPOLYLINE
5
110
100
AcDbEntity
8
0
100
AcDbPolyline
90
6
70
1
43
0.0
10
203.70000000000002
20
309.60000000000002
10
203.68900000000002
20
309.60000000000002
10
203.65800000000002
20
309.58600000000001
10
203.66200000000003
20
309.56299999999999
10
203.685
20
309.55799999999999
10
203.70000000000002
20
309.58999999999997
0
LWPOLYLINE
5
111
100
AcDbEntity
8
0
100
AcDbPolyline
90
6
70
1
43
0.0
10
101.53800000000001
20
93.36330000000001
10
101.54200000000002
20
93.387000000000015
10
101.51000000000002
20
93.400700000000001
10
101.50100000000002
20
93.400700000000001
10
101.50100000000002
20
93.390900000000002
10
101.515
20
93.359499999999997
0
LINE
5
112
100
AcDbEntity
8
0
100
AcDbLine
10
207.70099999999999
20
197.51900000000003
30
0
11
207.66999999999999
21
197.57100000000003
31
0
0
LINE
5
113
100
AcDbEntity
8
0
100
AcDbLine
10
207.66999999999999
20
197.57100000000003
30
0
11
207.61700000000005
21
197.60000000000002
31
0
0
LWPOLYLINE
5
114
100
AcDbEntity
8
0
100
AcDbPolyline
90
6
70
1
43
0.0
10
203.70000000000002
20
157.38999999999999
10
203.70000000000002
20
157.40000000000003
10
203.68900000000002
20
157.40000000000003
10
203.65800000000002
20
157.386
10
203.66200000000003
20
157.36199999999999
10
203.685
20
157.358
0
LWPOLYLINE
5
115
100
AcDbEntity
8
0
100
AcDbPolyline
90
6
70
1
43
0.0
10
101.51000000000002
20
309.60000000000002
10
101.50100000000002
20
309.60000000000002
10
101.50100000000002
20
309.58999999999997
10
101.515
20
309.55799999999999
10
101.53800000000001
20
309.56299999999999
10
101.54200000000002
20
309.58600000000001
0
LWPOLYLINE
5
116
100
AcDbEntity
8
0
100
AcDbPolyline
90
6
70
1
43
0.0
10
203.68900000000002
20
189.40000000000001
10
203.70000000000002
20
189.40000000000001
10
203.70000000000002
20
189.411
10
203.685
20
189.44299999999998
10
203.66200000000003
20
189.43700000000004
10
203.65800000000002
20
189.416
0
LWPOLYLINE
5
117
100
AcDbEntity
8
0
100
AcDbPolyline
90
6
70
1
43
0.0
10
101.50100000000002
20
85.211000000000013
10
101.50100000000002
20
85.200100000000006
10
101.51000000000002
20
85.200100000000006
10
101.54200000000002
20
85.21520000000001
10
101.53800000000001
20
85.238500000000016
10
101.515
20
85.242800000000017
0
LWPOLYLINE
5
118
100
AcDbEntity
8
0
100
AcDbPolyline
90
6
70
1
43
0.0
10
203.68900000000002
20
133.19999999999999
10
203.70000000000002
20
133.19999999999999
10
203.70000000000002
20
133.21100000000001
10
203.685
20
133.24200000000002
10
203.66200000000003
20
133.23900000000003
10
203.65800000000002
20
133.215
0
LWPOLYLINE
5
119
100
AcDbEntity
8
0
100
AcDbPolyline
90
6
70
1
43
0.0
10
203.68900000000002
20
261.60000000000002
10
203.65800000000002
20
261.58600000000001
10
203.66200000000003
20
261.56299999999999
10
203.685
20
261.55900000000003
10
203.70000000000002
20
261.58999999999997
10
203.70000000000002
20
261.60000000000002
0
LINE
5
120
100
AcDbEntity
8
0
100
AcDbLine
10
203.68900000000002
20
197.60000000000002
30
0
11
203.65800000000002
21
197.58600000000001
31
0
0
LWPOLYLINE
5
121
100
AcDbEntity
8
0
100
AcDbPolyline
90
6
70
1
43
0.0
10
203.685
20
253.44300000000001
10
203.66200000000003
20
253.43800000000002
10
203.65800000000002
20
253.416
10
203.68900000000002
20
253.40100000000001
10
203.70000000000002
20
253.40100000000001
10
203.70000000000002
20
253.41200000000001
0
LINE
5
122
100
AcDbEntity
8
0
100
AcDbLine
10
203.70000000000002
20
174.483
30
0
11
203.70000000000002
21
174.5
31
0
0
LINE
5
123
100
AcDbEntity
8
0
100
AcDbLine
10
207.61700000000005
20
197.60000000000002
30
0
11
207.60000000000002
21
197.60000000000002
31
0
0
LINE
5
124
100
AcDbEntity
8
0
100
AcDbLine
10
207.66999999999999
20
189.42900000000003
30
0
11
207.70099999999999
21
189.483
31
0
0
LINE
5
125
100
AcDbEntity
8
0
100
AcDbLine
10
207.70099999999999
20
197.501
30
0
11
207.70099999999999
21
197.51900000000003
31
0
0
LINE
5
126
100
AcDbEntity
8
0
100
AcDbLine
10
207.61700000000005
20
189.40000000000001
30
0
11
207.66999999999999
21
189.42900000000003
31
0
0
LINE
5
127
100
AcDbEntity
8
0
100
AcDbLine
10
203.68900000000002
20
205.39900000000003
30
0
11
203.70000000000002
21
205.39900000000003
31
0
0
LINE
5
128
100
AcDbEntity
8
0
100
AcDbLine
10
203.65800000000002
20
205.41400000000004
30
0
11
203.68900000000002
21
205.39900000000003
31
0
0
LINE
5
129
100
AcDbEntity
8
0
100
AcDbLine
10
203.70000000000002
20
197.59
30
0
11
203.70000000000002
21
197.60000000000002
31
0
0
LINE
5
130
100
AcDbEntity
8
0
100
AcDbLine
10
203.65800000000002
20
197.58600000000001
30
0
11
203.66200000000003
21
197.56299999999999
31
0
0
LINE
5
131
100
AcDbEntity
8
0
100
AcDbLine
10
207.60000000000002
20
189.40000000000001
30
0
11
207.61700000000005
21
189.40000000000001
31
0
0
LWPOLYLINE
5
132
100
AcDbEntity
8
0
100
AcDbPolyline
90
23
70
1
43
0.0
10
40.999499999999998
20
30.199700000000004
10
48.800500000000007
20
30.199700000000004
10
48.810000000000002
20
30.199700000000004
10
48.84170000000001
20
30.2149
10
48.837900000000005
20
30.238300000000002
10
48.8142
20
30.242400000000004
10
48.800500000000007
20
30.210699999999999
10
48.800500000000007
20
30.199700000000004
10
48.800500000000007
20
26.400400000000005
10
48.810000000000002
20
26.400400000000005
10
48.84170000000001
20
26.386700000000005
10
48.837900000000005
20
26.363300000000002
10
48.8142
20
26.359100000000005
10
48.800500000000007
20
26.390799999999999
10
48.800500000000007
20
26.400400000000005
10
44.900500000000001
20
26.400400000000005
10
40.999499999999998
20
26.400400000000005
10
40.999499999999998
20
30.199700000000004
10
40.988500000000002
20
30.199700000000004
10
40.956800000000008
20
30.2149
10
40.9621
20
30.238300000000002
10
40.984299999999998
20
30.242400000000004
10
40.999499999999998
20
30.210699999999999
0
LINE
5
133
100
AcDbEntity
8
0
100
AcDbLine
10
203.70000000000002
20
197.60000000000002
30
0
11
203.68900000000002
21
197.60000000000002
31
0
0
LINE
5
134
100
AcDbEntity
8
0
100
AcDbLine
10
207.70099999999999
20
189.483
30
0
11
207.70099999999999
21
189.5
31
0
0
LINE
5
135
100
AcDbEntity
8
0
100
AcDbLine
10
203.67000000000002
20
174.42900000000003
30
0
11
203.70000000000002
21
174.483
31
0
0
LWPOLYLINE
5
136
100
AcDbEntity
8
0
100
AcDbPolyline
90
6
70
1
43
0.0
10
101.50100000000002
20
37.210999999999999
10
101.50100000000002
20
37.200100000000006
10
101.51000000000002
20
37.200100000000006
10
101.54200000000002
20
37.215200000000003
10
101.53800000000001
20
37.237499999999997
10
101.515
20
37.242800000000003
0
LINE
5
137
100
AcDbEntity
8
0
100
AcDbLine
10
203.61599999999999
20
174.40000000000001
30
0
11
203.67000000000002
21
174.42900000000003
31
0
0
LINE
5
138
100
AcDbEntity
8
0
100
AcDbLine
10
203.59999999999999
20
174.40000000000001
30
0
11
203.61599999999999
21
174.40000000000001
31
0
0
LWPOLYLINE
5
139
100
AcDbEntity
8
0
100
AcDbPolyline
90
6
70
1
43
0.0
10
101.53800000000001
20
109.36300000000001
10
101.54200000000002
20
109.38600000000001
10
101.51000000000002
20
109.40000000000001
10
101.50100000000002
20
109.40000000000001
10
101.50100000000002
20
109.39
10
101.515
20
109.358
0
LWPOLYLINE
5
140
100
AcDbEntity
8
0
100
AcDbPolyline
90
6
70
1
43
0.0
10
101.51000000000002
20
141.40000000000001
10
101.50100000000002
20
141.40000000000001
10
101.50100000000002
20
141.39099999999999
10
101.515
20
141.35900000000001
10
101.53800000000001
20
141.363
10
101.54200000000002
20
141.387
0
LWPOLYLINE
5
141
100
AcDbEntity
8
0
100
AcDbPolyline
90
17
70
1
43
0.0
10
56.988799999999998
20
26.400400000000005
10
56.957000000000008
20
26.386700000000005
10
56.961300000000001
20
26.363300000000002
10
56.984500000000004
20
26.359100000000005
10
56.999700000000004
20
26.390799999999999
10
56.999700000000004
20
26.400400000000005
10
60.89970000000001
20
26.400400000000005
10
64.799599999999998
20
26.400400000000005
10
64.809200000000004
20
26.400400000000005
10
64.840900000000005
20
26.386700000000005
10
64.836700000000008
20
26.363300000000002
10
64.813400000000001
20
26.359100000000005
10
64.799599999999998
20
26.390799999999999
10
64.799599999999998
20
26.400400000000005
10
64.799599999999998
20
30.199700000000004
10
56.999700000000004
20
30.199700000000004
10
56.999700000000004
20
26.400400000000005
0
LWPOLYLINE
5
142
100
AcDbEntity
8
0
100
AcDbPolyline
90
6
70
1
43
0.0
10
56.988799999999998
20
30.199700000000004
10
56.999700000000004
20
30.199700000000004
10
56.999700000000004
20
30.210699999999999
10
56.984500000000004
20
30.242400000000004
10
56.961300000000001
20
30.238300000000002
10
56.957000000000008
20
30.2149
0
LWPOLYLINE
5
143
100
AcDbEntity
8
0
100
AcDbPolyline
90
23
70
1
43
0.0
10
28.900200000000002
20
26.400400000000005
10
25.000400000000003
20
26.400400000000005
10
25.000400000000003
20
26.390799999999999
10
24.985199999999999
20
26.359100000000005
10
24.961800000000004
20
26.363300000000002
10
24.957700000000003
20
26.386700000000005
10
24.9893
20
26.400400000000005
10
25.000400000000003
20
26.400400000000005
10
25.000400000000003
20
30.199700000000004
10
32.8001
20
30.199700000000004
10
32.8001
20
30.210699999999999
10
32.813800000000001
20
30.242400000000004
10
32.837299999999999
20
30.238300000000002
10
32.8414
20
30.2149
10
32.809699999999999
20
30.199700000000004
10
32.8001
20
30.199700000000004
10
32.8001
20
26.400400000000005
10
32.8001
20
26.390799999999999
10
32.813800000000001
20
26.359100000000005
10
32.837299999999999
20
26.363300000000002
10
32.8414
20
26.386700000000005
10
32.809699999999999
20
26.400400000000005
10
32.8001
20
26.400400000000005
0
LWPOLYLINE
5
144
100
AcDbEntity
8
0
100
AcDbPolyline
90
6
70
1
43
0.0
10
40.999499999999998
20
26.390799999999999
10
40.999499999999998
20
26.400400000000005
10
40.988500000000002
20
26.400400000000005
10
40.956800000000008
20
26.386700000000005
10
40.9621
20
26.363300000000002
10
40.984299999999998
20
26.359100000000005
0
LWPOLYLINE
5
145
100
AcDbEntity
8
0
100
AcDbPolyline
90
4
70
1
43
0.0
10
10.400100000000002
20
10.000400000000001
10
110.40000000000001
20
10.000400000000001
10
110.40000000000001
20
19.999500000000001
10
10.400100000000002
20
19.999500000000001
0
LWPOLYLINE
5
146
100
AcDbEntity
8
0
100
AcDbPolyline
90
17
70
1
43
0.0
10
80.813600000000008
20
26.359100000000005
10
80.837300000000013
20
26.363300000000002
10
80.841100000000012
20
26.386700000000005
10
80.809399999999997
20
26.400400000000005
10
80.799900000000008
20
26.400400000000005
10
80.799900000000008
20
30.199700000000004
10
80.809399999999997
20
30.199700000000004
10
80.841100000000012
20
30.2149
10
80.837300000000013
20
30.238300000000002
10
80.813600000000008
20
30.242400000000004
10
80.799900000000008
20
30.210699999999999
10
80.799900000000008
20
30.199700000000004
10
73.000299999999996
20
30.199700000000004
10
73.000299999999996
20
26.400400000000005
10
76.899900000000002
20
26.400400000000005
10
80.799900000000008
20
26.400400000000005
10
80.799900000000008
20
26.390799999999999
0
LWPOLYLINE
5
147
100
AcDbEntity
8
0
100
AcDbPolyline
90
6
70
1
43
0.0
10
203.70000000000002
20
109.40000000000001
10
203.68900000000002
20
109.40000000000001
10
203.65800000000002
20
109.38600000000001
10
203.66200000000003
20
109.36300000000001
10
203.685
20
109.358
10
203.70000000000002
20
109.39
0
LWPOLYLINE
5
148
100
AcDbEntity
8
0
100
AcDbPolyline
90
6
70
1
43
0.0
10
203.70000000000002
20
53.200700000000005
10
203.70000000000002
20
53.211599999999997
10
203.685
20
53.243299999999998
10
203.66200000000003
20
53.237699999999997
10
203.65800000000002
20
53.215800000000009
10
203.68900000000002
20
53.200700000000005
0
LWPOLYLINE
5
149
100
AcDbEntity
8
0
100
AcDbPolyline
90
6
70
1
43
0.0
10
64.840900000000005
20
30.2149
10
64.836700000000008
20
30.238300000000002
10
64.813400000000001
20
30.242400000000004
10
64.799599999999998
20
30.210699999999999
10
64.799599999999998
20
30.199700000000004
10
64.809200000000004
20
30.199700000000004
0
LWPOLYLINE
5
150
100
AcDbEntity
8
0
100
AcDbPolyline
90
6
70
1
43
0.0
10
203.70000000000002
20
45.389800000000008
10
203.70000000000002
20
45.399299999999997
10
203.68900000000002
20
45.399299999999997
10
203.65800000000002
20
45.385599999999997
10
203.66200000000003
20
45.362299999999998
10
203.685
20
45.358100000000007
0
LWPOLYLINE
5
151
100
AcDbEntity
8
0
100
AcDbPolyline
90
6
70
1
43
0.0
10
203.68900000000002
20
117.19900000000001
10
203.70000000000002
20
117.19900000000001
10
203.70000000000002
20
117.21000000000001
10
203.685
20
117.24200000000002
10
203.66200000000003
20
117.238
10
203.65800000000002
20
117.215
0
LWPOLYLINE
5
152
100
AcDbEntity
8
0
100
AcDbPolyline
90
6
70
1
43
0.0
10
72.989000000000004
20
30.199700000000004
10
73.000299999999996
20
30.199700000000004
10
73.000299999999996
20
30.210699999999999
10
72.985100000000003
20
30.242400000000004
10
72.961500000000001
20
30.238300000000002
10
72.957599999999999
20
30.2149
0
LINE
5
153
100
AcDbEntity
8
0
100
AcDbLine
10
40.988500000000002
20
178.601
30
0
11
40.956800000000008
21
178.58700000000002
31
0
0
LWPOLYLINE
5
154
100
AcDbEntity
8
0
100
AcDbPolyline
90
6
70
1
43
0.0
10
73.000299999999996
20
26.400400000000005
10
72.989000000000004
20
26.400400000000005
10
72.957599999999999
20
26.386700000000005
10
72.961500000000001
20
26.363300000000002
10
72.985100000000003
20
26.359100000000005
10
73.000299999999996
20
26.390799999999999
0
LWPOLYLINE
5
155
100
AcDbEntity
8
0
100
AcDbPolyline
90
6
70
1
43
0.0
10
203.66200000000003
20
61.362500000000004
10
203.685
20
61.35860000000001
10
203.70000000000002
20
61.390400000000007
10
203.70000000000002
20
61.399900000000009
10
203.68900000000002
20
61.399900000000009
10
203.65800000000002
20
61.386200000000002
0
LWPOLYLINE
5
156
100
AcDbEntity
8
0
100
AcDbPolyline
90
6
70
1
43
0.0
10
203.70000000000002
20
69.210800000000006
10
203.685
20
69.242199999999997
10
203.66200000000003
20
69.238299999999995
10
203.65800000000002
20
69.214600000000004
10
203.68900000000002
20
69.1995
10
203.70000000000002
20
69.1995
0
LWPOLYLINE
5
157
100
AcDbEntity
8
0
100
AcDbPolyline
90
6
70
1
43
0.0
10
101.515
20
149.24299999999999
10
101.50100000000002
20
149.21100000000001
10
101.50100000000002
20
149.19999999999999
10
101.51000000000002
20
149.19999999999999
10
101.54200000000002
20
149.21500000000003
10
101.53800000000001
20
149.239
0
LINE
5
158
100
AcDbEntity
8
0
100
AcDbLine
10
24.9893
20
178.601
30
0
11
24.957700000000003
21
178.58700000000002
31
0
0
LWPOLYLINE
5
159
100
AcDbEntity
8
0
100
AcDbPolyline
90
6
70
1
43
0.0
10
24.9893
20
30.199700000000004
10
25.000400000000003
20
30.199700000000004
10
25.000400000000003
20
30.210699999999999
10
24.985199999999999
20
30.242400000000004
10
24.961800000000004
20
30.238300000000002
10
24.957700000000003
20
30.2149
0
LWPOLYLINE
5
160
100
AcDbEntity
8
0
100
AcDbPolyline
90
5
70
1
43
0.0
10
28.900200000000002
20
208.601
10
25.000400000000003
20
208.601
10
25.000400000000003
20
212.40000000000003
10
32.8001
20
212.40000000000003
10
32.8001
20
208.601
0
LINE
5
161
100
AcDbEntity
8
0
100
AcDbLine
10
24.961800000000004
20
178.56300000000002
30
0
11
24.985199999999999
21
178.55900000000003
31
0
0
LWPOLYLINE
5
162
100
AcDbEntity
8
0
100
AcDbPolyline
90
360
70
1
43
0.0
10
10.299500000000002
20
309.5
10
10.299500000000002
20
309.48400000000004
10
10.3284
20
309.43000000000001
10
10.382100000000001
20
309.39999999999998
10
10.400100000000002
20
309.39999999999998
10
14.299900000000001
20
309.39999999999998
10
14.299900000000001
20
309.411
10
14.313700000000003
20
309.44299999999998
10
14.3371
20
309.43799999999999
10
14.341200000000001
20
309.41500000000008
10
14.309500000000002
20
309.39999999999998
10
14.299900000000001
20
309.39999999999998
10
14.299900000000001
20
301.60000000000002
10
14.299900000000001
20
301.58999999999997
10
14.313700000000003
20
301.55900000000003
10
14.3371
20
301.56299999999999
10
14.341200000000001
20
301.58699999999999
10
14.309500000000002
20
301.60000000000002
10
14.299900000000001
20
301.60000000000002
10
10.400100000000002
20
301.60000000000002
10
10.382100000000001
20
301.60000000000002
10
10.3284
20
301.57100000000003
10
10.299500000000002
20
301.517
10
10.299500000000002
20
301.5
10
10.299500000000002
20
293.5
10
10.299500000000002
20
293.48400000000004
10
10.3284
20
293.43000000000006
10
10.382100000000001
20
293.39999999999998
10
10.400100000000002
20
293.39999999999998
10
14.299900000000001
20
293.39999999999998
10
14.299900000000001
20
285.60000000000002
10
14.309500000000002
20
285.60000000000002
10
14.341200000000001
20
285.58600000000001
10
14.3371
20
285.56299999999999
10
14.313700000000003
20
285.55799999999999
10
14.299900000000001
20
285.58999999999997
10
14.299900000000001
20
285.60000000000002
10
10.400100000000002
20
285.60000000000002
10
10.382100000000001
20
285.60000000000002
10
10.3284
20
285.57099999999997
10
10.299500000000002
20
285.517
10
10.299500000000002
20
285.49900000000002
10
10.299500000000002
20
277.5
10
10.299500000000002
20
277.483
10
10.3284
20
277.42900000000009
10
10.382100000000001
20
277.39999999999998
10
10.400100000000002
20
277.39999999999998
10
14.299900000000001
20
277.39999999999998
10
14.299900000000001
20
277.41100000000006
10
14.313700000000003
20
277.44299999999998
10
14.3371
20
277.43799999999999
10
14.341200000000001
20
277.416
10
14.309500000000002
20
277.39999999999998
10
14.299900000000001
20
277.39999999999998
10
14.299900000000001
20
269.59899999999999
10
14.309500000000002
20
269.59899999999999
10
14.341200000000001
20
269.58600000000001
10
14.3371
20
269.56200000000001
10
14.313700000000003
20
269.55799999999999
10
14.299900000000001
20
269.58999999999997
10
14.299900000000001
20
269.59899999999999
10
10.400100000000002
20
269.59899999999999
10
10.382100000000001
20
269.59899999999999
10
10.3284
20
269.57099999999997
10
10.299500000000002
20
269.51799999999997
10
10.299500000000002
20
269.5
10
10.299500000000002
20
261.50099999999998
10
10.299500000000002
20
261.48400000000004
10
10.3284
20
261.43099999999998
10
10.382100000000001
20
261.39999999999998
10
10.400100000000002
20
261.39999999999998
10
14.299900000000001
20
261.39999999999998
10
14.299900000000001
20
261.411
10
14.313700000000003
20
261.44299999999998
10
14.3371
20
261.43900000000002
10
14.341200000000001
20
261.41500000000002
10
14.309500000000002
20
261.39999999999998
10
14.299900000000001
20
261.39999999999998
10
14.299900000000001
20
253.59999999999999
10
14.309500000000002
20
253.59999999999999
10
14.341200000000001
20
253.58700000000002
10
14.3371
20
253.56300000000002
10
14.313700000000003
20
253.55900000000005
10
14.299900000000001
20
253.59099999999998
10
14.299900000000001
20
253.59999999999999
10
10.400100000000002
20
253.59999999999999
10
10.382100000000001
20
253.59999999999999
10
10.3284
20
253.57100000000003
10
10.299500000000002
20
253.518
10
10.299500000000002
20
253.5
10
10.299500000000002
20
245.5
10
10.299500000000002
20
245.48400000000001
10
10.3284
20
245.43000000000004
10
10.382100000000001
20
245.40000000000003
10
10.400100000000002
20
245.40000000000003
10
14.299900000000001
20
245.40000000000003
10
14.299900000000001
20
245.411
10
14.313700000000003
20
245.44200000000004
10
14.3371
20
245.43800000000002
10
14.341200000000001
20
245.41499999999999
10
14.309500000000002
20
245.40000000000003
10
14.299900000000001
20
245.40000000000003
10
14.299900000000001
20
237.60000000000002
10
14.309500000000002
20
237.60000000000002
10
14.341200000000001
20
237.58600000000001
10
14.3371
20
237.56299999999999
10
14.313700000000003
20
237.55900000000003
10
14.299900000000001
20
237.59
10
14.299900000000001
20
237.60000000000002
10
10.400100000000002
20
237.60000000000002
10
10.382100000000001
20
237.60000000000002
10
10.3284
20
237.57100000000003
10
10.299500000000002
20
237.517
10
10.299500000000002
20
237.5
10
10.299500000000002
20
229.50000000000003
10
10.299500000000002
20
229.48300000000003
10
10.3284
20
229.43000000000001
10
10.382100000000001
20
229.40100000000001
10
10.400100000000002
20
229.40100000000001
10
14.299900000000001
20
229.40100000000001
10
14.299900000000001
20
229.41200000000003
10
14.313700000000003
20
229.44299999999998
10
14.3371
20
229.43799999999999
10
14.341200000000001
20
229.416
10
14.309500000000002
20
229.40100000000001
10
14.299900000000001
20
229.40100000000001
10
14.299900000000001
20
221.59900000000005
10
14.309500000000002
20
221.59900000000005
10
14.341200000000001
20
221.58600000000001
10
14.3371
20
221.56200000000001
10
14.313700000000003
20
221.55799999999999
10
14.299900000000001
20
221.59000000000003
10
14.299900000000001
20
221.59900000000005
10
10.400100000000002
20
221.59900000000005
10
10.382100000000001
20
221.59900000000005
10
10.3284
20
221.571
10
10.299500000000002
20
221.51800000000003
10
10.299500000000002
20
221.50000000000003
10
10.299500000000002
20
213.49900000000005
10
10.299500000000002
20
213.483
10
10.3284
20
213.429
10
10.382100000000001
20
213.40000000000003
10
10.400100000000002
20
213.40000000000003
10
14.299900000000001
20
213.40000000000003
10
14.299900000000001
20
213.41099999999997
10
14.313700000000003
20
213.44300000000001
10
14.3371
20
213.43800000000002
10
14.341200000000001
20
213.41499999999999
10
14.309500000000002
20
213.40000000000003
10
14.299900000000001
20
213.40000000000003
10
14.299900000000001
20
205.60100000000003
10
14.309500000000002
20
205.60100000000003
10
14.341200000000001
20
205.58700000000002
10
14.3371
20
205.56299999999999
10
14.313700000000003
20
205.55900000000005
10
14.299900000000001
20
205.59100000000001
10
14.299900000000001
20
205.60100000000003
10
10.400100000000002
20
205.60100000000003
10
10.382100000000001
20
205.60100000000003
10
10.3284
20
205.572
10
10.299500000000002
20
205.518
10
10.299500000000002
20
205.5
10
10.299500000000002
20
197.501
10
10.299500000000002
20
197.48400000000004
10
10.3284
20
197.43000000000001
10
10.382100000000001
20
197.40000000000003
10
10.400100000000002
20
197.40000000000003
10
14.299900000000001
20
197.40000000000003
10
14.299900000000001
20
197.411
10
14.313700000000003
20
197.44299999999998
10
14.3371
20
197.43799999999999
10
14.341200000000001
20
197.41500000000002
10
14.309500000000002
20
197.40000000000003
10
14.299900000000001
20
197.40000000000003
10
14.299900000000001
20
189.60000000000002
10
14.309500000000002
20
189.60000000000002
10
14.341200000000001
20
189.58600000000001
10
14.3371
20
189.56299999999999
10
14.313700000000003
20
189.55900000000003
10
14.299900000000001
20
189.59100000000001
10
14.299900000000001
20
189.60000000000002
10
10.400100000000002
20
189.60000000000002
10
10.382100000000001
20
189.60000000000002
10
10.3284
20
189.571
10
10.299500000000002
20
189.51800000000003
10
10.299500000000002
20
189.5
10
10.299500000000002
20
174.5
10
10.299500000000002
20
174.483
10
10.3284
20
174.42900000000003
10
10.382100000000001
20
174.40000000000001
10
10.400100000000002
20
174.40000000000001
10
14.400500000000001
20
174.40000000000001
10
91.399799999999999
20
174.40000000000001
10
95.400300000000001
20
174.40000000000001
10
95.416900000000012
20
174.40000000000001
10
95.470500000000001
20
174.42900000000003
10
95.500799999999998
20
174.483
10
95.500799999999998
20
174.5
10
95.500799999999998
20
189.5
10
95.500799999999998
20
189.51800000000003
10
95.470500000000001
20
189.571
10
95.416900000000012
20
189.60000000000002
10
95.400300000000001
20
189.60000000000002
10
91.500299999999996
20
189.60000000000002
10
91.489400000000018
20
189.60000000000002
10
91.457600000000014
20
189.58600000000001
10
91.461900000000014
20
189.56299999999999
10
91.48520000000002
20
189.55900000000003
10
91.500299999999996
20
189.59100000000001
10
91.500299999999996
20
189.60000000000002
10
91.500299999999996
20
197.40000000000003
10
91.489400000000018
20
197.40000000000003
10
91.457600000000014
20
197.41500000000002
10
91.461900000000014
20
197.43799999999999
10
91.48520000000002
20
197.44299999999998
10
91.500299999999996
20
197.411
10
91.500299999999996
20
197.40000000000003
10
95.400300000000001
20
197.40000000000003
10
95.416900000000012
20
197.40000000000003
10
95.470500000000001
20
197.43000000000001
10
95.500799999999998
20
197.48400000000004
10
95.500799999999998
20
197.501
10
95.500799999999998
20
205.5
10
95.500799999999998
20
205.518
10
95.470500000000001
20
205.572
10
95.416900000000012
20
205.60100000000003
10
95.400300000000001
20
205.60100000000003
10
91.500299999999996
20
205.60100000000003
10
91.500299999999996
20
205.59100000000001
10
91.48520000000002
20
205.55900000000005
10
91.461900000000014
20
205.56299999999999
10
91.457600000000014
20
205.58700000000002
10
91.489400000000018
20
205.60100000000003
10
91.500299999999996
20
205.60100000000003
10
91.500299999999996
20
213.40000000000003
10
95.400300000000001
20
213.40000000000003
10
95.416900000000012
20
213.40000000000003
10
95.470500000000001
20
213.429
10
95.500799999999998
20
213.483
10
95.500799999999998
20
213.49900000000005
10
95.500799999999998
20
221.50000000000003
10
95.500799999999998
20
221.51800000000003
10
95.470500000000001
20
221.571
10
95.416900000000012
20
221.59900000000005
10
95.400300000000001
20
221.59900000000005
10
91.500299999999996
20
221.59900000000005
10
91.500299999999996
20
221.59000000000003
10
91.48520000000002
20
221.55799999999999
10
91.461900000000014
20
221.56200000000001
10
91.457600000000014
20
221.58600000000001
10
91.489400000000018
20
221.59900000000005
10
91.500299999999996
20
221.59900000000005
10
91.500299999999996
20
229.40100000000001
10
91.500299999999996
20
229.41200000000003
10
91.48520000000002
20
229.44299999999998
10
91.461900000000014
20
229.43799999999999
10
91.457600000000014
20
229.416
10
91.489400000000018
20
229.40100000000001
10
91.500299999999996
20
229.40100000000001
10
95.400300000000001
20
229.40100000000001
10
95.416900000000012
20
229.40100000000001
10
95.470500000000001
20
229.43000000000001
10
95.500799999999998
20
229.48300000000003
10
95.500799999999998
20
229.50000000000003
10
95.500799999999998
20
237.5
10
95.500799999999998
20
237.517
10
95.470500000000001
20
237.57100000000003
10
95.416900000000012
20
237.60000000000002
10
95.400300000000001
20
237.60000000000002
10
91.500299999999996
20
237.60000000000002
10
91.500299999999996
20
245.40000000000003
10
95.400300000000001
20
245.40000000000003
10
95.416900000000012
20
245.40000000000003
10
95.470500000000001
20
245.43000000000004
10
95.500799999999998
20
245.48400000000001
10
95.500799999999998
20
245.5
10
95.500799999999998
20
253.5
10
95.500799999999998
20
253.518
10
95.470500000000001
20
253.57100000000003
10
95.416900000000012
20
253.59999999999999
10
95.400300000000001
20
253.59999999999999
10
91.500299999999996
20
253.59999999999999
10
91.500299999999996
20
253.59099999999998
10
91.48520000000002
20
253.55900000000005
10
91.461900000000014
20
253.56300000000002
10
91.457600000000014
20
253.58700000000002
10
91.489400000000018
20
253.59999999999999
10
91.500299999999996
20
253.59999999999999
10
91.500299999999996
20
261.39999999999998
10
91.489400000000018
20
261.39999999999998
10
91.457600000000014
20
261.41500000000002
10
91.461900000000014
20
261.43900000000002
10
91.48520000000002
20
261.44299999999998
10
91.500299999999996
20
261.411
10
91.500299999999996
20
261.39999999999998
10
95.400300000000001
20
261.39999999999998
10
95.416900000000012
20
261.39999999999998
10
95.470500000000001
20
261.43099999999998
10
95.500799999999998
20
261.48400000000004
10
95.500799999999998
20
261.50099999999998
10
95.500799999999998
20
269.5
10
95.500799999999998
20
269.51799999999997
10
95.470500000000001
20
269.57099999999997
10
95.416900000000012
20
269.59899999999999
10
95.400300000000001
20
269.59899999999999
10
91.500299999999996
20
269.59899999999999
10
91.500299999999996
20
277.39999999999998
10
91.489400000000018
20
277.39999999999998
10
91.457600000000014
20
277.416
10
91.461900000000014
20
277.43799999999999
10
91.48520000000002
20
277.44299999999998
10
91.500299999999996
20
277.41100000000006
10
91.500299999999996
20
277.39999999999998
10
95.400300000000001
20
277.39999999999998
10
95.416900000000012
20
277.39999999999998
10
95.470500000000001
20
277.42900000000009
10
95.500799999999998
20
277.483
10
95.500799999999998
20
277.5
10
95.500799999999998
20
285.49900000000002
10
95.500799999999998
20
285.517
10
95.470500000000001
20
285.57099999999997
10
95.416900000000012
20
285.60000000000002
10
95.400300000000001
20
285.60000000000002
10
91.500299999999996
20
285.60000000000002
10
91.489400000000018
20
285.60000000000002
10
91.457600000000014
20
285.58600000000001
10
91.461900000000014
20
285.56299999999999
10
91.48520000000002
20
285.55799999999999
10
91.500299999999996
20
285.58999999999997
10
91.500299999999996
20
285.60000000000002
10
91.500299999999996
20
293.39999999999998
10
95.400300000000001
20
293.39999999999998
10
95.416900000000012
20
293.39999999999998
10
95.470500000000001
20
293.43000000000006
10
95.500799999999998
20
293.48400000000004
10
95.500799999999998
20
293.5
10
95.500799999999998
20
301.5
10
95.500799999999998
20
301.517
10
95.470500000000001
20
301.57100000000003
10
95.416900000000012
20
301.60000000000002
10
95.400300000000001
20
301.60000000000002
10
91.500299999999996
20
301.60000000000002
10
91.500299999999996
20
309.39999999999998
10
95.400300000000001
20
309.39999999999998
10
95.416900000000012
20
309.39999999999998
10
95.470500000000001
20
309.43000000000001
10
95.500799999999998
20
309.48400000000004
10
95.500799999999998
20
309.5
10
95.500799999999998
20
324.50099999999998
10
95.500799999999998
20
324.51900000000001
10
95.470500000000001
20
324.57099999999997
10
95.416900000000012
20
324.60000000000002
10
95.400300000000001
20
324.60000000000002
10
91.399799999999999
20
324.60000000000002
10
14.400500000000001
20
324.60000000000002
10
10.400100000000002
20
324.60000000000002
10
10.382100000000001
20
324.60000000000002
10
10.3284
20
324.57099999999997
10
10.299500000000002
20
324.51900000000001
10
10.299500000000002
20
324.50099999999998
0
LWPOLYLINE
5
163
100
AcDbEntity
8
0
100
AcDbPolyline
90
6
70
1
43
0.0
10
91.461900000000014
20
301.56299999999999
10
91.48520000000002
20
301.55900000000003
10
91.500299999999996
20
301.58999999999997
10
91.500299999999996
20
301.60000000000002
10
91.489400000000018
20
301.60000000000002
10
91.457600000000014
20
301.58699999999999
0
LWPOLYLINE
5
164
100
AcDbEntity
8
0
100
AcDbPolyline
90
6
70
1
43
0.0
10
14.341200000000001
20
293.41500000000002
10
14.3371
20
293.43799999999999
10
14.313700000000003
20
293.44200000000001
10
14.299900000000001
20
293.411
10
14.299900000000001
20
293.39999999999998
10
14.309500000000002
20
293.39999999999998
0
LWPOLYLINE
5
165
100
AcDbEntity
8
0
100
AcDbPolyline
90
6
70
1
43
0.0
10
91.457600000000014
20
309.41500000000008
10
91.489400000000018
20
309.39999999999998
10
91.500299999999996
20
309.39999999999998
10
91.500299999999996
20
309.411
10
91.48520000000002
20
309.44299999999998
10
91.461900000000014
20
309.43799999999999
0
LWPOLYLINE
5
166
100
AcDbEntity
8
0
100
AcDbPolyline
90
6
70
1
43
0.0
10
14.299900000000001
20
45.1997
10
14.309500000000002
20
45.1997
10
14.341200000000001
20
45.214799999999997
10
14.3371
20
45.238100000000003
10
14.313700000000003
20
45.2423
10
14.299900000000001
20
45.210599999999999
0
LWPOLYLINE
5
167
100
AcDbEntity
8
0
100
AcDbPolyline
90
6
70
1
43
0.0
10
14.309500000000002
20
61.199900000000007
10
14.341200000000001
20
61.215100000000007
10
14.3371
20
61.238700000000001
10
14.313700000000003
20
61.242900000000006
10
14.299900000000001
20
61.211200000000005
10
14.299900000000001
20
61.199900000000007
0
LWPOLYLINE
5
168
100
AcDbEntity
8
0
100
AcDbPolyline
90
6
70
1
43
0.0
10
14.3371
20
85.362700000000004
10
14.341200000000001
20
85.38600000000001
10
14.309500000000002
20
85.399699999999996
10
14.299900000000001
20
85.399699999999996
10
14.299900000000001
20
85.390199999999993
10
14.313700000000003
20
85.358500000000021
0
LWPOLYLINE
5
169
100
AcDbEntity
8
0
100
AcDbPolyline
90
6
70
1
43
0.0
10
14.3371
20
69.362099999999998
10
14.341200000000001
20
69.3857
10
14.309500000000002
20
69.399500000000003
10
14.299900000000001
20
69.399500000000003
10
14.299900000000001
20
69.389600000000002
10
14.313700000000003
20
69.357900000000001
0
LWPOLYLINE
5
170
100
AcDbEntity
8
0
100
AcDbPolyline
90
6
70
1
43
0.0
10
14.309500000000002
20
53.400300000000001
10
14.299900000000001
20
53.400300000000001
10
14.299900000000001
20
53.390799999999999
10
14.313700000000003
20
53.358999999999995
10
14.3371
20
53.363300000000002
10
14.341200000000001
20
53.386600000000008
0
LWPOLYLINE
5
171
100
AcDbEntity
8
0
100
AcDbPolyline
90
6
70
1
43
0.0
10
14.299900000000001
20
37.3902
10
14.313700000000003
20
37.358499999999999
10
14.3371
20
37.362699999999997
10
14.341200000000001
20
37.386299999999999
10
14.309500000000002
20
37.400100000000002
10
14.299900000000001
20
37.400100000000002
0
LINE
5
172
100
AcDbEntity
8
0
100
AcDbLine
10
56.988799999999998
20
178.601
30
0
11
56.957000000000008
21
178.58700000000002
31
0
0
LWPOLYLINE
5
173
100
AcDbEntity
8
0
100
AcDbPolyline
90
5
70
1
43
0.0
10
44.900500000000001
20
208.601
10
40.999499999999998
20
208.601
10
40.999499999999998
20
212.40000000000003
10
48.800500000000007
20
212.40000000000003
10
48.800500000000007
20
208.601
0
LINE
5
174
100
AcDbEntity
8
0
100
AcDbLine
10
40.956800000000008
20
178.58700000000002
30
0
11
40.9621
21
178.56300000000002
31
0
0
LWPOLYLINE
5
175
100
AcDbEntity
8
0
100
AcDbPolyline
90
6
70
1
43
0.0
10
14.341200000000001
20
93.214500000000001
10
14.3371
20
93.238100000000003
10
14.313700000000003
20
93.2423
10
14.299900000000001
20
93.210600000000014
10
14.299900000000001
20
93.199700000000007
10
14.309500000000002
20
93.199700000000007
0
LINE
5
176
100
AcDbEntity
8
0
100
AcDbLine
10
24.957700000000003
20
178.58700000000002
30
0
11
24.961800000000004
21
178.56300000000002
31
0
0
LWPOLYLINE
5
177
100
AcDbEntity
8
0
100
AcDbPolyline
90
6
70
1
43
0.0
10
14.299900000000001
20
149.40000000000001
10
14.299900000000001
20
149.38999999999999
10
14.313700000000003
20
149.35900000000001
10
14.3371
20
149.363
10
14.341200000000001
20
149.38600000000002
10
14.309500000000002
20
149.40000000000001
0
LWPOLYLINE
5
178
100
AcDbEntity
8
0
100
AcDbPolyline
90
6
70
1
43
0.0
10
91.500299999999996
20
141.20100000000002
10
91.500299999999996
20
141.21200000000002
10
91.48520000000002
20
141.24299999999999
10
91.461900000000014
20
141.238
10
91.457600000000014
20
141.21600000000001
10
91.489400000000018
20
141.20100000000002
0
LWPOLYLINE
5
179
100
AcDbEntity
8
0
100
AcDbPolyline
90
6
70
1
43
0.0
10
91.461900000000014
20
109.238
10
91.457600000000014
20
109.21500000000002
10
91.489400000000018
20
109.20000000000002
10
91.500299999999996
20
109.20000000000002
10
91.500299999999996
20
109.21100000000001
10
91.48520000000002
20
109.24300000000001
0
LWPOLYLINE
5
180
100
AcDbEntity
8
0
100
AcDbPolyline
90
6
70
1
43
0.0
10
91.500299999999996
20
117.399
10
91.489400000000018
20
117.399
10
91.457600000000014
20
117.38500000000002
10
91.461900000000014
20
117.36200000000002
10
91.48520000000002
20
117.35799999999999
10
91.500299999999996
20
117.39000000000001
0
LWPOLYLINE
5
181
100
AcDbEntity
8
0
100
AcDbPolyline
90
6
70
1
43
0.0
10
14.299900000000001
20
125.21100000000001
10
14.299900000000001
20
125.20000000000002
10
14.309500000000002
20
125.20000000000002
10
14.341200000000001
20
125.21500000000002
10
14.3371
20
125.23800000000001
10
14.313700000000003
20
125.24299999999999
0
LWPOLYLINE
5
182
100
AcDbEntity
8
0
100
AcDbPolyline
90
6
70
1
43
0.0
10
14.299900000000001
20
109.20000000000002
10
14.309500000000002
20
109.20000000000002
10
14.341200000000001
20
109.21500000000002
10
14.3371
20
109.238
10
14.313700000000003
20
109.24300000000001
10
14.299900000000001
20
109.21100000000001
0
LINE
5
183
100
AcDbEntity
8
0
100
AcDbLine
10
101.50100000000002
20
174.5
30
0
11
101.50100000000002
21
174.483
31
0
0
LINE
5
184
100
AcDbEntity
8
0
100
AcDbLine
10
97.500399999999999
20
197.51900000000003
30
0
11
97.500399999999999
21
197.501
31
0
0
LINE
5
185
100
AcDbEntity
8
0
100
AcDbLine
10
101.50100000000002
20
197.59
30
0
11
101.515
21
197.55799999999999
31
0
0
LWPOLYLINE
5
186
100
AcDbEntity
8
0
100
AcDbPolyline
90
6
70
1
43
0.0
10
101.54200000000002
20
189.416
10
101.53800000000001
20
189.43700000000004
10
101.515
20
189.44299999999998
10
101.50100000000002
20
189.411
10
101.50100000000002
20
189.40000000000001
10
101.51000000000002
20
189.40000000000001
0
LINE
5
187
100
AcDbEntity
8
0
100
AcDbLine
10
97.529300000000006
20
197.57100000000003
30
0
11
97.500399999999999
21
197.51900000000003
31
0
0
LINE
5
188
100
AcDbEntity
8
0
100
AcDbLine
10
101.515
20
197.55799999999999
30
0
11
101.53800000000001
21
197.56299999999999
31
0
0
LWPOLYLINE
5
189
100
AcDbEntity
8
0
100
AcDbPolyline
90
6
70
1
43
0.0
10
203.685
20
149.24299999999999
10
203.66200000000003
20
149.239
10
203.65800000000002
20
149.21500000000003
10
203.68900000000002
20
149.19999999999999
10
203.70000000000002
20
149.19999999999999
10
203.70000000000002
20
149.21100000000001
0
LINE
5
190
100
AcDbEntity
8
0
100
AcDbLine
10
97.581500000000005
20
189.40000000000001
30
0
11
97.59950000000002
21
189.40000000000001
31
0
0
LINE
5
191
100
AcDbEntity
8
0
100
AcDbLine
10
101.50100000000002
20
205.39900000000003
30
0
11
101.51000000000002
21
205.39900000000003
31
0
0
LINE
5
192
100
AcDbEntity
8
0
100
AcDbLine
10
101.51000000000002
20
205.39900000000003
30
0
11
101.54200000000002
21
205.41400000000004
31
0
0
LINE
5
193
100
AcDbEntity
8
0
100
AcDbLine
10
101.53
20
174.42900000000003
30
0
11
101.58200000000001
21
174.40000000000001
31
0
0
LINE
5
194
100
AcDbEntity
8
0
100
AcDbLine
10
97.529300000000006
20
189.42900000000003
30
0
11
97.581500000000005
21
189.40000000000001
31
0
0
LINE
5
195
100
AcDbEntity
8
0
100
AcDbLine
10
101.58200000000001
20
174.40000000000001
30
0
11
101.59999999999999
21
174.40000000000001
31
0
0
LINE
5
196
100
AcDbEntity
8
0
100
AcDbLine
10
97.500399999999999
20
189.483
30
0
11
97.529300000000006
21
189.42900000000003
31
0
0
LINE
5
197
100
AcDbEntity
8
0
100
AcDbLine
10
101.50100000000002
20
174.483
30
0
11
101.53
21
174.42900000000003
31
0
0
LINE
5
198
100
AcDbEntity
8
0
100
AcDbLine
10
97.500399999999999
20
189.5
30
0
11
97.500399999999999
21
189.483
31
0
0
LINE
5
199
100
AcDbEntity
8
0
100
AcDbLine
10
101.50100000000002
20
197.60000000000002
30
0
11
101.50100000000002
21
197.59
31
0
0
LINE
5
200
100
AcDbEntity
8
0
100
AcDbLine
10
101.51000000000002
20
197.60000000000002
30
0
11
101.50100000000002
21
197.60000000000002
31
0
0
LWPOLYLINE
5
201
100
AcDbEntity
8
0
100
AcDbPolyline
90
6
70
1
43
0.0
10
91.500299999999996
20
77.200500000000005
10
91.500299999999996
20
77.211399999999998
10
91.48520000000002
20
77.243200000000002
10
91.461900000000014
20
77.237499999999997
10
91.457600000000014
20
77.215599999999995
10
91.489400000000018
20
77.200500000000005
0
LWPOLYLINE
5
202
100
AcDbEntity
8
0
100
AcDbPolyline
90
6
70
1
43
0.0
10
91.500299999999996
20
237.59
10
91.500299999999996
20
237.60000000000002
10
91.489400000000018
20
237.60000000000002
10
91.457600000000014
20
237.58600000000001
10
91.461900000000014
20
237.56299999999999
10
91.48520000000002
20
237.55900000000003
0
LINE
5
203
100
AcDbEntity
8
0
100
AcDbLine
10
73.000299999999996
20
182.411
30
0
11
72.985100000000003
21
182.44299999999998
31
0
0
LWPOLYLINE
5
204
100
AcDbEntity
8
0
100
AcDbPolyline
90
6
70
1
43
0.0
10
91.500299999999996
20
245.40000000000003
10
91.500299999999996
20
245.411
10
91.48520000000002
20
245.44200000000004
10
91.461900000000014
20
245.43800000000002
10
91.457600000000014
20
245.41499999999999
10
91.489400000000018
20
245.40000000000003
0
LINE
5
205
100
AcDbEntity
8
0
100
AcDbLine
10
80.841100000000012
20
182.41499999999999
30
0
11
80.837300000000013
21
182.43799999999999
31
0
0
LINE
5
206
100
AcDbEntity
8
0
100
AcDbLine
10
32.8414
20
182.41499999999999
30
0
11
32.837299999999999
21
182.43799999999999
31
0
0
LINE
5
207
100
AcDbEntity
8
0
100
AcDbLine
10
56.984500000000004
20
182.44299999999998
30
0
11
56.961300000000001
21
182.43799999999999
31
0
0
LINE
5
208
100
AcDbEntity
8
0
100
AcDbLine
10
80.837300000000013
20
178.56300000000002
30
0
11
80.841100000000012
21
178.58700000000002
31
0
0
LINE
5
209
100
AcDbEntity
8
0
100
AcDbLine
10
48.837900000000005
20
178.56300000000002
30
0
11
48.84170000000001
21
178.58700000000002
31
0
0
LINE
5
210
100
AcDbEntity
8
0
100
AcDbLine
10
24.961800000000004
20
182.43799999999999
30
0
11
24.957700000000003
21
182.41499999999999
31
0
0
LINE
5
211
100
AcDbEntity
8
0
100
AcDbLine
10
80.837300000000013
20
182.43799999999999
30
0
11
80.813600000000008
21
182.44299999999998
31
0
0
LINE
5
212
100
AcDbEntity
8
0
100
AcDbLine
10
48.800500000000007
20
178.59099999999998
30
0
11
48.8142
21
178.55900000000003
31
0
0
LWPOLYLINE
5
213
100
AcDbEntity
8
0
100
AcDbPolyline
90
6
70
1
43
0.0
10
91.500299999999996
20
213.41099999999997
10
91.48520000000002
20
213.44300000000001
10
91.461900000000014
20
213.43800000000002
10
91.457600000000014
20
213.41499999999999
10
91.489400000000018
20
213.40000000000003
10
91.500299999999996
20
213.40000000000003
0
LWPOLYLINE
5
214
100
AcDbEntity
8
0
100
AcDbPolyline
90
5
70
1
43
0.0
10
64.799599999999998
20
212.40000000000003
10
64.799599999999998
20
208.601
10
60.89970000000001
20
208.601
10
56.999700000000004
20
208.601
10
56.999700000000004
20
212.40000000000003
0
LINE
5
215
100
AcDbEntity
8
0
100
AcDbLine
10
72.957599999999999
20
178.58700000000002
30
0
11
72.961500000000001
21
178.56300000000002
31
0
0
LINE
5
216
100
AcDbEntity
8
0
100
AcDbLine
10
64.809200000000004
20
182.40000000000003
30
0
11
64.840900000000005
21
182.41499999999999
31
0
0
LINE
5
217
100
AcDbEntity
8
0
100
AcDbLine
10
40.984299999999998
20
182.44299999999998
30
0
11
40.9621
21
182.43799999999999
31
0
0
LINE
5
218
100
AcDbEntity
8
0
100
AcDbLine
10
48.8142
20
182.44299999999998
30
0
11
48.800500000000007
21
182.411
31
0
0
LINE
5
219
100
AcDbEntity
8
0
100
AcDbLine
10
24.985199999999999
20
178.55900000000003
30
0
11
25.000400000000003
21
178.59099999999998
31
0
0
LINE
5
220
100
AcDbEntity
8
0
100
AcDbLine
10
80.813600000000008
20
182.44299999999998
30
0
11
80.799900000000008
21
182.411
31
0
0
LINE
5
221
100
AcDbEntity
8
0
100
AcDbLine
10
56.999700000000004
20
182.411
30
0
11
56.984500000000004
21
182.44299999999998
31
0
0
LWPOLYLINE
5
222
100
AcDbEntity
8
0
100
AcDbPolyline
90
326
70
1
43
0.0
10
24.841899999999999
20
330.61500000000001
10
24.837800000000001
20
330.63800000000009
10
24.814299999999999
20
330.642
10
24.800599999999999
20
330.61100000000005
10
24.800599999999999
20
330.60000000000002
10
14.400500000000001
20
330.60000000000002
10
14.3826
20
330.60000000000002
10
14.328799999999999
20
330.63
10
14.299900000000001
20
330.68400000000003
10
14.299900000000001
20
330.69999999999999
10
14.299900000000001
20
345.59899999999999
10
14.299900000000001
20
345.61100000000005
10
14.299900000000001
20
353.80099999999999
10
14.299900000000001
20
353.79000000000008
10
14.313700000000003
20
353.75900000000001
10
14.3371
20
353.76199999999994
10
14.341200000000001
20
353.78700000000003
10
14.309500000000002
20
353.80099999999999
10
14.299900000000001
20
353.80099999999999
10
14.299900000000001
20
361.601
10
14.299900000000001
20
361.61099999999999
10
14.313700000000003
20
361.64300000000003
10
14.3371
20
361.63599999999997
10
14.341200000000001
20
361.61500000000001
10
14.309500000000002
20
361.601
10
14.299900000000001
20
369.79900000000009
10
14.299900000000001
20
369.78900000000004
10
14.313700000000003
20
369.75699999999995
10
14.3371
20
369.76099999999997
10
14.341200000000001
20
369.78500000000003
10
14.309500000000002
20
369.79900000000009
10
14.299900000000001
20
369.79900000000009
10
14.299900000000001
20
377.59900000000005
10
14.299900000000001
20
377.61000000000001
10
14.313700000000003
20
377.64200000000005
10
14.3371
20
377.63800000000003
10
14.341200000000001
20
377.61699999999996
10
14.309500000000002
20
377.59900000000005
10
14.299900000000001
20
385.80100000000004
10
14.299900000000001
20
385.79100000000005
10
14.313700000000003
20
385.75900000000001
10
14.3371
20
385.76300000000003
10
14.341200000000001
20
385.78699999999998
10
14.309500000000002
20
385.80100000000004
10
14.299900000000001
20
385.80100000000004
10
14.299900000000001
20
393.601
10
14.299900000000001
20
393.61199999999997
10
14.313700000000003
20
393.64400000000001
10
14.3371
20
393.63599999999997
10
14.341200000000001
20
393.61500000000007
10
14.299900000000001
20
401.80000000000007
10
14.299900000000001
20
401.78899999999999
10
14.313700000000003
20
401.75700000000001
10
14.3371
20
401.76400000000001
10
14.341200000000001
20
401.78600000000006
10
14.309500000000002
20
401.80000000000007
10
14.299900000000001
20
401.80000000000007
10
14.299900000000001
20
409.60000000000008
10
14.299900000000001
20
409.61000000000007
10
14.341200000000001
20
417.78800000000001
10
14.309500000000002
20
417.80200000000002
10
14.299900000000001
20
417.80200000000002
10
14.299900000000001
20
432.70000000000005
10
14.299900000000001
20
432.71700000000004
10
14.328799999999999
20
432.76999999999998
10
14.3826
20
432.80200000000002
10
14.400500000000001
20
432.80200000000002
10
24.800599999999999
20
432.80200000000002
10
24.800599999999999
20
432.791
10
24.814299999999999
20
432.76000000000005
10
24.837800000000001
20
432.76300000000003
10
24.841899999999999
20
432.78800000000001
10
24.810200000000002
20
432.80200000000002
10
24.800599999999999
20
432.80200000000002
10
24.800599999999999
20
436.70000000000005
10
24.800599999999999
20
436.71800000000007
10
24.829500000000003
20
436.77099999999996
10
24.881900000000002
20
436.79900000000004
10
24.899799999999999
20
436.79900000000004
10
32.900700000000001
20
436.79900000000004
10
32.917200000000001
20
436.79900000000004
10
32.9696
20
436.77099999999996
10
32.999899999999997
20
436.71800000000007
10
32.999899999999997
20
436.70000000000005
10
32.999899999999997
20
432.80200000000002
10
32.988900000000001
20
432.80200000000002
10
32.9572
20
432.78800000000001
10
32.962699999999998
20
432.76300000000003
10
32.984700000000004
20
432.76000000000005
10
32.999899999999997
20
432.791
10
32.999899999999997
20
432.80200000000002
10
40.799500000000002
20
432.80200000000002
10
40.799500000000002
20
432.791
10
40.813200000000009
20
432.76000000000005
10
40.8369
20
432.76300000000003
10
40.841099999999997
20
432.78800000000001
10
40.809300000000007
20
432.80200000000002
10
40.799500000000002
20
432.80200000000002
10
40.799500000000002
20
436.70000000000005
10
40.799500000000002
20
436.71800000000007
10
40.828400000000002
20
436.77099999999996
10
40.882399999999997
20
436.79900000000004
10
40.900400000000005
20
436.79900000000004
10
48.899600000000007
20
436.79900000000004
10
48.916200000000003
20
436.79900000000004
10
48.970100000000009
20
436.77099999999996
10
49.00010000000001
20
436.71800000000007
10
49.00010000000001
20
436.70000000000005
10
49.00010000000001
20
432.80200000000002
10
48.989200000000004
20
432.80200000000002
10
48.9574
20
432.78800000000001
10
48.961700000000008
20
432.76300000000003
10
48.984999999999999
20
432.76000000000005
10
49.00010000000001
20
432.791
10
49.00010000000001
20
432.80200000000002
10
56.799999999999997
20
432.80200000000002
10
56.799999999999997
20
432.791
10
56.813800000000008
20
432.76000000000005
10
56.837100000000007
20
432.76300000000003
10
56.841299999999997
20
432.78800000000001
10
56.809600000000003
20
432.80200000000002
10
56.799999999999997
20
432.80200000000002
10
56.799999999999997
20
436.70000000000005
10
56.799999999999997
20
436.71800000000007
10
56.829000000000001
20
436.77099999999996
10
56.881200000000007
20
436.79900000000004
10
56.899200000000008
20
436.79900000000004
10
64.900199999999998
20
436.79900000000004
10
64.916799999999995
20
436.79900000000004
10
64.970399999999998
20
436.77099999999996
10
65.000699999999995
20
436.71800000000007
10
65.000699999999995
20
436.70000000000005
10
65.000699999999995
20
432.80200000000002
10
64.989800000000002
20
432.80200000000002
10
64.957999999999998
20
432.78800000000001
10
64.962299999999999
20
432.76300000000003
10
64.985500000000002
20
432.76000000000005
10
65.000699999999995
20
432.791
10
65.000699999999995
20
432.80200000000002
10
72.800299999999993
20
432.80200000000002
10
72.800299999999993
20
432.791
10
72.813999999999993
20
432.76000000000005
10
72.837700000000012
20
432.76300000000003
10
72.8416
20
432.78800000000001
10
72.810199999999995
20
432.80200000000002
10
72.800299999999993
20
432.80200000000002
10
72.800299999999993
20
436.70000000000005
10
72.800299999999993
20
436.71800000000007
10
72.829200000000014
20
436.77099999999996
10
72.881799999999998
20
436.79900000000004
10
72.899799999999999
20
436.79900000000004
10
80.900400000000005
20
436.79900000000004
10
80.917000000000016
20
436.79900000000004
10
80.970600000000005
20
436.77099999999996
10
80.999499999999998
20
436.71800000000007
10
80.999499999999998
20
436.70000000000005
10
80.999499999999998
20
432.80200000000002
10
80.988600000000005
20
432.80200000000002
10
80.956900000000019
20
432.78800000000001
10
80.962500000000006
20
432.76300000000003
10
80.984700000000004
20
432.76000000000005
10
80.999499999999998
20
432.791
10
80.999499999999998
20
432.80200000000002
10
91.399799999999999
20
432.80200000000002
10
91.41640000000001
20
432.80200000000002
10
91.469999999999999
20
432.76999999999998
10
91.500299999999996
20
432.71700000000004
10
91.500299999999996
20
432.70000000000005
10
91.500299999999996
20
417.80200000000002
10
91.489400000000018
20
417.80200000000002
10
91.457600000000014
20
417.78800000000001
10
91.461900000000014
20
417.76300000000003
10
91.48520000000002
20
417.75900000000007
10
91.500299999999996
20
417.791
10
91.500299999999996
20
417.80200000000002
10
91.500299999999996
20
409.60000000000008
10
91.500299999999996
20
409.61000000000007
10
91.48520000000002
20
409.64200000000005
10
91.461900000000014
20
409.63900000000001
10
91.457600000000014
20
409.61400000000003
10
91.489400000000018
20
409.60000000000008
10
91.500299999999996
20
409.60000000000008
10
91.500299999999996
20
401.80000000000007
10
91.489400000000018
20
401.80000000000007
10
91.457600000000014
20
401.78600000000006
10
91.461900000000014
20
401.76400000000001
10
91.48520000000002
20
401.75700000000001
10
91.500299999999996
20
401.78899999999999
10
91.500299999999996
20
401.80000000000007
10
91.500299999999996
20
393.601
10
91.500299999999996
20
393.61199999999997
10
91.48520000000002
20
393.64400000000001
10
91.461900000000014
20
393.63599999999997
10
91.457600000000014
20
393.61500000000007
10
91.489400000000018
20
393.601
10
91.500299999999996
20
393.601
10
91.500299999999996
20
385.80100000000004
10
91.500299999999996
20
385.79100000000005
10
91.48520000000002
20
385.75900000000001
10
91.500299999999996
20
377.59900000000005
10
91.500299999999996
20
377.61000000000001
10
91.48520000000002
20
377.64200000000005
10
91.461900000000014
20
377.63800000000003
10
91.457600000000014
20
377.61699999999996
10
91.489400000000018
20
377.59900000000005
10
91.500299999999996
20
377.59900000000005
10
91.500299999999996
20
369.79900000000009
10
91.500299999999996
20
369.78900000000004
10
91.48520000000002
20
369.75699999999995
10
91.461900000000014
20
369.76099999999997
10
91.457600000000014
20
369.78500000000003
10
91.500299999999996
20
361.601
10
91.500299999999996
20
361.61099999999999
10
91.48520000000002
20
361.64300000000003
10
91.461900000000014
20
361.63599999999997
10
91.457600000000014
20
361.61500000000001
10
91.489400000000018
20
361.601
10
91.500299999999996
20
361.601
10
91.500299999999996
20
353.80099999999999
10
91.500299999999996
20
353.79000000000008
10
91.48520000000002
20
353.75900000000001
10
91.461900000000014
20
353.76199999999994
10
91.457600000000014
20
353.78700000000003
10
91.500299999999996
20
345.59899999999999
10
91.500299999999996
20
345.61100000000005
10
91.48520000000002
20
345.642
10
91.461900000000014
20
345.63800000000009
10
91.457600000000014
20
345.61500000000001
10
91.489400000000018
20
345.59899999999999
10
91.500299999999996
20
345.59899999999999
10
91.500299999999996
20
330.69999999999999
10
91.500299999999996
20
330.68400000000003
10
91.469999999999999
20
330.63
10
91.41640000000001
20
330.60000000000002
10
91.399799999999999
20
330.60000000000002
10
80.999499999999998
20
330.60000000000002
10
80.999499999999998
20
330.61100000000005
10
80.984700000000004
20
330.642
10
80.962500000000006
20
330.63800000000009
10
80.956900000000019
20
330.61500000000001
10
80.988600000000005
20
330.60000000000002
10
80.999499999999998
20
330.60000000000002
10
80.999499999999998
20
326.70000000000005
10
80.999499999999998
20
326.68299999999999
10
80.970600000000005
20
326.63000000000005
10
80.917000000000016
20
326.601
10
80.900400000000005
20
326.601
10
72.899799999999999
20
326.601
10
72.881799999999998
20
326.601
10
72.829200000000014
20
326.63000000000005
10
72.800299999999993
20
326.68299999999999
10
72.800299999999993
20
326.70000000000005
10
72.800299999999993
20
330.60000000000002
10
72.810199999999995
20
330.60000000000002
10
72.8416
20
330.61500000000001
10
72.837700000000012
20
330.63800000000009
10
72.813999999999993
20
330.642
10
72.800299999999993
20
330.61100000000005
10
72.800299999999993
20
330.60000000000002
10
65.000699999999995
20
330.60000000000002
10
65.000699999999995
20
330.61100000000005
10
64.985500000000002
20
330.642
10
64.962299999999999
20
330.63800000000009
10
64.957999999999998
20
330.61500000000001
10
64.989800000000002
20
330.60000000000002
10
65.000699999999995
20
330.60000000000002
10
65.000699999999995
20
326.70000000000005
10
65.000699999999995
20
326.68299999999999
10
64.970399999999998
20
326.63000000000005
10
64.916799999999995
20
326.601
10
64.900199999999998
20
326.601
10
56.899200000000008
20
326.601
10
56.881200000000007
20
326.601
10
56.829000000000001
20
326.63000000000005
10
56.799999999999997
20
326.68299999999999
10
56.799999999999997
20
326.70000000000005
10
56.799999999999997
20
330.60000000000002
10
56.809600000000003
20
330.60000000000002
10
56.841299999999997
20
330.61500000000001
10
56.837100000000007
20
330.63800000000009
10
56.813800000000008
20
330.642
10
56.799999999999997
20
330.61100000000005
10
56.799999999999997
20
330.60000000000002
10
49.00010000000001
20
330.60000000000002
10
49.00010000000001
20
330.61100000000005
10
48.984999999999999
20
330.642
10
48.961700000000008
20
330.63800000000009
10
48.9574
20
330.61500000000001
10
48.989200000000004
20
330.60000000000002
10
49.00010000000001
20
330.60000000000002
10
49.00010000000001
20
326.70000000000005
10
49.00010000000001
20
326.68299999999999
10
48.970100000000009
20
326.63000000000005
10
48.916200000000003
20
326.601
10
48.899600000000007
20
326.601
10
40.900400000000005
20
326.601
10
40.882399999999997
20
326.601
10
40.828400000000002
20
326.63000000000005
10
40.799500000000002
20
326.68299999999999
10
40.799500000000002
20
326.70000000000005
10
40.799500000000002
20
330.60000000000002
10
40.809300000000007
20
330.60000000000002
10
40.841099999999997
20
330.61500000000001
10
40.8369
20
330.63800000000009
10
40.813200000000009
20
330.642
10
40.799500000000002
20
330.61100000000005
10
40.799500000000002
20
330.60000000000002
10
32.999899999999997
20
330.60000000000002
10
32.999899999999997
20
330.61100000000005
10
32.984700000000004
20
330.642
10
32.962699999999998
20
330.63800000000009
10
32.9572
20
330.61500000000001
10
32.988900000000001
20
330.60000000000002
10
32.999899999999997
20
330.60000000000002
10
32.999899999999997
20
326.70000000000005
10
32.999899999999997
20
326.68299999999999
10
32.9696
20
326.63000000000005
10
32.917200000000001
20
326.601
10
32.900700000000001
20
326.601
10
24.899799999999999
20
326.601
10
24.881900000000002
20
326.601
10
24.829500000000003
20
326.63000000000005
10
24.800599999999999
20
326.68299999999999
10
24.800599999999999
20
326.70000000000005
10
24.800599999999999
20
330.60000000000002
10
24.810200000000002
20
330.60000000000002
0
LINE
5
223
100
AcDbEntity
8
0
100
AcDbLine
10
24.985199999999999
20
182.44299999999998
30
0
11
24.961800000000004
21
182.43799999999999
31
0
0
LINE
5
224
100
AcDbEntity
8
0
100
AcDbLine
10
40.956800000000008
20
182.41499999999999
30
0
11
40.988500000000002
21
182.40000000000003
31
0
0
LINE
5
225
100
AcDbEntity
8
0
100
AcDbLine
10
72.961500000000001
20
178.56300000000002
30
0
11
72.985100000000003
21
178.55900000000003
31
0
0
LINE
5
226
100
AcDbEntity
8
0
100
AcDbLine
10
32.8001
20
178.59099999999998
30
0
11
32.813800000000001
21
178.55900000000003
31
0
0
LINE
5
227
100
AcDbEntity
8
0
100
AcDbLine
10
40.9621
20
178.56300000000002
30
0
11
40.984299999999998
21
178.55900000000003
31
0
0
LINE
5
228
100
AcDbEntity
8
0
100
AcDbLine
10
72.961500000000001
20
182.43799999999999
30
0
11
72.957599999999999
21
182.41499999999999
31
0
0
LWPOLYLINE
5
229
100
AcDbEntity
8
0
100
AcDbPolyline
90
5
70
1
43
0.0
10
73.000299999999996
20
208.601
10
73.000299999999996
20
212.40000000000003
10
80.799900000000008
20
212.40000000000003
10
80.799900000000008
20
208.601
10
76.899900000000002
20
208.601
0
LINE
5
230
100
AcDbEntity
8
0
100
AcDbLine
10
32.809699999999999
20
182.40000000000003
30
0
11
32.8414
21
182.41499999999999
31
0
0
LINE
5
231
100
AcDbEntity
8
0
100
AcDbLine
10
64.836700000000008
20
178.56300000000002
30
0
11
64.840900000000005
21
178.58700000000002
31
0
0
LINE
5
232
100
AcDbEntity
8
0
100
AcDbLine
10
56.961300000000001
20
178.56300000000002
30
0
11
56.984500000000004
21
178.55900000000003
31
0
0
LINE
5
233
100
AcDbEntity
8
0
100
AcDbLine
10
56.984500000000004
20
178.55900000000003
30
0
11
56.999700000000004
21
178.59099999999998
31
0
0
LINE
5
234
100
AcDbEntity
8
0
100
AcDbLine
10
48.810000000000002
20
182.40000000000003
30
0
11
48.84170000000001
21
182.41499999999999
31
0
0
LINE
5
235
100
AcDbEntity
8
0
100
AcDbLine
10
64.836700000000008
20
182.43799999999999
30
0
11
64.813400000000001
21
182.44299999999998
31
0
0
LINE
5
236
100
AcDbEntity
8
0
100
AcDbLine
10
64.813400000000001
20
178.55900000000003
30
0
11
64.836700000000008
21
178.56300000000002
31
0
0
LINE
5
237
100
AcDbEntity
8
0
100
AcDbLine
10
80.813600000000008
20
178.55900000000003
30
0
11
80.837300000000013
21
178.56300000000002
31
0
0
LINE
5
238
100
AcDbEntity
8
0
100
AcDbLine
10
48.8142
20
178.55900000000003
30
0
11
48.837900000000005
21
178.56300000000002
31
0
0
LINE
5
239
100
AcDbEntity
8
0
100
AcDbLine
10
32.837299999999999
20
178.56300000000002
30
0
11
32.8414
21
178.58700000000002
31
0
0
LINE
5
240
100
AcDbEntity
8
0
100
AcDbLine
10
40.999499999999998
20
182.411
30
0
11
40.984299999999998
21
182.44299999999998
31
0
0
LINE
5
241
100
AcDbEntity
8
0
100
AcDbLine
10
25.000400000000003
20
182.411
30
0
11
24.985199999999999
21
182.44299999999998
31
0
0
LINE
5
242
100
AcDbEntity
8
0
100
AcDbLine
10
72.985100000000003
20
182.44299999999998
30
0
11
72.961500000000001
21
182.43799999999999
31
0
0
LINE
5
243
100
AcDbEntity
8
0
100
AcDbLine
10
48.837900000000005
20
182.43799999999999
30
0
11
48.8142
21
182.44299999999998
31
0
0
LINE
5
244
100
AcDbEntity
8
0
100
AcDbLine
10
56.961300000000001
20
182.43799999999999
30
0
11
56.957000000000008
21
182.41499999999999
31
0
0
LINE
5
245
100
AcDbEntity
8
0
100
AcDbLine
10
56.957000000000008
20
182.41499999999999
30
0
11
56.988799999999998
21
182.40000000000003
31
0
0
LINE
5
246
100
AcDbEntity
8
0
100
AcDbLine
10
64.799599999999998
20
178.59099999999998
30
0
11
64.813400000000001
21
178.55900000000003
31
0
0
LINE
5
247
100
AcDbEntity
8
0
100
AcDbLine
10
32.813800000000001
20
182.44299999999998
30
0
11
32.8001
21
182.411
31
0
0
LINE
5
248
100
AcDbEntity
8
0
100
AcDbLine
10
72.957599999999999
20
182.41499999999999
30
0
11
72.989000000000004
21
182.40000000000003
31
0
0
LINE
5
249
100
AcDbEntity
8
0
100
AcDbLine
10
32.837299999999999
20
182.43799999999999
30
0
11
32.813800000000001
21
182.44299999999998
31
0
0
LINE
5
250
100
AcDbEntity
8
0
100
AcDbLine
10
72.985100000000003
20
178.55900000000003
30
0
11
73.000299999999996
21
178.59099999999998
31
0
0
LWPOLYLINE
5
251
100
AcDbEntity
8
0
100
AcDbPolyline
90
23
70
1
43
0.0
10
120.60000000000001
20
26.400400000000005
10
116.70100000000002
20
26.400400000000005
10
116.70100000000002
20
30.199700000000004
10
116.68900000000001
20
30.199700000000004
10
116.65799999999999
20
30.2149
10
116.66200000000002
20
30.238300000000002
10
116.68500000000002
20
30.242400000000004
10
116.70100000000002
20
30.210699999999999
10
116.70100000000002
20
30.199700000000004
10
124.50000000000001
20
30.199700000000004
10
124.50000000000001
20
30.210699999999999
10
124.514
20
30.242400000000004
10
124.53800000000001
20
30.238300000000002
10
124.541
20
30.2149
10
124.51000000000001
20
30.199700000000004
10
124.50000000000001
20
30.199700000000004
10
124.50000000000001
20
26.400400000000005
10
124.51000000000001
20
26.400400000000005
10
124.541
20
26.386700000000005
10
124.53800000000001
20
26.363300000000002
10
124.514
20
26.359100000000005
10
124.50000000000001
20
26.390799999999999
10
124.50000000000001
20
26.400400000000005
0
LINE
5
252
100
AcDbEntity
8
0
100
AcDbLine
10
80.809399999999997
20
182.40000000000003
30
0
11
80.841100000000012
21
182.41499999999999
31
0
0
LINE
5
253
100
AcDbEntity
8
0
100
AcDbLine
10
24.957700000000003
20
182.41499999999999
30
0
11
24.9893
21
182.40000000000003
31
0
0
LINE
5
254
100
AcDbEntity
8
0
100
AcDbLine
10
64.813400000000001
20
182.44299999999998
30
0
11
64.799599999999998
21
182.411
31
0
0
LINE
5
255
100
AcDbEntity
8
0
100
AcDbLine
10
40.9621
20
182.43799999999999
30
0
11
40.956800000000008
21
182.41499999999999
31
0
0
LINE
5
256
100
AcDbEntity
8
0
100
AcDbLine
10
32.813800000000001
20
178.55900000000003
30
0
11
32.837299999999999
21
178.56300000000002
31
0
0
LINE
5
257
100
AcDbEntity
8
0
100
AcDbLine
10
56.957000000000008
20
178.58700000000002
30
0
11
56.961300000000001
21
178.56300000000002
31
0
0
LINE
5
258
100
AcDbEntity
8
0
100
AcDbLine
10
64.840900000000005
20
182.41499999999999
30
0
11
64.836700000000008
21
182.43799999999999
31
0
0
LINE
5
259
100
AcDbEntity
8
0
100
AcDbLine
10
72.989000000000004
20
178.601
30
0
11
72.957599999999999
21
178.58700000000002
31
0
0
LINE
5
260
100
AcDbEntity
8
0
100
AcDbLine
10
80.841100000000012
20
178.58700000000002
30
0
11
80.809399999999997
21
178.601
31
0
0
LINE
5
261
100
AcDbEntity
8
0
100
AcDbLine
10
48.84170000000001
20
182.41499999999999
30
0
11
48.837900000000005
21
182.43799999999999
31
0
0
LINE
5
262
100
AcDbEntity
8
0
100
AcDbLine
10
64.840900000000005
20
178.58700000000002
30
0
11
64.809200000000004
21
178.601
31
0
0
LINE
5
263
100
AcDbEntity
8
0
100
AcDbLine
10
48.84170000000001
20
178.58700000000002
30
0
11
48.810000000000002
21
178.601
31
0
0
LINE
5
264
100
AcDbEntity
8
0
100
AcDbLine
10
80.799900000000008
20
178.59099999999998
30
0
11
80.813600000000008
21
178.55900000000003
31
0
0
LINE
5
265
100
AcDbEntity
8
0
100
AcDbLine
10
40.984299999999998
20
178.55900000000003
30
0
11
40.999499999999998
21
178.59099999999998
31
0
0
LINE
5
266
100
AcDbEntity
8
0
100
AcDbLine
10
32.8414
20
178.58700000000002
30
0
11
32.809699999999999
21
178.601
31
0
0
LINE
5
267
100
AcDbEntity
8
0
100
AcDbLine
10
10.382100000000001
20
401.80000000000007
30
0
11
10.3284
21
401.77199999999999
31
0
0
LINE
5
268
100
AcDbEntity
8
0
100
AcDbLine
10
10.3284
20
401.77199999999999
30
0
11
10.299500000000002
21
401.71899999999999
31
0
0
LINE
5
269
100
AcDbEntity
8
0
100
AcDbLine
10
10.299500000000002
20
401.71899999999999
30
0
11
10.299500000000002
21
401.70099999999996
31
0
0
LINE
5
270
100
AcDbEntity
8
0
100
AcDbLine
10
10.299500000000002
20
393.68200000000002
30
0
11
10.3284
21
393.62900000000002
31
0
0
LINE
5
271
100
AcDbEntity
8
0
100
AcDbLine
10
10.3284
20
393.62900000000002
30
0
11
10.382100000000001
21
393.601
31
0
0
LINE
5
272
100
AcDbEntity
8
0
100
AcDbLine
10
10.382100000000001
20
393.601
30
0
11
10.400100000000002
21
393.601
31
0
0
LINE
5
273
100
AcDbEntity
8
0
100
AcDbLine
10
14.299900000000001
20
393.601
30
0
11
14.309500000000002
21
393.601
31
0
0
LINE
5
274
100
AcDbEntity
8
0
100
AcDbLine
10
14.309500000000002
20
393.601
30
0
11
14.341200000000001
21
393.61500000000007
31
0
0
LINE
5
275
100
AcDbEntity
8
0
100
AcDbLine
10
10.382100000000001
20
385.80100000000004
30
0
11
10.3284
21
385.76999999999998
31
0
0
LINE
5
276
100
AcDbEntity
8
0
100
AcDbLine
10
10.3284
20
385.76999999999998
30
0
11
10.299500000000002
21
385.72000000000003
31
0
0
LINE
5
277
100
AcDbEntity
8
0
100
AcDbLine
10
10.299500000000002
20
385.72000000000003
30
0
11
10.299500000000002
21
385.69900000000007
31
0
0
LINE
5
278
100
AcDbEntity
8
0
100
AcDbLine
10
10.299500000000002
20
377.68400000000008
30
0
11
10.3284
21
377.63100000000003
31
0
0
LINE
5
279
100
AcDbEntity
8
0
100
AcDbLine
10
10.3284
20
377.63100000000003
30
0
11
10.382100000000001
21
377.59900000000005
31
0
0
LINE
5
280
100
AcDbEntity
8
0
100
AcDbLine
10
10.382100000000001
20
377.59900000000005
30
0
11
10.400100000000002
21
377.59900000000005
31
0
0
LINE
5
281
100
AcDbEntity
8
0
100
AcDbLine
10
14.299900000000001
20
377.59900000000005
30
0
11
14.309500000000002
21
377.59900000000005
31
0
0
LINE
5
282
100
AcDbEntity
8
0
100
AcDbLine
10
10.382100000000001
20
369.79900000000009
30
0
11
10.3284
21
369.77100000000002
31
0
0
LINE
5
283
100
AcDbEntity
8
0
100
AcDbLine
10
10.3284
20
369.77100000000002
30
0
11
10.299500000000002
21
369.71800000000002
31
0
0
LINE
5
284
100
AcDbEntity
8
0
100
AcDbLine
10
10.299500000000002
20
369.71800000000002
30
0
11
10.299500000000002
21
369.70099999999996
31
0
0
LINE
5
285
100
AcDbEntity
8
0
100
AcDbLine
10
10.299500000000002
20
361.70000000000005
30
0
11
10.299500000000002
21
361.68200000000002
31
0
0
LINE
5
286
100
AcDbEntity
8
0
100
AcDbLine
10
10.299500000000002
20
361.68200000000002
30
0
11
10.3284
21
361.62900000000002
31
0
0
LINE
5
287
100
AcDbEntity
8
0
100
AcDbLine
10
10.3284
20
361.62900000000002
30
0
11
10.382100000000001
21
361.601
31
0
0
LINE
5
288
100
AcDbEntity
8
0
100
AcDbLine
10
10.382100000000001
20
361.601
30
0
11
10.400100000000002
21
361.601
31
0
0
LINE
5
289
100
AcDbEntity
8
0
100
AcDbLine
10
14.299900000000001
20
361.601
30
0
11
14.309500000000002
21
361.601
31
0
0
LINE
5
290
100
AcDbEntity
8
0
100
AcDbLine
10
10.382100000000001
20
353.80099999999999
30
0
11
10.3284
21
353.77300000000002
31
0
0
LINE
5
291
100
AcDbEntity
8
0
100
AcDbLine
10
10.3284
20
353.77300000000002
30
0
11
10.299500000000002
21
353.71600000000001
31
0
0
LINE
5
292
100
AcDbEntity
8
0
100
AcDbLine
10
10.299500000000002
20
353.71600000000001
30
0
11
10.299500000000002
21
353.69900000000001
31
0
0
LINE
5
293
100
AcDbEntity
8
0
100
AcDbLine
10
10.299500000000002
20
345.69999999999999
30
0
11
10.299500000000002
21
345.68400000000003
31
0
0
LINE
5
294
100
AcDbEntity
8
0
100
AcDbLine
10
10.299500000000002
20
345.68400000000003
30
0
11
10.3284
21
345.63
31
0
0
LINE
5
295
100
AcDbEntity
8
0
100
AcDbLine
10
10.3284
20
345.63
30
0
11
10.382100000000001
21
345.59899999999999
31
0
0
LINE
5
296
100
AcDbEntity
8
0
100
AcDbLine
10
10.382100000000001
20
345.59899999999999
30
0
11
10.400100000000002
21
345.59899999999999
31
0
0
LINE
5
297
100
AcDbEntity
8
0
100
AcDbLine
10
14.299900000000001
20
345.59899999999999
30
0
11
14.309500000000002
21
345.59899999999999
31
0
0
LINE
5
298
100
AcDbEntity
8
0
100
AcDbLine
10
14.309500000000002
20
345.59899999999999
30
0
11
14.341200000000001
21
345.61500000000001
31
0
0
LINE
5
299
100
AcDbEntity
8
0
100
AcDbLine
10
14.341200000000001
20
345.61500000000001
30
0
11
14.3371
21
345.63800000000009
31
0
0
LINE
5
300
100
AcDbEntity
8
0
100
AcDbLine
10
14.3371
20
345.63800000000009
30
0
11
14.313700000000003
21
345.642
31
0
0
LINE
5
301
100
AcDbEntity
8
0
100
AcDbLine
10
14.313700000000003
20
345.642
30
0
11
14.299900000000001
21
345.61100000000005
31
0
0
LWPOLYLINE
5
302
100
AcDbEntity
8
0
100
AcDbPolyline
90
6
70
1
43
0.0
10
148.68899999999999
20
26.400400000000005
10
148.65700000000001
20
26.386700000000005
10
148.661
20
26.363300000000002
10
148.685
20
26.359100000000005
10
148.69999999999999
20
26.390799999999999
10
148.69999999999999
20
26.400400000000005
0
LWPOLYLINE
5
303
100
AcDbEntity
8
0
100
AcDbPolyline
90
29
70
1
43
0.0
10
136.601
20
26.400400000000005
10
132.69900000000001
20
26.400400000000005
10
132.69900000000001
20
26.390799999999999
10
132.684
20
26.359100000000005
10
132.66200000000001
20
26.363300000000002
10
132.65700000000004
20
26.386700000000005
10
132.68899999999999
20
26.400400000000005
10
132.69900000000001
20
26.400400000000005
10
132.69900000000001
20
30.199700000000004
10
132.68899999999999
20
30.199700000000004
10
132.65700000000004
20
30.2149
10
132.66200000000001
20
30.238300000000002
10
132.684
20
30.242400000000004
10
132.69900000000001
20
30.210699999999999
10
132.69900000000001
20
30.199700000000004
10
140.501
20
30.199700000000004
10
140.501
20
30.210699999999999
10
140.51499999999999
20
30.242400000000004
10
140.53799999999998
20
30.238300000000002
10
140.54200000000003
20
30.2149
10
140.50999999999999
20
30.199700000000004
10
140.501
20
30.199700000000004
10
140.501
20
26.400400000000005
10
140.50999999999999
20
26.400400000000005
10
140.54200000000003
20
26.386700000000005
10
140.53799999999998
20
26.363300000000002
10
140.51499999999999
20
26.359100000000005
10
140.501
20
26.390799999999999
10
140.501
20
26.400400000000005
0
LWPOLYLINE
5
304
100
AcDbEntity
8
0
100
AcDbPolyline
90
6
70
1
43
0.0
10
116.65799999999999
20
26.386700000000005
10
116.66200000000002
20
26.363300000000002
10
116.68500000000002
20
26.359100000000005
10
116.70100000000002
20
26.390799999999999
10
116.70100000000002
20
26.400400000000005
10
116.68900000000001
20
26.400400000000005
0
LWPOLYLINE
5
305
100
AcDbEntity
8
0
100
AcDbPolyline
90
6
70
1
43
0.0
10
164.68900000000002
20
26.400400000000005
10
164.65799999999999
20
26.386700000000005
10
164.66200000000001
20
26.363300000000002
10
164.68500000000003
20
26.359100000000005
10
164.69999999999999
20
26.390799999999999
10
164.69999999999999
20
26.400400000000005
0
LWPOLYLINE
5
306
100
AcDbEntity
8
0
100
AcDbPolyline
90
23
70
1
43
0.0
10
152.59999999999999
20
26.400400000000005
10
148.69999999999999
20
26.400400000000005
10
148.69999999999999
20
30.199700000000004
10
148.68899999999999
20
30.199700000000004
10
148.65700000000001
20
30.2149
10
148.661
20
30.238300000000002
10
148.685
20
30.242400000000004
10
148.69999999999999
20
30.210699999999999
10
148.69999999999999
20
30.199700000000004
10
156.5
20
30.199700000000004
10
156.5
20
30.210699999999999
10
156.51300000000001
20
30.242400000000004
10
156.53700000000001
20
30.238300000000002
10
156.541
20
30.2149
10
156.50900000000001
20
30.199700000000004
10
156.5
20
30.199700000000004
10
156.5
20
26.400400000000005
10
156.50900000000001
20
26.400400000000005
10
156.541
20
26.386700000000005
10
156.53700000000001
20
26.363300000000002
10
156.51300000000001
20
26.359100000000005
10
156.5
20
26.390799999999999
10
156.5
20
26.400400000000005
0
LWPOLYLINE
5
307
100
AcDbEntity
8
0
100
AcDbPolyline
90
23
70
1
43
0.0
10
168.59999999999999
20
26.400400000000005
10
164.69999999999999
20
26.400400000000005
10
164.69999999999999
20
30.199700000000004
10
164.68900000000002
20
30.199700000000004
10
164.65799999999999
20
30.2149
10
164.66200000000001
20
30.238300000000002
10
164.68500000000003
20
30.242400000000004
10
164.69999999999999
20
30.210699999999999
10
164.69999999999999
20
30.199700000000004
10
172.5
20
30.199700000000004
10
172.5
20
30.210699999999999
10
172.51400000000001
20
30.242400000000004
10
172.53700000000003
20
30.238300000000002
10
172.541
20
30.2149
10
172.51000000000002
20
30.199700000000004
10
172.5
20
30.199700000000004
10
172.5
20
26.400400000000005
10
172.51000000000002
20
26.400400000000005
10
172.541
20
26.386700000000005
10
172.53700000000003
20
26.363300000000002
10
172.51400000000001
20
26.359100000000005
10
172.5
20
26.390799999999999
10
172.5
20
26.400400000000005
0
LWPOLYLINE
5
308
100
AcDbEntity
8
0
100
AcDbPolyline
90
17
70
1
43
0.0
10
188.5
20
30.199700000000004
10
188.5
20
26.400400000000005
10
184.60000000000002
20
26.400400000000005
10
180.69900000000001
20
26.400400000000005
10
180.68900000000002
20
26.400400000000005
10
180.65700000000004
20
26.386700000000005
10
180.66200000000003
20
26.363300000000002
10
180.68400000000003
20
26.359100000000005
10
180.69900000000001
20
26.390799999999999
10
180.69900000000001
20
26.400400000000005
10
180.69900000000001
20
30.199700000000004
10
180.68900000000002
20
30.199700000000004
10
180.65700000000004
20
30.2149
10
180.66200000000003
20
30.238300000000002
10
180.68400000000003
20
30.242400000000004
10
180.69900000000001
20
30.210699999999999
10
180.69900000000001
20
30.199700000000004
0
LWPOLYLINE
5
309
100
AcDbEntity
8
0
100
AcDbPolyline
90
6
70
1
43
0.0
10
188.51400000000001
20
30.242400000000004
10
188.5
20
30.210699999999999
10
188.5
20
30.199700000000004
10
188.50999999999999
20
30.199700000000004
10
188.54200000000003
20
30.2149
10
188.53800000000001
20
30.238300000000002
0
LWPOLYLINE
5
310
100
AcDbEntity
8
0
100
AcDbPolyline
90
6
70
1
43
0.0
10
188.5
20
26.390799999999999
10
188.51400000000001
20
26.359100000000005
10
188.53800000000001
20
26.363300000000002
10
188.54200000000003
20
26.386700000000005
10
188.50999999999999
20
26.400400000000005
10
188.5
20
26.400400000000005
0
LINE
5
311
100
AcDbEntity
8
0
100
AcDbLine
10
95.400300000000001
20
345.59899999999999
30
0
11
95.416900000000012
21
345.59899999999999
31
0
0
LINE
5
312
100
AcDbEntity
8
0
100
AcDbLine
10
95.416900000000012
20
345.59899999999999
30
0
11
95.470500000000001
21
345.63
31
0
0
LINE
5
313
100
AcDbEntity
8
0
100
AcDbLine
10
95.470500000000001
20
345.63
30
0
11
95.500799999999998
21
345.68400000000003
31
0
0
LINE
5
314
100
AcDbEntity
8
0
100
AcDbLine
10
95.500799999999998
20
345.68400000000003
30
0
11
95.500799999999998
21
345.69999999999999
31
0
0
LINE
5
315
100
AcDbEntity
8
0
100
AcDbLine
10
95.470500000000001
20
353.77300000000002
30
0
11
95.416900000000012
21
353.80099999999999
31
0
0
LINE
5
316
100
AcDbEntity
8
0
100
AcDbLine
10
95.416900000000012
20
353.80099999999999
30
0
11
95.400300000000001
21
353.80099999999999
31
0
0
LINE
5
317
100
AcDbEntity
8
0
100
AcDbLine
10
91.500299999999996
20
353.80099999999999
30
0
11
91.489400000000018
21
353.80099999999999
31
0
0
LINE
5
318
100
AcDbEntity
8
0
100
AcDbLine
10
91.489400000000018
20
353.80099999999999
30
0
11
91.457600000000014
21
353.78700000000003
31
0
0
LINE
5
319
100
AcDbEntity
8
0
100
AcDbLine
10
95.416900000000012
20
361.601
30
0
11
95.470500000000001
21
361.62900000000002
31
0
0
LINE
5
320
100
AcDbEntity
8
0
100
AcDbLine
10
95.470500000000001
20
361.62900000000002
30
0
11
95.500799999999998
21
361.68200000000002
31
0
0
LINE
5
321
100
AcDbEntity
8
0
100
AcDbLine
10
95.500799999999998
20
361.68200000000002
30
0
11
95.500799999999998
21
361.70000000000005
31
0
0
LINE
5
322
100
AcDbEntity
8
0
100
AcDbLine
10
95.500799999999998
20
369.70099999999996
30
0
11
95.500799999999998
21
369.71800000000002
31
0
0
LINE
5
323
100
AcDbEntity
8
0
100
AcDbLine
10
95.500799999999998
20
369.71800000000002
30
0
11
95.470500000000001
21
369.77100000000002
31
0
0
LINE
5
324
100
AcDbEntity
8
0
100
AcDbLine
10
95.470500000000001
20
369.77100000000002
30
0
11
95.416900000000012
21
369.79900000000009
31
0
0
LINE
5
325
100
AcDbEntity
8
0
100
AcDbLine
10
95.416900000000012
20
369.79900000000009
30
0
11
95.400300000000001
21
369.79900000000009
31
0
0
LINE
5
326
100
AcDbEntity
8
0
100
AcDbLine
10
91.500299999999996
20
369.79900000000009
30
0
11
91.489400000000018
21
369.79900000000009
31
0
0
LINE
5
327
100
AcDbEntity
8
0
100
AcDbLine
10
91.489400000000018
20
369.79900000000009
30
0
11
91.457600000000014
21
369.78500000000003
31
0
0
LINE
5
328
100
AcDbEntity
8
0
100
AcDbLine
10
95.416900000000012
20
377.59900000000005
30
0
11
95.470500000000001
21
377.63100000000003
31
0
0
LINE
5
329
100
AcDbEntity
8
0
100
AcDbLine
10
95.470500000000001
20
377.63100000000003
30
0
11
95.500799999999998
21
377.68400000000008
31
0
0
LINE
5
330
100
AcDbEntity
8
0
100
AcDbLine
10
95.500799999999998
20
377.68400000000008
30
0
11
95.500799999999998
21
377.69800000000004
31
0
0
LINE
5
331
100
AcDbEntity
8
0
100
AcDbLine
10
95.500799999999998
20
385.69900000000007
30
0
11
95.500799999999998
21
385.72000000000003
31
0
0
LINE
5
332
100
AcDbEntity
8
0
100
AcDbLine
10
95.500799999999998
20
385.72000000000003
30
0
11
95.470500000000001
21
385.76999999999998
31
0
0
LINE
5
333
100
AcDbEntity
8
0
100
AcDbLine
10
95.470500000000001
20
385.76999999999998
30
0
11
95.416900000000012
21
385.80100000000004
31
0
0
LINE
5
334
100
AcDbEntity
8
0
100
AcDbLine
10
95.416900000000012
20
385.80100000000004
30
0
11
95.400300000000001
21
385.80100000000004
31
0
0
LINE
5
335
100
AcDbEntity
8
0
100
AcDbLine
10
91.500299999999996
20
385.80100000000004
30
0
11
91.489400000000018
21
385.80100000000004
31
0
0
LINE
5
336
100
AcDbEntity
8
0
100
AcDbLine
10
91.489400000000018
20
385.80100000000004
30
0
11
91.457600000000014
21
385.78699999999998
31
0
0
LINE
5
337
100
AcDbEntity
8
0
100
AcDbLine
10
91.457600000000014
20
385.78699999999998
30
0
11
91.461900000000014
21
385.76300000000003
31
0
0
LINE
5
338
100
AcDbEntity
8
0
100
AcDbLine
10
91.461900000000014
20
385.76300000000003
30
0
11
91.48520000000002
21
385.75900000000001
31
0
0
LINE
5
339
100
AcDbEntity
8
0
100
AcDbLine
10
95.400300000000001
20
393.601
30
0
11
95.416900000000012
21
393.601
31
0
0
LINE
5
340
100
AcDbEntity
8
0
100
AcDbLine
10
95.416900000000012
20
393.601
30
0
11
95.470500000000001
21
393.62900000000002
31
0
0
LINE
5
341
100
AcDbEntity
8
0
100
AcDbLine
10
95.470500000000001
20
393.62900000000002
30
0
11
95.500799999999998
21
393.68200000000002
31
0
0
LINE
5
342
100
AcDbEntity
8
0
100
AcDbLine
10
95.500799999999998
20
401.70099999999996
30
0
11
95.500799999999998
21
401.71899999999999
31
0
0
LINE
5
343
100
AcDbEntity
8
0
100
AcDbLine
10
95.500799999999998
20
401.71899999999999
30
0
11
95.470500000000001
21
401.77199999999999
31
0
0
LINE
5
344
100
AcDbEntity
8
0
100
AcDbLine
10
95.470500000000001
20
401.77199999999999
30
0
11
95.416900000000012
21
401.80000000000007
31
0
0
LINE
5
345
100
AcDbEntity
8
0
100
AcDbLine
10
95.400300000000001
20
409.60000000000008
30
0
11
95.416900000000012
21
409.60000000000008
31
0
0
LINE
5
346
100
AcDbEntity
8
0
100
AcDbLine
10
95.416900000000012
20
409.60000000000008
30
0
11
95.470500000000001
21
409.63099999999997
31
0
0
LINE
5
347
100
AcDbEntity
8
0
100
AcDbLine
10
95.470500000000001
20
409.63099999999997
30
0
11
95.500799999999998
21
409.68400000000003
31
0
0
LINE
5
348
100
AcDbEntity
8
0
100
AcDbLine
10
95.500799999999998
20
409.68400000000003
30
0
11
95.500799999999998
21
409.70200000000006
31
0
0
LINE
5
349
100
AcDbEntity
8
0
100
AcDbLine
10
95.500799999999998
20
417.69900000000007
30
0
11
95.500799999999998
21
417.71700000000004
31
0
0
LINE
5
350
100
AcDbEntity
8
0
100
AcDbLine
10
95.500799999999998
20
417.71700000000004
30
0
11
95.470500000000001
21
417.76999999999998
31
0
0
LINE
5
351
100
AcDbEntity
8
0
100
AcDbLine
10
95.470500000000001
20
417.76999999999998
30
0
11
95.416900000000012
21
417.80200000000002
31
0
0
LINE
5
352
100
AcDbEntity
8
0
100
AcDbLine
10
14.299900000000001
20
417.80200000000002
30
0
11
14.299900000000001
21
417.791
31
0
0
LINE
5
353
100
AcDbEntity
8
0
100
AcDbLine
10
14.299900000000001
20
417.791
30
0
11
14.313700000000003
21
417.75900000000007
31
0
0
LINE
5
354
100
AcDbEntity
8
0
100
AcDbLine
10
14.313700000000003
20
417.75900000000007
30
0
11
14.3371
21
417.76300000000003
31
0
0
LINE
5
355
100
AcDbEntity
8
0
100
AcDbLine
10
14.3371
20
417.76300000000003
30
0
11
14.341200000000001
21
417.78800000000001
31
0
0
LINE
5
356
100
AcDbEntity
8
0
100
AcDbLine
10
10.400100000000002
20
417.80200000000002
30
0
11
10.382100000000001
21
417.80200000000002
31
0
0
LINE
5
357
100
AcDbEntity
8
0
100
AcDbLine
10
10.382100000000001
20
417.80200000000002
30
0
11
10.3284
21
417.76999999999998
31
0
0
LINE
5
358
100
AcDbEntity
8
0
100
AcDbLine
10
10.299500000000002
20
409.70200000000006
30
0
11
10.299500000000002
21
409.68400000000003
31
0
0
LINE
5
359
100
AcDbEntity
8
0
100
AcDbLine
10
10.299500000000002
20
409.68400000000003
30
0
11
10.3284
21
409.63099999999997
31
0
0
LINE
5
360
100
AcDbEntity
8
0
100
AcDbLine
10
10.3284
20
409.63099999999997
30
0
11
10.382100000000001
21
409.60000000000008
31
0
0
LINE
5
361
100
AcDbEntity
8
0
100
AcDbLine
10
10.382100000000001
20
409.60000000000008
30
0
11
10.400100000000002
21
409.60000000000008
31
0
0
LINE
5
362
100
AcDbEntity
8
0
100
AcDbLine
10
14.299900000000001
20
409.60000000000008
30
0
11
14.309500000000002
21
409.60000000000008
31
0
0
LINE
5
363
100
AcDbEntity
8
0
100
AcDbLine
10
14.309500000000002
20
409.60000000000008
30
0
11
14.341200000000001
21
409.61400000000003
31
0
0
LINE
5
364
100
AcDbEntity
8
0
100
AcDbLine
10
14.341200000000001
20
409.61400000000003
30
0
11
14.3371
21
409.63900000000001
31
0
0
LINE
5
365
100
AcDbEntity
8
0
100
AcDbLine
10
14.3371
20
409.63900000000001
30
0
11
14.313700000000003
21
409.64200000000005
31
0
0
LINE
5
366
100
AcDbEntity
8
0
100
AcDbLine
10
14.313700000000003
20
409.64200000000005
30
0
11
14.299900000000001
21
409.61000000000007
31
0
0
LWPOLYLINE
5
367
100
AcDbEntity
8
0
100
AcDbPolyline
90
6
70
1
43
0.0
10
91.48520000000002
20
269.55799999999999
10
91.500299999999996
20
269.58999999999997
10
91.500299999999996
20
269.59899999999999
10
91.489400000000018
20
269.59899999999999
10
91.457600000000014
20
269.58600000000001
10
91.461900000000014
20
269.56200000000001
0
LWPOLYLINE
5
368
100
AcDbEntity
8
0
100
AcDbPolyline
90
6
70
1
43
0.0
10
91.500299999999996
20
293.39999999999998
10
91.500299999999996
20
293.411
10
91.48520000000002
20
293.44200000000001
10
91.461900000000014
20
293.43799999999999
10
91.457600000000014
20
293.41500000000002
10
91.489400000000018
20
293.39999999999998
0
LWPOLYLINE
5
369
100
AcDbEntity
8
0
100
AcDbPolyline
90
5
70
1
43
0.0
10
116.70100000000002
20
212.40000000000003
10
124.50000000000001
20
212.40000000000003
10
124.50000000000001
20
208.601
10
120.60000000000001
20
208.601
10
116.70100000000002
20
208.601
0
LWPOLYLINE
5
370
100
AcDbEntity
8
0
100
AcDbPolyline
90
5
70
1
43
0.0
10
164.69999999999999
20
212.40000000000003
10
172.5
20
212.40000000000003
10
172.5
20
208.601
10
168.59999999999999
20
208.601
10
164.69999999999999
20
208.601
0
LWPOLYLINE
5
371
100
AcDbEntity
8
0
100
AcDbPolyline
90
5
70
1
43
0.0
10
180.69900000000001
20
212.40000000000003
10
188.5
20
212.40000000000003
10
188.5
20
208.601
10
184.60000000000002
20
208.601
10
180.69900000000001
20
208.601
0
LWPOLYLINE
5
372
100
AcDbEntity
8
0
100
AcDbPolyline
90
5
70
1
43
0.0
10
148.69999999999999
20
212.40000000000003
10
156.5
20
212.40000000000003
10
156.5
20
208.601
10
152.59999999999999
20
208.601
10
148.69999999999999
20
208.601
0
LWPOLYLINE
5
373
100
AcDbEntity
8
0
100
AcDbPolyline
90
5
70
1
43
0.0
10
132.69900000000001
20
212.40000000000003
10
140.501
20
212.40000000000003
10
140.501
20
208.601
10
136.601
20
208.601
10
132.69900000000001
20
208.601
0
ENDSEC
0
SECTION
2
OBJECTS
0
DICTIONARY
5
C
100
AcDbDictionary
3
ACAD_GROUP
350
D
3
ACAD_MLINESTYLE
350
17
0
DICTIONARY
5
D
100
AcDbDictionary
0
DICTIONARY
5
1A
330
C
100
AcDbDictionary
0
DICTIONARY
5
17
100
AcDbDictionary
0
ENDSEC
0
EOF
